<svg id="Layer_1" height="512" viewBox="0 0 512 512" width="512" xmlns="http://www.w3.org/2000/svg" data-name="Layer 1"><path d="m188.939 212.572a4 4 0 0 1 0-5.656l35.805-35.805-12.172-12.172a4 4 0 0 0 -5.656 0l-47.977 47.977a4 4 0 0 0 0 5.656l187.744 187.744a4.006 4.006 0 0 0 5.657 0l12.171-12.171z" fill="#d4e1f4"/><path d="m123.97 147.265a6 6 0 0 0 0 8.485l19.052 19.05-3.522 3.522a6 6 0 0 0 0 8.486l15.53 15.529 8.485-8.485-11.287-11.287 30.339-30.339 11.287 11.287 8.485-8.485-15.529-15.528a6 6 0 0 0 -8.486 0l-3.522 3.522-19.052-19.052a6 6 0 0 0 -8.485 0l-7.4 7.405-79.622-79.618a6 6 0 0 0 -8.486 8.486l79.618 79.617zm27.538-10.565 14.809 14.81-14.809 14.809-14.808-14.811z" fill="#1ae5be"/><path d="m334.6 264-18.893-18.9-18.893-18.892-18.892-18.893-18.89-18.89-37.962-37.962a16 16 0 0 0 -22.628 0l-47.988 47.967a16.018 16.018 0 0 0 0 22.628l187.746 187.742a16.018 16.018 0 0 0 22.628 0l11.981-11.981 24.9 24.9-11.287 11.287a16.981 16.981 0 0 0 24.014 24.015l46.589-46.588a16.981 16.981 0 1 0 -24.015-24.015l-11.286 11.292-24.9-24.9 11.976-11.986a16.017 16.017 0 0 0 0-22.626zm106.9 130.908a4.981 4.981 0 1 1 7.045 7.044l-46.588 46.589a4.982 4.982 0 0 1 -7.046-7.044l15.526-15.526 4.437-4.437zm-28.257 11.286-5.159 5.16-1.885 1.885-24.9-24.9 7.045-7.045zm-12.927-53.854-47.976 47.976a4.006 4.006 0 0 1 -5.657 0l-187.744-187.744a4 4 0 0 1 0-5.656l47.977-47.977a4 4 0 0 1 5.656 0l33.728 33.722-19.052 19.052a6 6 0 0 0 8.485 8.486l19.052-19.052 10.409 10.409-7.4 7.4a6 6 0 0 0 8.485 8.486l7.4-7.405 10.41 10.409-19.057 19.054a6 6 0 1 0 8.485 8.485l19.052-19.052 10.409 10.41-7.4 7.405a6 6 0 1 0 8.485 8.484l7.4-7.4 10.409 10.409-19.052 19.053a6 6 0 1 0 8.485 8.484l19.052-19.052 10.41 10.41-7.406 7.4a6 6 0 1 0 8.486 8.484l7.4-7.4 10.409 10.409-19.046 19.05a6 6 0 0 0 8.485 8.486l19.052-19.051 32.169 32.169a4 4 0 0 1 0 5.657z" fill="#0635c9"/></svg>