<svg id="Layer_1" height="512" viewBox="0 0 512 512" width="512" xmlns="http://www.w3.org/2000/svg" data-name="Layer 1"><path d="m431.766 144.918-143.1 143.1a4.007 4.007 0 0 1 -5.657 0l-42.736-42.736-7.171 7.172a4 4 0 0 0 0 5.657l49.907 49.907a4.007 4.007 0 0 0 5.657 0l150.272-150.271a4 4 0 0 0 0-5.657z" fill="#d4e1f4"/><path d="m474.78 466.879v-82.726a38.144 38.144 0 0 0 -20.723-33.938c1.7-2.191 6.281-4.882 13.443-8.684 15.145-8.038 21.439-32.742 13.471-52.866-2.968-7.5-15.346-31.217-49.992-21.776a59.707 59.707 0 0 0 -17.75 8.024 70.469 70.469 0 0 1 -9.39 5.129c-.713-.4-1.5-.857-2.323-1.336-7.7-4.447-19.34-11.169-29.6-12.53-22.4-2.969-39.611 6.946-46.167 26.542a46.392 46.392 0 0 0 -3.008-7.621 6 6 0 0 0 -10.719 5.392c7.11 14.133 3.626 34.921-6.778 40.443-20.443 10.85-21.823 14.746-20.394 31.753.1 1.147.2 2.377.3 3.7 1.346 17.6-1 40.292-11.5 51.939.456-4.885 3.6-45.279-14.72-68.135a14.869 14.869 0 0 0 -22.976-.129c-18.69 22.749-15.522 63.344-15.06 68.263-10.5-11.645-12.848-34.338-11.5-51.937.1-1.328.205-2.563.3-3.715 1.432-17.018.051-20.912-20.4-31.74-9.181-4.861-13.283-20.4-8.956-33.936 6.46-20.215 25.489-19.966 33.371-18.922a38.892 38.892 0 0 1 9.6 2.9 6 6 0 1 0 4.671-11.053 49.829 49.829 0 0 0 -12.7-3.745c-22.414-2.97-39.626 6.954-46.176 26.567-.406-1.375-.868-2.737-1.4-4.078-2.969-7.5-15.346-31.217-49.993-21.776a59.719 59.719 0 0 0 -17.75 8.024 70.293 70.293 0 0 1 -9.39 5.129c-.712-.4-1.493-.856-2.322-1.335-7.7-4.448-19.34-11.17-29.6-12.531-22.642-3-39.983 7.151-46.379 27.164-6.086 19.04.541 40.66 14.772 48.194 7.121 3.77 11.683 6.446 13.409 8.633a38.078 38.078 0 0 0 -20.816 33.986v82.726a6 6 0 0 0 6 6h443.145a6 6 0 0 0 6-5.999zm-137.816-169.886c6.461-20.214 25.491-19.969 33.372-18.921 7.9 1.048 18.716 7.294 25.178 11.026 2.193 1.266 4.086 2.359 5.554 3.09 7.073 3.517 17.733 7.954 28.581 5.832a6 6 0 1 0 -2.3-11.778 22.027 22.027 0 0 1 -9.1-.326c.444-.272.877-.541 1.3-.805a48.271 48.271 0 0 1 14.581-6.644c23.473-6.4 32.43 6.411 35.679 14.616 5.658 14.286 1.8 32.68-7.939 37.849-15.533 8.244-20.056 12.478-20.708 21.5a5.946 5.946 0 0 0 -.086 2.085c-.028 2.365.138 5.046.4 8.173.1 1.147.2 2.377.3 3.7 1.346 17.6-1 40.294-11.5 51.939.456-4.884 3.6-45.279-14.719-68.135a14.869 14.869 0 0 0 -22.976-.129c-18.69 22.749-15.522 63.344-15.06 68.264-10.5-11.646-12.849-34.339-11.5-51.939.1-1.328.205-2.563.3-3.715 1.431-17.018.051-20.912-20.4-31.739-9.181-4.868-13.283-20.408-8.957-33.943zm-304.309 33.936c-9.18-4.861-13.282-20.4-8.956-33.936 6.461-20.215 25.491-19.97 33.372-18.921 7.9 1.048 18.717 7.294 25.179 11.027 2.191 1.265 4.084 2.358 5.553 3.089 7.073 3.518 17.732 7.954 28.581 5.832a6 6 0 1 0 -2.3-11.778 22.009 22.009 0 0 1 -9.1-.326q.666-.408 1.3-.805a48.278 48.278 0 0 1 14.582-6.644c23.476-6.4 32.43 6.411 35.679 14.616 5.657 14.286 1.8 32.68-7.939 37.849-20.443 10.85-21.823 14.746-20.394 31.754.1 1.147.2 2.376.3 3.7 1.345 17.6-1 40.29-11.5 51.938.457-4.888 3.6-45.28-14.72-68.134a14.869 14.869 0 0 0 -22.976-.129c-18.688 22.746-15.516 63.339-15.059 68.26-10.5-11.646-12.848-34.338-11.5-51.938.1-1.328.206-2.563.3-3.715 1.431-17.018.05-20.912-20.402-31.739zm430.125 129.95h-431.146v-76.726a26.1 26.1 0 0 1 9.257-19.966c-.034.422-.068.839-.1 1.282-.764 9.975-1.9 43.921 15.492 61.891a11.467 11.467 0 0 0 4.628 2.718 11.765 11.765 0 0 0 3.833.642 11.5 11.5 0 0 0 11.474-13.4 134.644 134.644 0 0 1 .074-22.53c.981-11.3 3.912-26.9 12.3-37.114a2.874 2.874 0 0 1 4.34.015c15.457 19.288 12.389 56.733 12.123 59.637a11.55 11.55 0 0 0 15.312 12.75 11.449 11.449 0 0 0 4.624-2.717c17.392-17.968 16.256-51.916 15.493-61.892-.1-1.354-.209-2.613-.308-3.787-.54-6.425-.735-9.336.314-11.031 1.405-2.269 6.105-5.062 13.748-9.119 6.859-3.64 11.895-10.7 14.62-19.21 2.725 8.472 7.859 15.529 14.819 19.213 7.639 4.044 12.337 6.83 13.743 9.1 1.049 1.694.854 4.6.314 11.025-.1 1.181-.2 2.445-.309 3.806-.763 9.975-1.9 43.923 15.491 61.889a11.446 11.446 0 0 0 4.63 2.72 11.763 11.763 0 0 0 3.832.642 11.5 11.5 0 0 0 11.476-13.4c-.269-2.927-3.36-40.5 12.371-59.65a2.874 2.874 0 0 1 4.34.015c15.457 19.288 12.389 56.733 12.123 59.637a11.55 11.55 0 0 0 15.312 12.758 11.465 11.465 0 0 0 4.624-2.717c17.393-17.97 16.255-51.916 15.492-61.891-.1-1.355-.209-2.614-.307-3.788-.54-6.425-.735-9.336.314-11.031 1.4-2.269 6.105-5.062 13.748-9.119 6.915-3.67 11.927-10.708 14.643-19.14 2.731 8.441 7.855 15.469 14.8 19.143 7.638 4.044 12.336 6.83 13.743 9.1 1.049 1.693.854 4.6.314 11.024-.1 1.181-.2 2.445-.309 3.807-.763 9.975-1.9 43.921 15.492 61.891a11.467 11.467 0 0 0 4.628 2.718 11.765 11.765 0 0 0 3.833.642 11.5 11.5 0 0 0 11.475-13.394c-.268-2.918-3.361-40.5 12.372-59.651a2.873 2.873 0 0 1 4.339.015c15.459 19.289 12.388 56.743 12.123 59.638a11.551 11.551 0 0 0 15.312 12.749 11.463 11.463 0 0 0 4.625-2.717c17.392-17.97 16.255-51.916 15.492-61.891-.031-.4-.061-.777-.092-1.162a26.143 26.143 0 0 1 9.126 19.846z" fill="#1ae5be"/><path d="m448.89 44.194a17.322 17.322 0 1 0 -24.5 24.5l11.769 11.769-25.938 25.937-12.7-12.7a16.019 16.019 0 0 0 -22.628 0l-150.275 150.269a16.019 16.019 0 0 0 0 22.629l.695.695-11.77 11.769a6 6 0 0 0 0 8.485l3.764 3.764-12.485 12.489a6 6 0 0 0 0 8.485l7.767 7.766-67.642 67.641a6 6 0 1 0 8.486 8.485l67.641-67.641 7.766 7.767a6 6 0 0 0 8.486 0l12.484-12.485 3.764 3.764a6 6 0 0 0 8.486 0l11.769-11.77.695.7a16.016 16.016 0 0 0 22.628 0l150.271-150.28a16.018 16.018 0 0 0 0-22.628l-12.7-12.7 25.94-25.941 11.77 11.77a17.322 17.322 0 1 0 24.5-24.5zm-215.807 279.376-15.533-15.532 8.242-8.242 15.533 15.532zm24.734-8.72-31.546-31.545 7.527-7.527 31.546 31.545zm181.121-157.1-150.271 150.269a4.007 4.007 0 0 1 -5.657 0l-49.91-49.907a4 4 0 0 1 0-5.657l20.54-20.54 19.776 19.775a6 6 0 0 0 8.485-8.485l-19.776-19.776 11-11 7.766 7.767a6 6 0 1 0 8.485-8.486l-7.766-7.766 11-11 19.776 19.775a6 6 0 0 0 8.485-8.485l-19.776-19.776 11-11 7.767 7.767a6 6 0 0 0 8.485-8.486l-7.766-7.766 11-11 19.776 19.775a6 6 0 0 0 8.485-8.485l-19.788-19.763 11-11 7.767 7.767a6 6 0 0 0 8.485-8.485l-7.766-7.767 23.839-23.839a4 4 0 0 1 5.656 0l49.907 49.907a4 4 0 0 1 -.004 5.664zm-12.7-35.332-7.526-7.527 25.94-25.941 7.527 7.527zm62.208-14.171a5.323 5.323 0 0 1 -7.527 0l-16.014-16.013-16.015-16.015-16.01-16.01a5.323 5.323 0 0 1 7.528-7.527l48.036 48.036a5.323 5.323 0 0 1 0 7.528z" fill="#0635c9"/></svg>