<svg id="Layer_1" height="512" viewBox="0 0 512 512" width="512" xmlns="http://www.w3.org/2000/svg" data-name="Layer 1"><path d="m217.182 162.887c0-72.619 55.228-132.575 125.887-140.088a141.846 141.846 0 0 0 -15-.8c-77.685 0-140.887 63.2-140.887 140.887s63.2 140.887 140.887 140.887a141.846 141.846 0 0 0 15-.8c-70.659-7.511-125.887-67.468-125.887-140.086z" fill="#d4e1f4"/><path d="m311.107 380.993-.064-.065c-2.75-2.988-8.435-7.869-16.2-7.869-5.72 0-11.487 2.743-16.677 7.934l-28.166 28.165c-1.074 1.073-3.927 3.924-8.274 3.924a11.889 11.889 0 0 1 -5.381-1.381l-.088-.055c-.224-.139-.45-.276-.677-.4-2.582-1.589-5.441-3.018-8.466-4.531a106.926 106.926 0 0 1 -9.6-5.222c-25.868-16.358-49.315-37.7-71.678-65.251-.066-.082-.134-.161-.2-.239-12.107-15.4-19.986-28.234-25.512-41.561l-.164-.493c-1.445-4.6-1.471-8.312 2.817-12.6.065-.066.129-.132.192-.2.018-.016.036-.034.055-.05 7.042-6.318 13.424-12.667 20.826-20.244 1.613-1.56 3.2-3.164 4.731-4.714q1.173-1.186 2.361-2.38c5.589-5.588 8.3-11.151 8.3-17.007s-2.715-11.419-8.3-17.007l-22.417-22.417q-1.966-2.025-3.921-4-1.971-2-3.9-3.982c-5.472-5.652-10.116-10.349-14.965-14.882l-.173-.174c-4.92-4.922-10.545-7.523-16.267-7.523-5.666 0-11.415 2.584-16.624 7.472-.046.043-.092.088-.136.133l-28.092 28.078a43.618 43.618 0 0 0 -13.1 28.211c-1.325 16.155 1.631 32.854 9.576 54.125 12.677 34.25 31.836 66.182 60.32 100.512a371.735 371.735 0 0 0 123.564 96.76c17.526 8.38 40.917 18.211 66.426 19.843 1.433.1 2.9.1 4.186.1 14.348 0 25.909-4.9 35.347-15 .065-.07.13-.142.191-.215a212.917 212.917 0 0 1 15.513-16.062l1.868-1.819c2.889-2.809 5.617-5.463 8.347-8.4 10.616-11.062 10.536-23.51-.2-34.141zm-221.818-202.228c3.119 0 5.952 2.179 7.806 4.033l.2.2c.056.057.113.112.172.167 4.693 4.384 9.234 8.979 14.61 14.529q1.958 2.022 3.968 4.054c1.28 1.3 2.569 2.609 3.923 4l22.482 22.482c3.178 3.179 4.789 6.046 4.789 8.523s-1.611 5.344-4.789 8.522q-1.216 1.217-2.411 2.429l-.132.133-61.939-61.937 2.974-2.974c2.922-2.726 5.806-4.161 8.347-4.161zm232.618 300.143c-7.217 7.67-15.391 11.092-26.488 11.092-1.157 0-2.355 0-3.4-.069-23.471-1.5-45.479-10.782-62-18.684a359.742 359.742 0 0 1 -119.55-93.631c-27.573-33.233-46.094-64.054-58.29-97.01-7.3-19.553-10.038-34.654-8.866-48.942a31.647 31.647 0 0 1 9.628-20.727l16.551-16.552 61.962 61.961c-5.7 5.768-10.914 10.86-16.513 15.881l-.048.043a7.048 7.048 0 0 0 -.921.918c-9.928 10.219-6.558 20.888-5.442 24.418.01.036.022.07.034.105l.24.721c.045.134.094.267.148.4 6 14.524 14.456 28.347 27.433 44.824.1.122.2.242.305.357 23.148 28.478 47.49 50.6 74.406 67.621a118.636 118.636 0 0 0 10.66 5.816c2.836 1.418 5.514 2.757 7.671 4.1.123.076.248.147.376.215l.1.063c.332.207.667.406.992.567a23.815 23.815 0 0 0 10.837 2.692c6.181 0 11.819-2.5 16.759-7.439l17.129-17.129 62.041 62.041a219.859 219.859 0 0 0 -15.754 16.348zm26.339-26.937a6.131 6.131 0 0 0 -.677.718c-.453.484-.927.949-1.387 1.425l-62.082-62.084 2.552-2.552c1.652-1.651 4.911-4.419 8.193-4.419 3.366 0 6.314 2.835 7.426 4.054.053.059.109.117.166.175l45.587 45.588c6.06 6.004 6.136 10.824.222 17.095z" fill="#0635c9"/><g fill="#1ae5be"><path d="m360.429 68.4a69.654 69.654 0 0 0 -20.689 9.358 83.953 83.953 0 0 1 -11.735 6.352c-.97-.546-2.06-1.176-3.227-1.85-9.027-5.214-22.669-13.092-34.582-14.672-26.2-3.466-46.244 8.246-53.63 31.351-7.04 22.023.555 46.993 16.929 55.662 9.415 4.984 14.859 8.237 16.66 11.148 1.421 2.3 1.19 5.858.531 13.694-.118 1.393-.243 2.885-.366 4.491a143.321 143.321 0 0 0 2.053 38.331c2.959 14.662 8.326 26.092 15.953 33.971a12.489 12.489 0 0 0 5.04 2.939 12.56 12.56 0 0 0 16.655-13.9c-.3-3.265-4.07-48.286 14.859-71.327a4.488 4.488 0 0 1 6.824.029c18.593 23.2 14.858 68.05 14.558 71.3a12.5 12.5 0 0 0 12.474 14.6 12.807 12.807 0 0 0 4.179-.7 12.487 12.487 0 0 0 5.041-2.939c20.237-20.91 18.9-60.628 18.006-72.3-.122-1.6-.247-3.082-.363-4.469-.66-7.841-.891-11.4.53-13.7 1.8-2.906 7.245-6.167 16.663-11.166 17.439-9.256 24.644-37.814 15.417-61.113-9.138-23.09-30.735-32.462-57.78-25.09zm36.737 75.6c-23.727 12.594-25.188 16.688-23.525 36.472.114 1.358.236 2.813.356 4.378 1.628 21.3-1.307 48.885-14.377 62.742a6.293 6.293 0 0 1 -.608.237.742.742 0 0 1 -.863-.2.707.707 0 0 1 -.042-.424c.031-.164.055-.328.073-.493.221-2.127 5.188-52.41-17.113-80.235a16.485 16.485 0 0 0 -25.459-.142c-22.751 27.694-17.73 78.242-17.5 80.381.016.164.041.327.071.489a.7.7 0 0 1 -.041.42.746.746 0 0 1 -.864.207 6.187 6.187 0 0 1 -.608-.237c-13.068-13.857-16-41.44-14.377-62.741.12-1.574.243-3.035.359-4.4 1.665-19.794.2-23.887-23.534-36.454-11.288-5.975-16.377-24.935-11.114-41.4 7.888-24.674 31.038-24.385 40.622-23.109 9.552 1.267 21.953 8.428 30.159 13.167 2.575 1.487 4.8 2.771 6.5 3.619 8.217 4.087 20.588 9.24 33.083 6.8a6 6 0 1 0 -2.3-11.777 29.1 29.1 0 0 1 -13.751-1.048c1.334-.787 2.568-1.551 3.752-2.287 4.946-3.065 9.216-5.714 17.521-7.977 28.565-7.787 39.493 7.889 43.467 17.924 6.869 17.337 2.065 39.738-9.887 46.082z"/><path d="m328.069 10c-84.3 0-152.887 68.585-152.887 152.887s68.585 152.887 152.887 152.887 152.887-68.585 152.887-152.887-68.585-152.887-152.887-152.887zm0 293.774c-77.685 0-140.887-63.2-140.887-140.887s63.202-140.887 140.887-140.887 140.887 63.2 140.887 140.887-63.201 140.887-140.887 140.887z"/></g></svg>