<svg id="Layer_1" height="512" viewBox="0 0 512 512" width="512" xmlns="http://www.w3.org/2000/svg" data-name="Layer 1"><path d="m265.808 363.628a114.874 114.874 0 0 1 104.724-114.283c-3.3-.286-6.63-.441-10-.441a114.725 114.725 0 0 0 0 229.449c3.37 0 6.7-.155 10-.441a114.874 114.874 0 0 1 -104.724-114.284z" fill="#d4e1f4"/><path d="m368.886 65.5h-16.144v-12.091a31.8 31.8 0 0 0 -31.762-31.762h-1.38a31.8 31.8 0 0 0 -31.762 31.762v12.091h-141.208v-12.091a31.8 31.8 0 0 0 -31.761-31.762h-1.382a31.8 31.8 0 0 0 -31.761 31.762v12.091h-16.144a40.885 40.885 0 0 0 -40.839 40.838v276.662a40.884 40.884 0 0 0 40.839 40.838h187.161a6 6 0 0 0 0-12h-187.161a28.871 28.871 0 0 1 -28.839-28.838v-204.086h360.981v71.942h12v-144.521a40.884 40.884 0 0 0 -40.838-40.835zm-49.286-31.853h1.381a19.784 19.784 0 0 1 19.762 19.762v23.007a19.784 19.784 0 0 1 -19.763 19.762h-1.38a19.784 19.784 0 0 1 -19.762-19.762v-23.007a19.784 19.784 0 0 1 19.762-19.762zm-206.112 0h1.382a19.783 19.783 0 0 1 19.76 19.762v23.007a19.783 19.783 0 0 1 -19.761 19.762h-1.382a19.784 19.784 0 0 1 -19.761-19.762v-4.842c0-.026 0-.051 0-.077s0-.052 0-.078v-18.01a19.784 19.784 0 0 1 19.761-19.762zm-76.745 133.267v-60.579a28.872 28.872 0 0 1 28.839-28.835h16.171a31.794 31.794 0 0 0 31.734 30.681h1.382a31.794 31.794 0 0 0 31.731-30.681h141.264a31.794 31.794 0 0 0 31.736 30.678h1.381a31.794 31.794 0 0 0 31.734-30.678h16.171a28.871 28.871 0 0 1 28.838 28.838v60.579z" fill="#0635c9"/><g fill="#1ae5be"><path d="m360.532 236.9a126.725 126.725 0 1 0 126.725 126.728 126.867 126.867 0 0 0 -126.725-126.728zm0 241.449a114.725 114.725 0 1 1 114.725-114.721 114.854 114.854 0 0 1 -114.725 114.725z"/><path d="m385.909 287.387a56.4 56.4 0 0 0 -16.757 7.574 66.122 66.122 0 0 1 -8.6 4.716c-.625-.356-1.305-.748-2.021-1.162-7.254-4.188-18.215-10.519-27.919-11.807-21.457-2.846-37.872 6.782-43.933 25.75-5.766 18.035.535 38.525 14.044 45.677 6.935 3.672 11.489 6.36 12.76 8.413.921 1.489.728 4.337.242 10.126-.094 1.109-.194 2.3-.291 3.574-.72 9.4-1.789 41.4 14.64 58.375a11.087 11.087 0 0 0 4.492 2.647 11.21 11.21 0 0 0 14.855-12.37 126 126 0 0 1 .071-21.069c.916-10.552 3.649-25.126 11.462-34.636a2.332 2.332 0 0 1 3.5.012c14.4 17.968 11.555 52.92 11.3 55.7a11.284 11.284 0 0 0 14.852 12.363 11.087 11.087 0 0 0 4.492-2.643c16.431-16.98 15.363-48.976 14.644-58.379-.1-1.272-.2-2.454-.289-3.558-.487-5.792-.68-8.642.24-10.129 1.27-2.051 5.825-4.745 12.765-8.429 14.37-7.628 20.358-31.032 12.813-50.085-7.509-18.972-25.215-26.696-47.362-20.66zm28.925 60.146c-19.387 10.291-20.695 13.992-19.336 30.162.091 1.076.188 2.228.282 3.468 1.225 16.024-.814 36.553-9.968 47.626.61-7.847 2.285-42.779-13.992-63.087a14.326 14.326 0 0 0 -22.138-.125c-16.613 20.219-14.931 55.328-14.316 63.21-9.153-11.074-11.192-31.6-9.967-47.624.1-1.246.193-2.4.284-3.484 1.36-16.18.051-19.881-19.344-30.149-8.471-4.485-12.239-18.873-8.23-31.418 2.475-7.742 9.792-20.308 30.926-17.507 7.343.974 17.454 6.812 23.5 10.3 2.064 1.192 3.847 2.221 5.236 2.912 6.686 3.326 16.762 7.517 27.063 5.506a6 6 0 0 0 -2.3-11.778 19.661 19.661 0 0 1 -7.492-.116l.438-.271a44.451 44.451 0 0 1 13.588-6.2c21.75-5.931 30.047 5.912 33.052 13.5 5.245 13.26 1.706 30.302-7.286 35.075z"/></g></svg>