<svg id="Layer_1" height="512" viewBox="0 0 512 512" width="512" xmlns="http://www.w3.org/2000/svg" data-name="Layer 1"><path d="m313.863 76.7a107.306 107.306 0 0 1 -24.079-7.22 208.713 208.713 0 0 0 19.708-11.18c10.527-6.528 19.618-12.165 37.478-17.034a125.7 125.7 0 0 1 20.195-3.839c-12.109-1.373-25.6-.139-40.195 3.839-17.86 4.869-26.951 10.506-37.478 17.034a208.713 208.713 0 0 1 -19.708 11.174c17.329 7.226 31.544 9.519 44.079 7.226z" fill="#d4e1f4"/><path d="m132.067 183.751c-12.522-6.629-22.091-19.956-26.944-37.524a98.093 98.093 0 0 1 1.183-54.58c4.972-15.555 20.5-47.969 64.028-52.2-58.971-5.2-78.359 34.465-84.028 52.2a98.093 98.093 0 0 0 -1.183 54.58c4.853 17.568 14.422 30.9 26.944 37.524 46.616 24.68 48 30.482 44.806 68.473q-.106 1.265-.217 2.585h20q.11-1.321.217-2.585c3.195-37.991 1.81-43.793-44.806-68.473z" fill="#d4e1f4"/><path d="m234.435 226.736a6 6 0 0 0 8.445-.828 17.794 17.794 0 0 1 27.311.138 6 6 0 0 0 9.364-7.5 29.793 29.793 0 0 0 -45.948-.25 6 6 0 0 0 .828 8.44z" fill="#0635c9"/><path d="m199.429 443.238a6 6 0 1 0 5.442 10.695l6.129-3.119v10.377a6 6 0 0 0 3.293 5.355l39.558 20a6.005 6.005 0 0 0 5.367.024l40.442-20a6 6 0 0 0 3.34-5.379v-57.191l16.1-8.193a6 6 0 1 0 -5.443-10.695l-10.657 5.422v-22.414l16.214-8.25a6 6 0 0 0 -5.443-10.7l-10.771 5.486v-22.415l16.327-8.308a6 6 0 0 0 -5.443-10.695l-10.884 5.538v-26.334a6 6 0 0 0 -12 0v32.441l-68 34.6v-67.041a6 6 0 0 0 -12 0v73.149l-11.345 5.774a6 6 0 1 0 5.445 10.695l5.9-3v22.415l-11.458 5.83a6 6 0 1 0 5.442 10.7l6.016-3.07v22.415zm91.571 14.227-34.412 17.018-33.588-16.983v-12.792l68-34.6zm-68-84.515 68-34.6v22.415l-68 34.6zm0 35.879 68-34.6v22.414l-68 34.6z" fill="#1ae5be"/><path d="m106.453 194.357c20.682 10.949 32 17.828 36.461 25.035 4.118 6.653 3.366 15.6 2 31.826-.238 2.833-.493 5.868-.743 9.133a6 6 0 0 0 5.983 6.458h40.846v25.633a6 6 0 0 0 6 6h120a6 6 0 0 0 6-6v-25.633h39.141a6 6 0 0 0 5.982-6.458c-.248-3.249-.5-6.27-.739-9.091-1.364-16.239-2.116-25.185 2-31.837 4.455-7.2 15.774-14.089 36.462-25.069 16.369-8.688 28.295-26.413 33.582-49.908 4.989-22.17 3.185-46.665-4.949-67.206-7.9-19.963-21.212-35.121-38.481-43.834-19.972-10.078-44.259-11.327-72.185-3.714-19.545 5.327-29.8 11.683-40.647 18.412a173.454 173.454 0 0 1 -26.56 14.159 10.644 10.644 0 0 0 -1.042.5c-2.636-1.435-5.861-3.3-9.434-5.361-18.03-10.402-45.269-26.14-68.393-29.202-50.307-6.671-88.76 15.683-102.862 59.8-13.513 42.271.652 89.985 31.578 106.357zm204.547 92.085h-108v-19.633h108zm-224.694-194.795c5.852-18.308 26.321-59.978 89.853-51.556 20.763 2.754 46.766 17.77 63.972 27.707 5.175 2.989 9.645 5.57 12.956 7.217 33.374 16.6 52.312 15.574 63.653 13.362a6 6 0 1 0 -2.3-11.778c-12.675 2.474-27.063.208-44.658-7.122a208.713 208.713 0 0 0 19.71-11.177c10.527-6.528 19.618-12.165 37.478-17.034 46.095-12.563 81.214 2.157 96.354 40.389 7.268 18.354 8.871 40.279 4.4 60.154-4.441 19.736-14.464 35.023-27.5 41.942-46.6 24.736-47.986 30.538-44.8 68.511q.1 1.245.213 2.544h-198.981q.11-1.321.217-2.585c3.2-37.991 1.81-43.793-44.806-68.473-12.522-6.629-22.091-19.956-26.944-37.524a98.093 98.093 0 0 1 1.183-54.577z" fill="#0635c9"/></svg>