<svg id="Layer_1" height="512" viewBox="0 0 512 512" width="512" xmlns="http://www.w3.org/2000/svg" data-name="Layer 1"><path d="m313.056 423.315c-4.009-47.3-16.206-83.958-36.251-108.97a28.668 28.668 0 0 0 -22.526-10.689 29.576 29.576 0 0 0 -6.857.811c.032.04.066.077.1.117 20.046 25.011 32.243 61.674 36.252 108.969a369.779 369.779 0 0 1 .061 63.343c-.017.161-.04.322-.07.481a8.683 8.683 0 0 0 11.726 9.805 11.251 11.251 0 0 0 3.644-1.727 93.477 93.477 0 0 0 15.2-21.376 391.653 391.653 0 0 0 -1.279-40.764z" fill="#d4e1f4"/><path d="m165.541 476.9c-.012-.111-.049-.473-.1-1.056-19.23-34.6-23.564-85.374-20.458-126.009.268-3.5.542-6.759.8-9.8 1.644-19.544 2.636-31.341-3.975-42.02-6.362-10.278-19.33-18.36-44.227-31.54-13.724-7.266-24.2-21.845-29.509-41.051a106.92 106.92 0 0 1 1.288-59.5c6.053-18.936 17.186-34.183 32.195-44.09 17.53-11.57 39.683-15.678 65.848-12.207.924.123 1.859.275 2.8.44-10.918-4.922-22.053-8.871-32.084-10.2-26.166-3.471-48.319.637-65.848 12.206-15.009 9.908-26.142 25.154-32.2 44.091a106.92 106.92 0 0 0 -1.289 59.5c5.305 19.205 15.785 33.785 29.51 41.05 24.9 13.18 37.865 21.262 44.227 31.54 6.611 10.68 5.618 22.476 3.975 42.02-.256 3.04-.53 6.3-.8 9.8-3.757 49.144 3.346 113.144 34.553 145.388a11.309 11.309 0 0 0 3.635 1.719 8.684 8.684 0 0 0 11.727-9.8c-.028-.162-.051-.321-.068-.481z" fill="#d4e1f4"/><path d="m66.288 265.227c22.078 11.688 34.165 19.041 38.961 26.789 4.452 7.191 3.647 16.755 2.187 34.116-.253 3.014-.525 6.245-.79 9.72-2.144 28.036-.6 56.979 4.348 81.5 6.169 30.567 17.231 54.263 32.878 70.431 1.767 1.824 4.446 3.339 8.193 4.629a20.914 20.914 0 0 0 6.828 1.144 20.168 20.168 0 0 0 20.121-23.8c-.514-5.328-9.671-107.629 33.895-160.658a16.822 16.822 0 0 1 25.815.129c42.711 53.293 33.693 155.2 33.183 160.533a20.547 20.547 0 0 0 1.383 11.762c4.165 9.607 15.4 14.391 25.568 10.889 3.746-1.29 6.426-2.8 8.193-4.629 15.647-16.167 26.708-39.863 32.877-70.43 4.947-24.519 6.492-53.462 4.348-81.5-.235-3.075-.473-5.959-.7-8.673-1.907-23.157-2.167-30.861 5.01-38.783l-8.893-8.057c-11.013 12.157-9.97 24.826-8.076 47.824.221 2.692.457 5.554.69 8.6 5.629 73.567-13.807 121.937-33.864 142.657a11.1 11.1 0 0 1 -3.491 1.642 8.286 8.286 0 0 1 -11.2-9.355c.03-.163.055-.328.072-.493a363.7 363.7 0 0 0 -.06-62.286c-3.944-46.523-15.946-82.592-35.674-107.208a28.821 28.821 0 0 0 -44.452-.241c-20.118 24.488-32.374 60.563-36.427 107.221a359.85 359.85 0 0 0 -.109 62.518c.018.164.042.327.072.488a8.287 8.287 0 0 1 -11.2 9.357 11.332 11.332 0 0 1 -3.477-1.628c-20.072-20.735-39.511-69.105-33.887-142.669.264-3.442.533-6.642.784-9.628 1.619-19.254 2.6-30.876-3.941-41.439-6.32-10.209-18.543-17.839-43.553-31.078-13.425-7.107-23.68-21.379-28.875-40.184a104.817 104.817 0 0 1 1.264-58.323c6.259-19.583 28.142-64.163 96.071-55.149 22.177 2.94 49.9 18.947 68.237 29.539 3.507 2.025 6.535 3.774 9.226 5.263l5.808-10.5c-2.594-1.434-5.578-3.158-9.033-5.153-19.163-11.066-48.122-27.79-72.66-31.044-53.353-7.07-94.128 16.62-109.078 63.391-14.331 44.839.664 95.421 33.428 112.766z" fill="#0635c9"/><g fill="#1ae5be"><path d="m348.528 18.446c-74.99 0-136 61.01-136 136s61.01 136 136 136 136-61.009 136-136-61.009-136-136-136zm0 260a124 124 0 1 1 124-124 124.14 124.14 0 0 1 -124 124z"/><path d="m433.245 119.658c-5.212-25.835-23.978-42.528-47.808-42.528-11.807 0-24.477 4.31-36.861 12.506-12.542-8.569-25.026-12.907-37.164-12.907-23.975 0-42.667 16.877-47.619 42.985-7.071 36.855 15.082 85.664 80.513 111.625.1.04.205.078.31.113a11.1 11.1 0 0 0 7.816 0c.119-.039.236-.083.352-.13 65.411-26.5 87.548-75.156 80.469-111.621zm-84.723 100.442c-58.9-23.45-79.076-66.164-72.941-98.139 3.888-20.5 17.617-33.234 35.831-33.234 10.485 0 22.078 4.513 33.525 13.052a6 6 0 0 0 7.112.046c11.445-8.306 22.991-12.7 33.388-12.7 18.133 0 31.942 12.6 36.041 32.881 8.488 43.817-30.478 80.807-72.956 98.094z"/></g></svg>