<svg id="Layer_1" height="512" viewBox="0 0 512 512" width="512" xmlns="http://www.w3.org/2000/svg" data-name="Layer 1"><path d="m297.824 69.477c11.727-7.271 21.855-13.551 41.77-18.979 16.64-4.537 31.992-5.87 45.737-4.179-19.731-11.795-45.631-14.028-75.737-5.819-19.915 5.428-30.043 11.708-41.77 18.979a224.7 224.7 0 0 1 -23.128 13c11.76 5.012 22.247 8.013 31.821 9.108a234.034 234.034 0 0 0 21.307-12.11z" fill="#d4e1f4"/><path d="m170.572 425.417c-.012-.113-.05-.484-.1-1.082-19.7-35.444-24.14-87.46-20.958-129.087.275-3.589.555-6.925.818-10.04 1.683-20.021 2.7-32.106-4.073-43.046-6.517-10.53-19.8-18.809-45.307-32.311-14.06-7.443-24.8-22.379-30.231-42.054a109.536 109.536 0 0 1 1.32-60.951c6.2-19.4 17.606-35.018 32.982-45.168 17.958-11.852 40.652-16.06 67.457-12.5.946.126 1.9.282 2.868.451-11.184-5.042-22.592-9.088-32.868-10.451-26.8-3.555-49.5.653-67.457 12.5-15.381 10.15-26.786 25.769-32.987 45.168a109.536 109.536 0 0 0 -1.32 60.951c5.434 19.675 16.171 34.611 30.231 42.054 25.5 13.5 38.79 21.781 45.307 32.311 6.773 10.94 5.756 23.025 4.073 43.046-.263 3.115-.543 6.451-.818 10.04-3.849 50.344 3.428 115.909 35.4 148.941a11.618 11.618 0 0 0 3.725 1.761 8.9 8.9 0 0 0 12.014-10.043c-.034-.162-.058-.325-.076-.49z" fill="#d4e1f4"/><path d="m386.583 32.471c-22.016-11.109-48.812-12.481-79.645-4.071-21.599 5.883-32.938 12.912-44.938 20.355-8.269 5.127-16.818 10.429-29.571 15.762a10.821 10.821 0 0 0 -1.389.714c-3-1.622-6.7-3.759-10.82-6.14-19.964-11.529-50.133-28.951-75.668-32.338-55.488-7.353-97.902 17.281-113.447 65.915-14.905 46.632.673 99.232 34.727 117.265 23.06 12.207 35.689 19.892 40.719 28.02 4.685 7.569 3.845 17.57 2.317 35.726-.264 3.142-.548 6.509-.824 10.131-2.233 29.207-.625 59.357 4.53 84.9 6.422 31.82 17.931 56.483 34.21 73.3 1.815 1.874 4.576 3.431 8.442 4.76a21.584 21.584 0 0 0 7.037 1.181 20.771 20.771 0 0 0 20.722-24.524c-.528-5.462-10.115-112.3 35.395-167.7a17.795 17.795 0 0 1 27.311.139 111.044 111.044 0 0 1 6.807 9.5 6 6 0 1 0 10.1-6.478 123.511 123.511 0 0 0 -7.545-10.529 29.793 29.793 0 0 0 -45.947-.25c-20.942 25.491-33.7 63.055-37.922 111.648a374.777 374.777 0 0 0 -.114 65.131c.017.164.041.327.073.49a8.9 8.9 0 0 1 -12.014 10.042 11.6 11.6 0 0 1 -3.725-1.761c-20.962-21.659-41.268-72.159-35.4-148.94.274-3.59.555-6.926.817-10.04 1.684-20.022 2.7-32.107-4.071-43.047-6.518-10.53-19.8-18.808-45.308-32.311-14.06-7.443-24.8-22.379-30.231-42.054a109.549 109.549 0 0 1 1.32-60.952c6.2-19.4 17.606-35.017 32.982-45.167 17.962-11.848 40.658-16.055 67.462-12.499 23.174 3.074 52.1 19.78 71.244 30.833 5.733 3.312 10.685 6.171 14.342 7.99 17.653 8.78 44.137 19.864 70.226 14.773a6 6 0 0 0 -2.3-11.777c-14.509 2.832-31.022.1-51.277-8.523a224.768 224.768 0 0 0 23.113-12.992c11.728-7.271 21.855-13.551 41.77-18.979 51.518-14.047 90.783 2.439 107.724 45.218 8.114 20.491 9.905 44.965 4.912 67.15-4.971 22.092-16.217 39.219-30.855 46.988-14.062 7.463-25.017 13.625-32.775 19.44a6 6 0 0 0 7.2 9.6c7.139-5.351 17.637-11.243 31.2-18.443 17.994-9.551 31.111-29.068 36.937-54.953 5.508-24.48 3.517-51.526-5.463-74.2-8.711-22.003-23.373-38.707-42.39-48.303z" fill="#0635c9"/><g fill="#1ae5be"><path d="m350.5 217c-74.99 0-136 61.01-136 136s61.01 136 136 136 136-61.01 136-136-61.01-136-136-136zm0 260a124 124 0 1 1 124-124 124.14 124.14 0 0 1 -124 124z"/><path d="m343.478 274.045q6.8 0 13.169-4.955c1.086-.847 2.025-1.665 2.854-2.388a16.554 16.554 0 0 1 6.177-3.936c3.172-1.078 7.074-.644 11.6 1.289a6 6 0 0 0 4.717-11.034c-7.325-3.133-14.113-3.676-20.175-1.617a28.056 28.056 0 0 0 -10.2 6.254c-.78.681-1.517 1.323-2.342 1.966-3.408 2.653-7.792 4.788-16.8-3.522a6 6 0 1 0 -8.137 8.82c6.584 6.078 12.983 9.123 19.137 9.123z"/><path d="m328.293 332.782a6.006 6.006 0 0 0 -7.215 4.467c-3.765 16 .569 26.717 12.884 31.848 1.35.563 2.6 1.006 3.709 1.4 2.833 1 4.7 1.661 7.068 3.774 2.759 2.464 4.457 6.423 5.047 11.768a6 6 0 0 0 5.956 5.343 6.237 6.237 0 0 0 .666-.037 6 6 0 0 0 5.306-6.622c-.925-8.377-3.945-14.9-8.98-19.4a29.653 29.653 0 0 0 -11.067-6.139c-1.052-.371-2.045-.723-3.09-1.157-4.431-1.848-8.9-4.916-5.817-18.024a6 6 0 0 0 -4.467-7.221z"/><path d="m422.758 357.8c-.846.727-1.644 1.415-2.542 2.106-3.806 2.928-8.69 5.28-18.529-3.91a6 6 0 0 0 -8.192 8.77c6.973 6.511 13.753 9.771 20.284 9.771q7.086 0 13.754-5.12c1.16-.893 2.168-1.76 3.056-2.525 2.276-1.961 3.78-3.256 6.789-4.258 3.509-1.17 7.786-.673 12.72 1.47a6 6 0 0 0 4.785-11c-7.728-3.362-14.9-3.985-21.3-1.852a29.649 29.649 0 0 0 -10.825 6.548z"/><path d="m415.725 324.272a6 6 0 0 0 5.257-8.882 9.354 9.354 0 0 1 2.964-12.281 21.39 21.39 0 0 0 2.142-33.739 6 6 0 0 0 -7.94 9 9.39 9.39 0 0 1 -.94 14.812 21.3 21.3 0 0 0 -6.751 27.973 6 6 0 0 0 5.268 3.117z"/><path d="m365.215 424.1a6 6 0 0 0 -6.451 5.512 10.436 10.436 0 0 1 -14.469 8.793l-2.336-.988a22.435 22.435 0 0 0 -30.084 13.743l-.4 1.22a6 6 0 1 0 11.415 3.7l.4-1.22a10.434 10.434 0 0 1 13.992-6.393l2.336.988a22.435 22.435 0 0 0 31.109-18.9 6 6 0 0 0 -5.512-6.455z"/><path d="m289.993 332.082a6 6 0 0 0 -11.988.527 10.435 10.435 0 0 1 -13.289 10.491l-2.438-.7a22.436 22.436 0 0 0 -28.182 17.31l-.244 1.259a6 6 0 0 0 4.748 7.033 6.089 6.089 0 0 0 1.149.11 6 6 0 0 0 5.884-4.858l.244-1.262a10.435 10.435 0 0 1 13.109-8.052l2.438.695a22.434 22.434 0 0 0 28.569-22.559z"/><path d="m294 374.665a6 6 0 0 0 -1.055 8.42 9.5 9.5 0 0 1 -5.778 15.178 21.505 21.505 0 0 0 -16.4 28.216 6 6 0 0 0 11.334-3.946 9.5 9.5 0 0 1 7.249-12.47 21.5 21.5 0 0 0 13.075-34.343 6 6 0 0 0 -8.425-1.055z"/><path d="m264.488 291.1a6 6 0 0 0 8.183-2.248 7.541 7.541 0 0 1 14.014 2.637 19.346 19.346 0 0 0 15.439 16.311 20.135 20.135 0 0 0 4 .405 19.311 19.311 0 0 0 16.583-9.393 6 6 0 0 0 -10.25-6.24 7.54 7.54 0 0 1 -13.9-2.827 19.541 19.541 0 0 0 -36.317-6.83 6 6 0 0 0 2.248 8.185z"/><path d="m413.285 436.268a7.542 7.542 0 0 1 -5.5-13.078 19.541 19.541 0 0 0 -14.827-33.847 6 6 0 0 0 .975 11.961 7.541 7.541 0 0 1 5.721 13.061 19.542 19.542 0 0 0 13.195 33.914c.351 0 .7-.008 1.058-.027a6 6 0 1 0 -.621-11.984z"/><path d="m388.588 331.949a6.021 6.021 0 0 0 -6.3-5.681 7.542 7.542 0 0 1 -5.5-13.078 19.541 19.541 0 0 0 -14.827-33.847 6 6 0 0 0 .975 11.961 7.541 7.541 0 0 1 5.721 13.061 19.542 19.542 0 0 0 13.195 33.914c.351 0 .7-.008 1.058-.027a6 6 0 0 0 5.678-6.303z"/></g></svg>