<svg id="Layer_1" height="512" viewBox="0 0 512 512" width="512" xmlns="http://www.w3.org/2000/svg" data-name="Layer 1"><path d="m310.94 327.506a94.131 94.131 0 0 1 84-93.467 94 94 0 1 0 0 186.935 94.132 94.132 0 0 1 -84-93.468z" fill="#d4e1f4"/><g fill="#0635c9"><path d="m266.058 137.879a6 6 0 0 0 -6-6h-115.84a6 6 0 0 0 0 12h115.84a6 6 0 0 0 6-6z"/><path d="m282.447 191.687a6 6 0 0 0 -6-6h-72.493a6 6 0 0 0 0 12h72.493a6 6 0 0 0 6-6z"/><path d="m175.745 197.687a6 6 0 0 0 0-12h-31.527a6 6 0 1 0 0 12z"/><path d="m426 32.971q-1.18 0-2.346.06v-.06h-281.141a53.1 53.1 0 0 0 -52.923 52.399l-2.385 270.707h-60.145a6 6 0 0 0 -6 6v43.608c0 39.387 30.59 71.61 68.8 73.264v.08h225.107v-.129c1.354.077 2.716.126 4.09.126 31.279 0 58.767-20.384 68.4-50.724l-11.438-3.631c-8.042 25.334-30.934 42.355-57 42.355-33.02 0-59.884-27.519-59.884-61.344v-43.605a6 6 0 0 0 -6-6h-153.93l2.385-270.594a41.058 41.058 0 0 1 40.923-40.512h252.138a46.948 46.948 0 0 0 -15.711 35.06v146.726h12v-64.473h76.12a6 6 0 0 0 6-6v-76.253a47.113 47.113 0 0 0 -47.06-47.06zm-146.306 434.058h-186.751c-33.02 0-59.883-27.519-59.883-61.344v-37.608h214.074v37.608a73.693 73.693 0 0 0 32.56 61.344zm181.366-316.745h-70.12v-70.253a35.06 35.06 0 1 1 70.12 0z"/><path d="m287.969 143.879h39.218a6 6 0 0 0 0-12h-39.218a6 6 0 0 0 0 12z"/><path d="m161.815 262.849a9.261 9.261 0 0 1 9.25 9.251 6 6 0 0 0 12 0 21.278 21.278 0 0 0 -15.25-20.375v-3.256a6 6 0 0 0 -12 0v3.256a21.244 21.244 0 0 0 6 41.625 9.248 9.248 0 0 1 .111 18.5c-.037 0-.073-.006-.111-.006s-.074.005-.111.006a9.259 9.259 0 0 1 -9.14-9.245 6 6 0 0 0 -12 0 21.278 21.278 0 0 0 15.251 20.374v3.95a6 6 0 0 0 12 0v-3.95a21.244 21.244 0 0 0 -6-41.625 9.251 9.251 0 1 1 0-18.5z"/><path d="m243.934 262.849a9.262 9.262 0 0 1 9.251 9.251 6 6 0 0 0 12 0 21.279 21.279 0 0 0 -15.251-20.375v-3.256a6 6 0 0 0 -12 0v3.256a21.244 21.244 0 0 0 6 41.625 9.248 9.248 0 0 1 .111 18.5c-.037 0-.073-.006-.111-.006s-.074.005-.111.006a9.258 9.258 0 0 1 -9.14-9.245 6 6 0 0 0 -12 0 21.278 21.278 0 0 0 15.251 20.374v3.95a6 6 0 0 0 12 0v-3.95a21.244 21.244 0 0 0 -6-41.625 9.251 9.251 0 1 1 0-18.5z"/></g><path d="m405.826 263.008a47.808 47.808 0 0 0 -14.23 6.426 55.913 55.913 0 0 1 -6.585 3.658l-1.235-.712c-6.113-3.53-15.352-8.866-23.636-9.964-9.725-1.292-18.122.346-24.964 4.862a31.975 31.975 0 0 0 -12.732 17.283c-5.028 15.73.326 32.971 12.188 39.251 4.413 2.336 9.209 4.97 10.251 6.653.628 1.014.388 3.872.055 7.827-.078.927-.162 1.919-.243 2.987-.607 7.941-1.5 34.973 12.484 49.424a10.214 10.214 0 0 0 4.132 2.45 10.341 10.341 0 0 0 13.7-11.373c-.224-2.468-2.523-31.167 9.39-45.668a1 1 0 0 1 1.366 0c11.711 14.613 9.424 43.226 9.2 45.668a10.4 10.4 0 0 0 13.694 11.373 10.21 10.21 0 0 0 4.139-2.453c13.984-14.45 13.09-41.481 12.482-49.422-.081-1.062-.164-2.05-.241-2.973-.333-3.957-.573-6.816.055-7.83 1.041-1.682 5.839-4.323 10.255-6.667 12.4-6.58 17.6-26.668 11.139-42.989s-21.67-22.99-40.664-17.811zm23.9 50.2c-8.3 4.4-12.4 7.029-14.832 10.95-2.715 4.384-2.335 8.9-1.81 15.152.075.894.155 1.853.234 2.883.911 11.908-.35 26.821-6.11 36.208.423-10.312-.014-34.739-12.079-49.794a12.939 12.939 0 0 0 -20-.113c-12.322 15-12.78 39.552-12.355 49.9-5.76-9.388-7.02-24.3-6.11-36.2.079-1.035.16-2 .236-2.9.525-6.249.9-10.763-1.809-15.148-2.432-3.929-6.544-6.551-14.84-10.943-6.543-3.464-9.521-15.143-6.373-24.993 1.967-6.155 7.8-16.144 24.688-13.9 5.923.786 14.243 5.59 19.213 8.461 1.734 1 3.231 1.866 4.415 2.455 5.7 2.836 14.313 6.408 23.19 4.674a6 6 0 0 0 -2.3-11.777 13.644 13.644 0 0 1 -3.064.228 33.407 33.407 0 0 1 8.964-3.767c16.507-4.5 23.443 3.309 26.351 10.653 4.124 10.425 1.347 24.28-5.611 27.972z" fill="#1ae5be"/><path d="m384.94 221.506a106 106 0 1 0 106 106 106.121 106.121 0 0 0 -106-106zm0 200a94 94 0 1 1 94-94 94.106 94.106 0 0 1 -94 94z" fill="#1ae5be"/></svg>