<svg id="Layer_1" height="512" viewBox="0 0 512 512" width="512" xmlns="http://www.w3.org/2000/svg" data-name="Layer 1"><g fill="#d4e1f4"><path d="m328.2 71.54c13.13-8.142 24.471-15.173 46.769-21.252 18.632-5.079 35.822-6.571 51.211-4.678-22.087-13.207-51.1-15.708-84.8-6.518-22.3 6.078-33.639 13.109-46.769 21.251a251.579 251.579 0 0 1 -25.9 14.559c13.168 5.612 24.91 8.973 35.63 10.2a262.259 262.259 0 0 0 23.859-13.562z"/><path d="m354.921 408.619c-4.6-54.25-18.59-96.3-41.583-124.994a32.883 32.883 0 0 0 -25.838-12.261 33.909 33.909 0 0 0 -7.866.93c.037.046.077.088.113.134 22.994 28.69 36.984 70.744 41.583 124.994a424.112 424.112 0 0 1 .07 72.658c-.019.185-.046.37-.081.552a10.321 10.321 0 0 0 .661 6.048c2.031 4.685 7.649 6.962 12.79 5.2 3.267-1.125 4.172-1.973 4.18-1.982a107.264 107.264 0 0 0 17.432-24.518 449.171 449.171 0 0 0 -1.461-46.761z"/><path d="m185.712 470.085c-.013-.128-.056-.543-.118-1.212-22.058-39.687-27.03-97.929-23.466-144.539.307-4.019.622-7.754.915-11.241 1.885-22.418 3.024-35.949-4.559-48.2-7.3-11.79-22.173-21.06-50.731-36.178-15.743-8.334-27.765-25.058-33.85-47.087a122.652 122.652 0 0 1 1.478-68.247c6.944-21.722 19.714-39.21 36.93-50.575 20.107-13.271 45.518-17.983 75.532-14 1.059.14 2.132.315 3.211.505-12.523-5.646-25.3-10.176-36.8-11.7-30.014-3.981-55.424.73-75.532 14-17.222 11.364-29.988 28.852-36.932 50.574a122.643 122.643 0 0 0 -1.477 68.247c6.085 22.029 18.106 38.753 33.849 47.087 28.558 15.118 43.433 24.388 50.731 36.178 7.583 12.25 6.445 25.781 4.559 48.2-.293 3.487-.608 7.223-.915 11.241-4.31 56.371 3.838 129.783 39.634 166.769 0 0 .905.848 4.17 1.971 5.142 1.771 10.761-.511 12.791-5.2a10.317 10.317 0 0 0 .661-6.049c-.034-.178-.061-.361-.081-.544z"/></g><path d="m419.425 200.42a6 6 0 0 0 6-6v-12.948h46.106v-12h-429.878v12h40.185v12.948a6 6 0 0 0 12 0v-12.948h29.449v12.948a6 6 0 0 0 12 0v-12.948h29.448v12.948a6 6 0 0 0 12 0v-12.948h29.448v12.948a6 6 0 0 0 12 0v-12.948h29.448v12.948a6 6 0 0 0 12 0v-12.948h29.449v12.948a6 6 0 1 0 12 0v-12.948h29.448v12.948a6 6 0 0 0 12 0v-12.948h29.449v12.948a6 6 0 0 0 12 0v-12.948h29.448v12.948a6 6 0 0 0 6 6z" fill="#0635c9"/><path d="m426.321 33.23c-24.081-12.151-53.413-13.643-87.181-4.439-23.676 6.453-36.11 14.163-49.274 22.326-9.115 5.652-18.54 11.5-32.616 17.383a11.571 11.571 0 0 0 -1.749.916c-3.353-1.806-7.539-4.224-12.212-6.922-21.918-12.657-55.04-31.785-83.01-35.5-32.581-4.32-60.439.971-82.8 15.731-19.34 12.775-33.635 32.26-41.341 56.369-16.312 51.031.694 108.576 37.909 128.278 25.46 13.479 39.413 21.98 45.019 31.037 5.259 8.5 4.328 19.567 2.637 39.665-.29 3.454-.6 7.156-.906 11.139-2.453 32.075-.687 65.183 4.973 93.224 7.04 34.887 19.648 61.916 37.473 80.334 1.929 1.992 4.889 3.657 9.05 5.088 11.235 3.867 23.632-1.408 28.227-12.006a22.69 22.69 0 0 0 1.52-13.024c-.561-5.776-11.207-123.737 39.064-184.928a20.172 20.172 0 0 1 30.974.158c49.285 61.495 38.8 178.978 38.242 184.773a22.688 22.688 0 0 0 1.52 13.021 22.441 22.441 0 0 0 20.68 13.271 23.139 23.139 0 0 0 7.545-1.265c4.162-1.431 7.123-3.095 9.053-5.088 17.824-18.418 30.432-45.447 37.473-80.334 5.659-28.041 7.425-61.15 4.972-93.224-.3-3.964-.612-7.65-.9-11.09-1.69-20.106-2.62-31.183 2.638-39.677 5.6-9.043 19.553-17.56 45.019-31.077 19.637-10.423 33.958-31.749 40.327-60.05 6.033-26.812 3.853-56.434-5.981-81.269-9.531-24.066-25.557-42.33-46.345-52.82zm40.617 131.455c-5.506 24.471-17.988 43.456-34.245 52.085-28.535 15.145-42.467 23.845-49.6 35.36-7.345 11.865-6.234 25.089-4.393 47 .286 3.412.593 7.068.894 11 6.474 84.658-15.955 140.38-39.1 164.3-.009.009-.906.908-4.334 2.087-5.348 1.842-11.193-.547-13.311-5.433a10.737 10.737 0 0 1 -.688-6.294c.031-.163.055-.328.072-.493a415.981 415.981 0 0 0 -.07-71.267c-4.508-53.174-18.208-94.379-40.722-122.47a32.169 32.169 0 0 0 -49.61-.271c-22.958 27.945-36.947 69.154-41.58 122.484a411.747 411.747 0 0 0 -.126 71.528c.018.164.041.327.072.489a10.737 10.737 0 0 1 -.688 6.294c-2.118 4.886-7.967 7.271-13.312 5.433-3.427-1.179-4.324-2.078-4.332-2.087-23.148-23.918-45.577-79.639-39.1-164.3.3-3.949.611-7.621.9-11.048 1.842-21.9 2.954-35.119-4.391-46.985-7.1-11.465-21.651-20.527-49.609-35.327-15.613-8.266-27.529-24.827-33.552-46.63a121.118 121.118 0 0 1 1.459-67.39c6.863-21.472 19.492-38.762 36.521-50 19.874-13.126 44.978-17.782 74.607-13.85 25.609 3.4 57.49 21.807 78.587 33.99 6.3 3.637 11.74 6.779 15.746 8.771 40.384 20.085 63.211 18.864 76.867 16.2a6 6 0 0 0 -2.3-11.777c-16.387 3.2-35.025.04-58-9.926a241.645 241.645 0 0 0 26.583-14.838c12.94-8.023 24.115-14.952 46.106-20.946 57-15.54 100.452 2.722 119.212 50.1 8.975 22.642 10.955 49.693 5.437 74.211z" fill="#1ae5be"/></svg>