<svg id="Layer_1" height="512" viewBox="0 0 512 512" width="512" xmlns="http://www.w3.org/2000/svg" data-name="Layer 1"><g fill="#d4e1f4"><path d="m322.824 89.477c11.727-7.271 21.855-13.551 41.77-18.979 16.64-4.537 31.992-5.87 45.737-4.179-19.731-11.795-45.631-14.028-75.737-5.819-19.915 5.428-30.043 11.708-41.77 18.979a224.7 224.7 0 0 1 -23.128 13c11.76 5.012 22.247 8.013 31.821 9.108a234.034 234.034 0 0 0 21.307-12.11z"/><path d="m346.692 390.523c-4.107-48.451-16.6-86.01-37.137-111.633a29.369 29.369 0 0 0 -23.076-10.95 30.244 30.244 0 0 0 -7.025.831c.033.041.068.078.1.119 20.535 25.623 33.03 63.182 37.137 111.633a378.754 378.754 0 0 1 .063 64.891c-.017.165-.041.33-.072.493a8.9 8.9 0 0 0 12.018 10.044 11.5 11.5 0 0 0 3.733-1.77 95.766 95.766 0 0 0 15.567-21.897 400.669 400.669 0 0 0 -1.308-41.761z"/><path d="m167.475 59.173a118.564 118.564 0 0 0 -36.419.36l1.744 20.391c17.5-10.507 39.235-14.125 64.673-10.751.946.126 1.9.282 2.868.451-11.182-5.042-22.59-9.088-32.866-10.451z"/><path d="m195.645 445.907c-.031-.162-.055-.325-.073-.49-.011-.113-.05-.484-.1-1.082-19.7-35.444-24.14-87.46-20.958-129.087.275-3.589.555-6.925.818-10.04 1.683-20.021 2.7-32.106-4.073-43.046-6.517-10.53-19.8-18.809-45.307-32.311-14.06-7.443-24.8-22.379-30.231-42.054a109.7 109.7 0 0 1 -.16-55.857l-32.751 4.523a108.648 108.648 0 0 0 2.906 41.337c5.434 19.675 16.171 34.611 30.231 42.054 25.5 13.5 38.79 21.781 45.307 32.311 6.773 10.94 5.756 23.025 4.073 43.046-.263 3.115-.543 6.451-.818 10.04-3.849 50.344 3.428 115.909 35.4 148.941a11.618 11.618 0 0 0 3.725 1.761 8.9 8.9 0 0 0 12.014-10.043z"/></g><path d="m411.085 53c-22.016-11.108-48.81-12.479-79.644-4.076-21.6 5.89-32.935 12.918-44.938 20.36-8.271 5.127-16.821 10.429-29.588 15.768a11.1 11.1 0 0 0 -1.386.7c-3-1.621-6.7-3.763-10.83-6.145-19.958-11.525-50.118-28.941-75.649-32.331-17.069-2.265-32.939-1.592-47.169 2a6 6 0 0 0 -4.137 7.958 50.1 50.1 0 0 1 -3.745 43.3 6 6 0 0 0 3.154 8.935h.006l53.756 17.831-.915 47.584a6 6 0 0 0 1.135 3.628l9.846 13.634-24.061-13.682-.923-40.6a6 6 0 0 0 -4.247-5.6l-49.815-15.2a6 6 0 0 0 -4.882.622 50.21 50.21 0 0 1 -37.868 5.914 6 6 0 0 0 -7.324 4.787c-7.651 43.3 8.529 86.222 38.471 102.066 23.058 12.207 35.687 19.893 40.718 28.022 4.686 7.57 3.846 17.569 2.321 35.722-.265 3.144-.548 6.513-.824 10.135-1.966 25.69-4.982 113.021 38.739 158.209 1.834 1.888 4.6 3.445 8.437 4.751 10.475 3.615 22.048-1.307 26.342-11.206a21.146 21.146 0 0 0 1.42-12.135c-.528-5.5-10.054-112.373 35.39-167.691a17.494 17.494 0 0 1 13.6-6.32 18.163 18.163 0 0 1 7.648 1.69 16.939 16.939 0 0 1 6.061 4.763c44.612 55.67 35.179 162.072 34.654 167.562a20.775 20.775 0 0 0 20.715 24.525 21.515 21.515 0 0 0 7.027-1.18c3.868-1.318 6.637-2.879 8.457-4.767 43.723-45.178 40.707-132.511 38.741-158.2-.275-3.605-.556-6.959-.819-10.09-1.525-18.16-2.365-28.164 2.321-35.733 5.024-8.115 17.654-15.817 40.719-28.06 18.001-9.55 31.113-29.066 36.939-54.95 5.507-24.478 3.517-51.522-5.462-74.2-8.713-22-23.376-38.706-42.391-48.3zm36.144 119.869c-4.97 22.09-16.215 39.216-30.853 46.985-26.03 13.818-38.748 21.767-45.295 32.342-6.772 10.94-5.758 23.028-4.076 43.055.261 3.1.539 6.425.812 10 3.852 50.339-3.424 115.9-35.4 148.941a11.313 11.313 0 0 1 -3.725 1.759 8.89 8.89 0 0 1 -12.008-10.036c.031-.165.055-.331.073-.5a378.812 378.812 0 0 0 -.066-64.89c-4.108-48.45-16.6-86.01-37.141-111.637a29.234 29.234 0 0 0 -10.326-8.12 30.249 30.249 0 0 0 -12.745-2.827 29.453 29.453 0 0 0 -22.876 10.7c-20.938 25.488-33.7 63.05-37.916 111.644a374.835 374.835 0 0 0 -.115 65.131c.018.167.042.332.074.5a8.891 8.891 0 0 1 -12.032 10.026 11.415 11.415 0 0 1 -3.712-1.751c-31.967-33.041-39.242-98.6-35.39-148.942.274-3.591.554-6.93.816-10.046 1.683-20.018 2.7-32.1-4.074-43.043-6.519-10.53-19.8-18.808-45.309-32.311-12.387-6.554-22.428-19.275-28.273-35.818a106.463 106.463 0 0 1 -4.882-47.567 62.852 62.852 0 0 0 8.21.536 61.907 61.907 0 0 0 29.936-7.694l43.164 13.167.9 39.663a6 6 0 0 0 3.032 5.079l51 29a6 6 0 0 0 7.83-8.729l-24.826-34.376.962-50a6 6 0 0 0 -4.11-5.81l-51.271-17a62.265 62.265 0 0 0 3.445-40.733 118.35 118.35 0 0 1 36.409-.4c23.171 3.075 52.091 19.775 71.227 30.826 5.742 3.316 10.7 6.179 14.358 8 17.649 8.785 44.134 19.878 70.233 14.779a6 6 0 0 0 -2.3-11.778c-14.528 2.838-31.031.131-51.294-8.511a224.466 224.466 0 0 0 23.13-13c11.73-7.276 21.858-13.555 41.775-18.983 51.513-14.039 90.78 2.44 107.72 45.221 8.112 20.487 9.902 44.961 4.909 67.144z" fill="#0635c9"/></svg>