<svg id="Layer_1" height="512" viewBox="0 0 512 512" width="512" xmlns="http://www.w3.org/2000/svg" data-name="Layer 1"><path d="m484.922 244.33a6 6 0 0 0 -6 6v50.018a4.923 4.923 0 0 1 -4.922 4.918h-3.256v-55.666a6 6 0 0 0 -12 0v55.663h-7v-55.663a6 6 0 0 0 -12 0v55.663h-7v-55.663a6 6 0 0 0 -12 0v55.663h-7v-55.663a6 6 0 0 0 -12 0v55.663h-7v-55.663a6 6 0 0 0 -12 0v55.663h-7v-55.663a6 6 0 0 0 -12 0v55.458a37.391 37.391 0 0 1 -22.644-10.779l-20.912-20.838a49.351 49.351 0 0 0 -35.061-14.486h-249.186a16.918 16.918 0 1 0 0 33.835h286.659l10.024 9.989a49.355 49.355 0 0 0 35.062 14.487h106.314a16.937 16.937 0 0 0 16.918-16.918v-50.018a6 6 0 0 0 -5.996-6zm-448.981 36.46a4.918 4.918 0 1 1 0-9.835h249.183a37.405 37.405 0 0 1 25.385 9.835z" fill="#0635c9"/><path d="m486.977 194.734h-81.884a38.8 38.8 0 0 0 -38.753 38.754 6 6 0 0 0 6 6h81.883a38.8 38.8 0 0 0 38.754-38.754 6 6 0 0 0 -6-6zm-32.754 32.754h-75.205a26.8 26.8 0 0 1 26.075-20.754h75.2a26.8 26.8 0 0 1 -26.07 20.754z" fill="#1ae5be"/></svg>