<svg id="Layer_1" height="512" viewBox="0 0 512 512" width="512" xmlns="http://www.w3.org/2000/svg" data-name="Layer 1"><path d="m181.517 399.686a94.132 94.132 0 0 1 84.025-93.471 95.975 95.975 0 0 0 -10.025-.529 94 94 0 1 0 10 187.467 94.131 94.131 0 0 1 -84-93.467z" fill="#d4e1f4"/><path d="m374.882 244.188a23.392 23.392 0 0 0 -12.209-39.188 23.361 23.361 0 0 0 -15.642-32.29 23.42 23.42 0 0 0 -19.8-35.934c-.144 0-.288.008-.432.011.062-.7.1-1.4.1-2.105a23.419 23.419 0 0 0 -39.978-16.56l-20.621 20.621a45.781 45.781 0 0 0 -21.671-5.426h-27.04a33.749 33.749 0 0 1 -20.916-7.2l35.455-35.575a6 6 0 1 0 -8.5-8.471l-35.628 35.749-3.825-3.812 35.634-35.754a6 6 0 0 0 -8.5-8.471l-35.633 35.754-3.825-3.812 35.629-35.754a6 6 0 0 0 -8.5-8.471l-35.633 35.755-3.825-3.813 35.634-35.754a6 6 0 0 0 -8.5-8.471l-35.634 35.755-3.822-3.812 35.634-35.755a6 6 0 1 0 -8.5-8.47l-35.634 35.754-3.825-3.812 35.634-35.754a6 6 0 1 0 -8.5-8.471l-35.635 35.754-1.756-1.749a4 4 0 0 1 -.009-5.657l32.34-32.451a6 6 0 1 0 -8.5-8.47l-32.34 32.45a16.017 16.017 0 0 0 .038 22.627l68.974 68.744a46.581 46.581 0 0 0 4.734 4.112l-34.02 34.02a35.805 35.805 0 0 0 -10.555 25.482v13.017a70.058 70.058 0 0 1 -16.623 45.487l-2.244-2.244a18.463 18.463 0 0 0 -26.081 0l-26.393 26.39a18.44 18.44 0 0 0 0 26.08l79.4 79.4 8.485-8.485-79.4-79.4a6.441 6.441 0 0 1 0-9.11l26.393-26.393a6.448 6.448 0 0 1 9.11 0l67.988 67.986 8.485-8.484-57.237-57.237a81.965 81.965 0 0 0 20.117-53.993v-13.017a23.882 23.882 0 0 1 7.041-17l36.394-36.394a45.944 45.944 0 0 0 16.875 3.195h12.753l14.717 14.668-13.481 13.481q-.629.628-1.279 1.225c-9.755 8.945-24.653 11-37.075 5.107l-.525-.248a6 6 0 0 0 -5.135 10.846l.522.247c17.047 8.084 36.8 5.294 50.323-7.108q.843-.772 1.655-1.584l55.342-55.343a11.419 11.419 0 0 1 16.149 16.149l-.88.88-41.35 41.349a6 6 0 0 0 8.486 8.486l41.349-41.35a11.419 11.419 0 0 1 16.149 16.153l-10.557 10.556-30.793 30.793a6 6 0 1 0 8.486 8.485l30.793-30.793a11.418 11.418 0 0 1 16.147 16.149l-7.918 7.918-22.874 22.874a6 6 0 0 0 8.485 8.486l22.877-22.876a11.418 11.418 0 0 1 16.146 16.15l-18.1 18.1-51.912 51.912 8.485 8.485 47.686-47.686 63.907 63.692a16 16 0 1 0 22.589-22.666zm-127.411-98.744a33.79 33.79 0 0 1 9.811 2.318l-3.736 3.736zm182.829 176.562a4.006 4.006 0 0 1 -5.657.009l-63.892-63.677 5.657-5.657 63.883 63.668a4 4 0 0 1 .009 5.657z" fill="#0635c9"/><g fill="#1ae5be"><path d="m255.517 505.686a106.015 106.015 0 0 0 47.507-200.786 104.922 104.922 0 0 0 -47.507-11.217 106 106 0 0 0 0 212zm0-200a93.938 93.938 0 0 1 94 94 94 94 0 1 1 -94-94z"/><path d="m208.558 396.626c2.927 1.55 8.377 4.435 9.366 6.033.51.823.28 3.557-.011 7.017-.072.862-.15 1.786-.226 2.78-.568 7.425-1.4 32.7 11.718 46.261a9.917 9.917 0 0 0 4.011 2.387 10.034 10.034 0 0 0 13.284-11.05c-.8-8.011-.79-30.624 8.639-42.1a.609.609 0 0 1 .612 0c10.765 13.432 8.674 39.814 8.466 42.133a10.035 10.035 0 0 0 13.293 11.013 9.92 9.92 0 0 0 4-2.384c13.121-13.558 12.288-38.838 11.72-46.263-.076-.989-.153-1.909-.225-2.768-.291-3.461-.521-6.2-.011-7.019.988-1.6 6.441-4.491 9.371-6.046 12.944-6.87 15.948-26.852 10.548-40.487a28.524 28.524 0 0 0 -13.588-15.39c-6.964-3.514-15.278-3.991-24.713-1.42a44.851 44.851 0 0 0 -13.338 6.024 52.567 52.567 0 0 1 -5.875 3.283l-.958-.552c-5.711-3.3-14.343-8.283-22.126-9.315-9.143-1.211-17.045.33-23.492 4.586a30.14 30.14 0 0 0 -12 16.288c-4.733 14.812.333 31.063 11.535 36.989zm-.1-33.333c1.788-5.594 7.086-14.68 22.489-12.631 5.422.719 13.109 5.158 17.7 7.811 1.617.933 3.014 1.74 4.128 2.294 5.356 2.664 13.446 6.015 21.822 4.381a6 6 0 0 0 -2.3-11.777c-.351.068-.708.12-1.075.155a30.881 30.881 0 0 1 6.75-2.622c15.044-4.1 21.349 2.985 23.988 9.651 3.766 9.509 1.281 22.126-5.017 25.468-7.78 4.13-11.64 6.6-13.948 10.33-2.6 4.194-2.239 8.45-1.744 14.34.07.831.145 1.721.218 2.677.795 10.4-.194 23.263-4.78 31.932.259-10.418-.7-31.535-11.376-44.858a12.449 12.449 0 0 0 -19.247-.108c-10.908 13.277-11.9 34.506-11.636 44.965-4.585-8.667-5.574-21.535-4.779-31.931.073-.961.149-1.854.219-2.688.5-5.889.853-10.144-1.743-14.338-2.312-3.736-6.174-6.2-13.956-10.323-5.914-3.132-8.586-13.752-5.717-22.728z"/></g></svg>