<svg id="Layer_1" height="512" viewBox="0 0 512 512" width="512" xmlns="http://www.w3.org/2000/svg" data-name="Layer 1"><path d="m49.765 204.1a39.951 39.951 0 0 1 23.256-67.9 40.642 40.642 0 0 0 -5-.32 39.959 39.959 0 0 0 -28.255 68.22 39.7 39.7 0 0 0 28.256 11.7 40.447 40.447 0 0 0 5-.32 39.649 39.649 0 0 1 -23.257-11.38z" fill="#d4e1f4"/><path d="m215.31 34.333 11.954 17.633 4.644-3.149-16.598-24.484-34.192 23.18 4.645 6.851z" fill="#d4e1f4"/><path d="m478.068 383.739 3.3-3.3a6 6 0 0 0 0-8.485l-10.16-10.154 5.269-5.269a6 6 0 0 0 0-8.484l-69.807-69.805.281-.281a6 6 0 0 0 -8.484-8.484l-.281.281-16.478-16.478.281-.28a6 6 0 0 0 -8.484-8.486l-.281.281-16.477-16.477.28-.28a6 6 0 0 0 -8.484-8.486l-.281.281-16.477-16.477.28-.28a5.986 5.986 0 0 0 -8.188-8.728l-13.245-19.763.241-.241a5.984 5.984 0 0 0 -6.849-9.619l-13.424-20.031 3.6-3.6a6 6 0 1 0 -8.484-8.485l-1.93 1.929-13.22-19.738 1.691-1.691a6 6 0 0 0 -8.485-8.486l-.016.017-13.223-19.728.531-.532a5.985 5.985 0 0 0 -7.208-9.43l-9.094-13.57 8.846-6a6 6 0 0 0 1.6-8.333l-23.332-34.414a6 6 0 0 0 -8.334-1.6l-44.124 29.914a6 6 0 0 0 -1.6 8.333l2.317 3.417-11.8 8a6 6 0 0 0 -1.6 8.333l2.317 3.417-30.333 20.565a6 6 0 1 0 6.734 9.933l30.333-20.564 2.914 4.3a6 6 0 0 0 8.334 1.6l11.8-8 2.317 3.418a6 6 0 0 0 8.333 1.6l3.7-2.506 10.454 22.115a5.978 5.978 0 0 0 4.538 9.88c.042 0 .084-.011.127-.012l11.339 23.985-.547.547a5.974 5.974 0 0 0 5.57 10.079l11 23.273-1.411 1.411a5.986 5.986 0 0 0 6.669 9.714l10.766 22.775-2.273 2.273a5.991 5.991 0 0 0 7.673 9.148l10.668 22.567a5.962 5.962 0 0 0 7.646 8.789l16.88 16.88a5.954 5.954 0 0 0 8.082 8.082l16.88 16.88a5.954 5.954 0 0 0 8.082 8.082l16.88 16.879a5.953 5.953 0 0 0 8.082 8.082l70.011 70.005a6 6 0 0 0 8.485 0l8.863-8.864 10.152 10.156a6 6 0 0 0 8.484 0l3.3-3.3 16.116 16.116a6 6 0 0 0 8.485-8.484zm-88.368-105.497-29.209 29.209-16.477-16.477 29.209-29.209zm-24.961-24.962-29.209 29.209-16.477-16.477 29.209-29.212zm-24.962-24.962-29.209 29.209-16.477-16.477 29.209-29.209zm-24.57-25.353-28.478 28.477-10.578-22.376 25.832-25.832zm-139.94-127.985-5.232-7.716 6.835-4.634 5.232 7.717zm22.451-2.98-16.6-24.484 34.192-23.18 16.6 24.484zm27.111-3.882 10.245 15.282-12.445 12.446-9.394-19.871zm3.247 39.254 13.808-13.808 13.223 19.731-16.453 16.453zm16.025 33.9 17.816-17.816 13.223 19.731-20.461 20.461zm16.025 33.9 21.824-21.824 13.224 19.731-24.474 24.464zm174.414 206.328-65.563-65.563 29.208-29.209 65.563 65.563zm21.591-4.621 6.593-6.592 5.913 5.913-6.593 6.592z" fill="#0635c9"/><g fill="#1ae5be"><path d="m353.817 502a5.979 5.979 0 0 0 4.243-1.758l34.36-34.36a6 6 0 0 0 0-8.485l-191.22-191.221a6 6 0 0 0 -8.485 0l-12.937 12.937-71.026-71.023a51.955 51.955 0 1 0 -77.473 4.493 51.946 51.946 0 0 0 68.988 3.992l71.024 71.025-12.938 12.939a6 6 0 0 0 0 8.485l191.222 191.218a5.979 5.979 0 0 0 4.242 1.758zm-314.052-297.9a39.958 39.958 0 1 1 28.255 11.7 40 40 0 0 1 -28.254-11.7zm314.052 283.415-42.7-42.7 9.56-42.19 59.015 59.015zm-65.4-65.4 9.56-42.189 12.665 12.665-9.56 42.189zm-22.7-22.7 9.56-42.189 12.673 12.674-9.56 42.189zm-22.7-22.7 9.56-42.19 12.676 12.675-9.56 42.189zm-22.7-22.7 9.56-42.189 12.679 12.674-9.556 42.194zm-22.7-22.7 9.56-42.189 12.666 12.666-9.543 42.208zm-.679-52.428.208.208-9.546 42.205-16.522-16.522z"/><path d="m49.6 152.1a30.616 30.616 0 0 0 -2.824 2.493 30 30 0 0 0 -8.8 20.792 6 6 0 0 0 5.908 6.091h.093a6 6 0 0 0 6-5.909 17.953 17.953 0 0 1 5.285-12.488 18.534 18.534 0 0 1 1.71-1.51 6 6 0 1 0 -7.372-9.469z"/></g></svg>