<svg id="Layer_1" height="512" viewBox="0 0 512 512" width="512" xmlns="http://www.w3.org/2000/svg" data-name="Layer 1"><path d="m347.248 317.265a25.034 25.034 0 0 1 15-22.907 25 25 0 1 0 0 45.812 25.033 25.033 0 0 1 -15-22.905z" fill="#d4e1f4"/><path d="m346.38 384.629a67.2 67.2 0 0 1 -134.4 0v-117.961a16 16 0 0 0 8.949-14.34v-23.5h5a46.053 46.053 0 0 0 46-46v-93.2a21.169 21.169 0 1 0 -12 .005v93.2a34.038 34.038 0 0 1 -34 34h-42a34.038 34.038 0 0 1 -34-34v-93.2a21.17 21.17 0 1 0 -12 0v93.2a46.052 46.052 0 0 0 46 46h5v23.5a16.022 16.022 0 0 0 11.051 15.208v117.088a79.2 79.2 0 0 0 158.4 0v-37.129h-12zm-89.627-315.29a9.167 9.167 0 1 1 9.167 9.167 9.177 9.177 0 0 1 -9.167-9.167zm-122 0a9.168 9.168 0 1 1 9.168 9.167 9.177 9.177 0 0 1 -9.168-9.167zm74.177 159.489v23.5a4 4 0 1 1 -8 0v-23.5z" fill="#0635c9"/><path d="m352.247 280.265a37 37 0 1 0 37 37 37.041 37.041 0 0 0 -37-37zm0 62a25 25 0 1 1 25-25 25.028 25.028 0 0 1 -25 24.999z" fill="#1ae5be"/></svg>