<svg id="Layer_1" height="512" viewBox="0 0 512 512" width="512" xmlns="http://www.w3.org/2000/svg" data-name="Layer 1"><path d="m337.529 381.75a94.034 94.034 0 0 1 72.331-138.867 94 94 0 1 0 .03 186.932 94.13 94.13 0 0 1 -72.361-48.065z" fill="#d4e1f4"/><g fill="#0635c9"><path d="m94.3 308.029a242.261 242.261 0 0 0 207.944 24.624 6 6 0 1 0 -3.89-11.351 229.837 229.837 0 0 1 -279.509-113.653 229.772 229.772 0 0 1 410.03 0 230.833 230.833 0 0 1 -14.564 24.759 6 6 0 1 0 9.942 6.718 242.149 242.149 0 0 0 16.712-28.834 6 6 0 0 0 0-5.286 241.776 241.776 0 0 0 -434.213 0 6.006 6.006 0 0 0 0 5.286 242.356 242.356 0 0 0 87.548 97.737z"/><path d="m182.691 164a58.93 58.93 0 1 0 99.383 29.755 6 6 0 0 0 -10-3.148 20.457 20.457 0 0 1 -28.5-29.35c.4-.395.846-.807 1.342-1.224a6 6 0 0 0 -1.971-10.284 58.609 58.609 0 0 0 -60.254 14.251zm52.4 34.684a32.263 32.263 0 0 0 36.209 6.716 47.067 47.067 0 1 1 -41.128-46.314 32.524 32.524 0 0 0 4.917 39.594z"/><path d="m133.172 207.649a92.011 92.011 0 1 0 92.011-92.011 92.115 92.115 0 0 0 -92.011 92.011zm172.022 0a80.011 80.011 0 1 1 -80.011-80.011 80.1 80.1 0 0 1 80.011 80.011z"/></g><path d="m399.86 230.351a106 106 0 1 0 106 106 106.12 106.12 0 0 0 -106-106zm0 200a94 94 0 1 1 94-94 94.109 94.109 0 0 1 -94 94z" fill="#1ae5be"/><path d="m440.658 281.582c-6.529-3.294-14.308-3.745-23.122-1.343a41.721 41.721 0 0 0 -12.423 5.607 49.072 49.072 0 0 1 -5.152 2.9l-.674-.389c-5.3-3.06-13.3-7.683-20.572-8.647-12.514-1.659-27.819 2.609-33.24 19.57-4.433 13.867.339 29.092 10.862 34.663 2.472 1.308 7.614 4.031 8.459 5.4.389.629.162 3.329-.078 6.186-.068.8-.139 1.649-.209 2.567-.528 6.9-1.3 30.381 10.934 43.019a9.589 9.589 0 0 0 3.885 2.321 9.72 9.72 0 0 0 12.872-10.67c-.2-2.2-2.091-26.245 7.782-38.4 9.7 12.255 7.819 36.225 7.625 38.4a9.721 9.721 0 0 0 12.873 10.663 9.59 9.59 0 0 0 3.877-2.316c12.235-12.642 11.466-36.127 10.938-43.023-.069-.913-.141-1.762-.207-2.555-.241-2.86-.468-5.561-.079-6.189.845-1.364 5.991-4.1 8.464-5.408 12.154-6.452 14.994-25.163 9.942-37.92a26.761 26.761 0 0 0 -12.757-14.436zm-2.814 41.757c-13.868 7.361-15.793 10.4-14.717 23.2.064.765.133 1.584.2 2.465.909 11.9-.865 21.012-3.446 27.077.022-10.235-1.436-27.862-10.623-39.325a11.949 11.949 0 0 0 -18.475-.1c-9.389 11.429-10.883 29.152-10.865 39.429-2.581-6.064-4.355-15.177-3.445-27.077.068-.885.137-1.708.2-2.476 1.078-12.813-.848-15.848-14.723-23.194-5.271-2.79-7.63-12.324-5.047-20.4 1.447-4.526 5.458-11.594 16.4-11.594a29.367 29.367 0 0 1 3.836.265c4.907.651 11.945 4.715 16.149 7.144 1.5.866 2.8 1.614 3.835 2.13 5 2.487 12.556 5.616 20.422 4.081a6 6 0 0 0 -.644-11.869 31.569 31.569 0 0 1 3.793-1.274c13.538-3.689 19.2 2.651 21.563 8.621 3.393 8.569 1.208 19.913-4.413 22.897z" fill="#1ae5be"/></svg>