<svg id="Layer_1" height="512" viewBox="0 0 512 512" width="512" xmlns="http://www.w3.org/2000/svg" data-name="Layer 1"><path d="m92.613 256.2c0-98.1 77.175-178.514 174-183.726q-4.966-.267-10-.274c-101.458 0-184 82.542-184 184s82.542 184 184 184q5.034 0 10-.274c-96.825-5.217-174-85.626-174-183.726z" fill="#d4e1f4"/><path d="m256.613 110.537c-80.5 0-146 65.342-146 145.658s65.5 145.658 146 145.658 146-65.342 146-145.658-65.495-145.658-146-145.658zm0 279.316c-73.887 0-134-59.959-134-133.658s60.113-133.658 134-133.658 134 59.959 134 133.658-60.113 133.658-134 133.658z" fill="#0635c9"/><path d="m496.514 250.164h-44c-3.139-103.3-86.593-186.746-189.9-189.869v-44.2a6 6 0 1 0 -12 0v44.205c-103.3 3.123-186.759 86.568-189.9 189.869h-45.228a6 6 0 1 0 0 12h45.226c3.108 103.33 86.575 186.807 189.9 189.931v43.811a6 6 0 0 0 12 0v-43.811c103.326-3.124 186.794-86.6 189.9-189.931h44a6 6 0 0 0 0-12zm-239.901 190.036c-101.458 0-184-82.542-184-184s82.542-184 184-184 184 82.542 184 184-82.542 184-184 184z" fill="#0635c9"/><path d="m325.215 198.892c-3.851-7.7-15.906-24.771-44.681-16.929a54.762 54.762 0 0 0 -16.284 7.359 64.208 64.208 0 0 1 -8.22 4.517c-.581-.332-1.21-.695-1.871-1.077-7.04-4.065-17.679-10.21-27.117-11.461-19.328-2.567-34.872 5.611-41.592 21.866-6.788 16.421-2.776 36.409 9.133 45.5a24.284 24.284 0 0 0 3.392 2.175c6.69 3.542 11.08 6.13 12.289 8.084.861 1.39.674 4.128.206 9.694-.09 1.074-.187 2.226-.282 3.463-.7 9.129-1.734 40.194 14.246 56.706a10.928 10.928 0 0 0 4.413 2.6 11.046 11.046 0 0 0 14.638-12.184 122 122 0 0 1 .07-20.371c.885-10.195 3.523-24.274 11.06-33.449a2.161 2.161 0 0 1 3.1.009c13.895 17.338 11.154 51.1 10.907 53.818a11.118 11.118 0 0 0 14.632 12.179 10.951 10.951 0 0 0 4.428-2.608c15.972-16.507 14.936-47.571 14.238-56.7-.094-1.233-.191-2.379-.28-3.449-.468-5.569-.655-8.308.206-9.7 1.208-1.95 5.6-4.543 12.292-8.1a23.481 23.481 0 0 0 3.391-2.2c12.49-9.7 16.079-32.948 7.686-49.742zm-15.048 40.276a11.407 11.407 0 0 1 -1.651 1.074c-18.882 10.022-20.156 13.631-18.831 29.4.087 1.042.181 2.158.273 3.359 1.168 15.267-.726 34.76-9.237 45.538.615-8.65 1.788-41.4-13.64-60.649a14.066 14.066 0 0 0 -21.737-.121c-15.747 19.167-14.574 52.078-13.954 60.767-8.512-10.785-10.4-30.272-9.237-45.536.093-1.2.187-2.326.275-3.373 1.327-15.778.052-19.387-18.841-29.39a12.306 12.306 0 0 1 -1.72-1.1c-7.54-5.758-9.979-20.129-5.327-31.382 2.692-6.511 10.03-17.058 28.924-14.555 7.077.939 16.853 6.585 22.694 9.958 2 1.156 3.73 2.154 5.079 2.825 6.5 3.234 16.316 7.307 26.335 5.351a6 6 0 0 0 -2.3-11.778 18.493 18.493 0 0 1 -6.709-.027h.008a42.871 42.871 0 0 1 13.116-5.98c18.5-5.041 26.955 3.043 30.79 10.716 5.842 11.673 3.746 28.64-4.31 34.903z" fill="#1ae5be"/></svg>