<svg id="Layer_1" height="512" viewBox="0 0 512 512" width="512" xmlns="http://www.w3.org/2000/svg" data-name="Layer 1"><path d="m315.782 153.015c10.774-6.681 20.079-12.45 38.375-17.437 15.288-4.168 29.392-5.392 42.019-3.839-18.123-10.836-41.925-12.888-69.581-5.348-18.3 4.987-27.6 10.756-38.375 17.437a206.36 206.36 0 0 1 -21.249 11.946c10.805 4.6 20.44 7.362 29.236 8.368a215.413 215.413 0 0 0 19.575-11.127z" fill="#d4e1f4"/><path d="m337.71 429.593c-3.773-44.513-15.253-79.019-34.119-102.56a26.983 26.983 0 0 0 -21.2-10.06 27.774 27.774 0 0 0 -6.454.764c.03.037.062.072.093.109 18.866 23.541 30.345 58.047 34.118 102.56a347.921 347.921 0 0 1 .058 59.616c-.015.152-.037.3-.066.454a8.173 8.173 0 0 0 11.036 9.227 10.518 10.518 0 0 0 3.43-1.626 87.987 87.987 0 0 0 14.3-20.117 368.5 368.5 0 0 0 -1.196-38.367z" fill="#d4e1f4"/><path d="m198.872 480.026c-.011-.1-.045-.445-.1-.994-18.1-32.564-22.179-80.352-19.255-118.6.252-3.3.51-6.362.751-9.223 1.547-18.4 2.481-29.5-3.741-39.549-5.988-9.673-18.193-17.28-41.625-29.684-12.918-6.838-22.781-20.56-27.774-38.636a100.642 100.642 0 0 1 1.212-56c5.7-17.823 16.175-32.173 30.3-41.5 16.5-10.889 37.348-14.755 61.975-11.489.868.116 1.749.259 2.634.415-10.275-4.633-20.755-8.35-30.2-9.6-24.627-3.267-45.477.6-61.975 11.489-14.126 9.324-24.6 23.674-30.3 41.5a100.633 100.633 0 0 0 -1.213 56c4.993 18.076 14.857 31.8 27.774 38.636 23.432 12.4 35.637 20.011 41.625 29.684 6.222 10.051 5.288 21.154 3.742 39.548-.241 2.862-.5 5.926-.751 9.224-3.537 46.252 3.149 106.488 32.52 136.836a10.639 10.639 0 0 0 3.429 1.617 8.173 8.173 0 0 0 11.037-9.226c-.027-.147-.048-.297-.065-.448z" fill="#d4e1f4"/><path d="m408.186 284.068c16.6-8.813 28.7-26.8 34.067-50.638 5.064-22.5 3.233-47.369-5.023-68.219-8.022-20.258-21.524-35.64-39.047-44.481-20.266-10.227-44.917-11.494-73.265-3.766-19.842 5.408-30.25 11.862-41.268 18.694-7.551 4.682-15.359 9.524-27 14.39a10.457 10.457 0 0 0 -1.095.534c-2.688-1.462-5.981-3.364-9.632-5.473-18.308-10.572-45.975-26.55-69.448-29.663-51.061-6.777-90.084 15.913-104.394 60.683-13.715 42.908.655 91.33 32.034 107.942 21.031 11.129 32.538 18.129 37.085 25.467 4.2 6.786 3.435 15.881 2.047 32.391-.152 1.8-.31 3.689-.469 5.656l-11.966-8.8a87.123 87.123 0 0 0 -51.952-17.043 6 6 0 1 0 0 12 75.2 75.2 0 0 1 44.84 14.714l18.18 13.367c-1.245 31.417.808 98.005 36.208 134.582 1.716 1.775 4.309 3.242 7.929 4.489a20.263 20.263 0 0 0 6.6 1.106 19.522 19.522 0 0 0 19.483-23.023c-.5-5.169-9.2-102.613 32.285-153.109a15.781 15.781 0 0 1 24.211.12c40.664 50.742 32.104 147.812 31.604 152.991a19.88 19.88 0 0 0 1.339 11.371c4.032 9.3 14.9 13.928 24.741 10.543 3.619-1.246 6.212-2.714 7.927-4.487 35.465-36.644 37.461-103.405 36.2-134.752l14.952-11.743a76.033 76.033 0 0 1 46.758-16.166 6 6 0 0 0 0-12 88.084 88.084 0 0 0 -54.17 18.729l-8.464 6.647c-.145-1.785-.289-3.5-.427-5.15-1.388-16.518-2.152-25.617 2.048-32.4 4.541-7.331 16.05-14.34 37.082-25.503zm-51.086 58.908c.238 2.836.494 5.877.744 9.144 3.515 45.973-3.114 105.826-32.235 135.917a10.621 10.621 0 0 1 -3.234 1.509 7.844 7.844 0 0 1 -9.825-3.97 7.926 7.926 0 0 1 -.507-4.648c.031-.163.055-.328.072-.493a347.25 347.25 0 0 0 -.056-59.494c-3.769-44.451-15.243-78.922-34.1-102.457a27.779 27.779 0 0 0 -42.847-.234c-45.562 55.46-35.383 157.856-34.927 162.188.017.165.041.328.072.49a7.934 7.934 0 0 1 -.507 4.648 7.846 7.846 0 0 1 -9.825 3.97 11.112 11.112 0 0 1 -3.211-1.485c-29.146-30.115-35.774-89.968-32.259-135.941.251-3.283.507-6.336.747-9.185 3.242-38.539 1.837-44.426-45.467-69.469-12.745-6.747-22.483-20.307-27.42-38.181a99.737 99.737 0 0 1 1.2-55.5c5.952-18.622 26.773-61.011 91.385-52.442 21.112 2.8 47.538 18.061 65.025 28.16 5.256 3.035 9.8 5.657 13.156 7.328 33.879 16.85 53.1 15.812 64.6 13.567a6 6 0 1 0 -2.3-11.778c-12.942 2.525-27.638.2-45.619-7.322a210.585 210.585 0 0 0 20.2-11.44c10.7-6.635 19.942-12.365 38.1-17.315 46.88-12.778 82.6 2.2 98 41.088 7.39 18.663 9.021 40.957 4.473 61.166-4.518 20.078-14.718 35.632-27.986 42.674-47.278 25.098-48.684 30.984-45.449 69.505z" fill="#0635c9"/><g fill="#1ae5be"><path d="m252.949 59.588a6 6 0 0 0 6-6v-37.588a6 6 0 0 0 -12 0v37.588a6 6 0 0 0 6 6z"/><path d="m363.227 73.226a5.993 5.993 0 0 0 4.758-2.34l34.223-44.436a6 6 0 0 0 -9.507-7.322l-34.223 44.436a6 6 0 0 0 4.749 9.662z"/><path d="m148.773 73.226a6 6 0 0 0 4.749-9.662l-34.222-44.436a6 6 0 0 0 -9.507 7.322l34.223 44.436a5.99 5.99 0 0 0 4.757 2.34z"/><path d="m223.453 194.159 7.239 7.987a28.254 28.254 0 0 0 49.191-19.179l-.129-17.681a6 6 0 0 0 -6-5.956h-.045a6 6 0 0 0 -5.956 6.044l.129 17.681a16.254 16.254 0 0 1 -28.3 11.033l-7.239-7.987a21.4 21.4 0 0 0 -32.3.67 6.838 6.838 0 0 1 -4.985 2.453l-7.29.28a6.831 6.831 0 0 1 -7.091-6.659l-.331-13.561a18.831 18.831 0 0 0 -21.484-18.184 6.831 6.831 0 0 1 -7.431-8.967l6.745-19.783a6 6 0 1 0 -11.358-3.873l-6.745 19.783a18.83 18.83 0 0 0 20.486 24.719 6.831 6.831 0 0 1 7.8 6.6l.331 13.561a18.832 18.832 0 0 0 19.543 18.36l7.291-.281a18.861 18.861 0 0 0 13.742-6.761 9.4 9.4 0 0 1 14.187-.3z"/></g></svg>