<svg id="Layer_1" height="512" viewBox="0 0 512 512" width="512" xmlns="http://www.w3.org/2000/svg" data-name="Layer 1"><g fill="#d4e1f4"><path d="m342.1 140.1c10.976-6.805 20.456-12.683 39.095-17.764 15.574-4.246 29.943-5.493 42.807-3.911-18.463-11.039-42.711-13.129-70.886-5.448-18.639 5.081-28.118 10.958-39.094 17.764a210.3 210.3 0 0 1 -21.647 12.17c11.007 4.691 20.822 7.5 29.783 8.525a219.171 219.171 0 0 0 19.942-11.336z"/><path d="m364.438 421.865c-3.844-45.348-15.539-80.5-34.759-104.482a27.486 27.486 0 0 0 -21.6-10.249 28.32 28.32 0 0 0 -6.575.778c.031.038.064.073.1.111 19.22 23.982 30.914 59.135 34.758 104.483a354.482 354.482 0 0 1 .059 60.734c-.016.155-.038.309-.067.462a8.326 8.326 0 0 0 11.243 9.4 10.717 10.717 0 0 0 3.494-1.656 89.625 89.625 0 0 0 14.571-20.5 375.231 375.231 0 0 0 -1.224-39.081z"/><path d="m223 473.244c-.011-.107-.047-.453-.1-1.013-18.438-33.174-22.594-81.858-19.615-120.82.257-3.359.52-6.481.765-9.4 1.576-18.739 2.527-30.05-3.811-40.289-6.1-9.855-18.535-17.6-42.406-30.242-13.16-6.966-23.208-20.945-28.295-39.36a102.527 102.527 0 0 1 1.235-57.047c5.8-18.157 16.479-32.776 30.87-42.275 16.808-11.093 38.049-15.032 63.137-11.7.885.118 1.782.264 2.684.422-10.468-4.719-21.145-8.506-30.763-9.781-25.088-3.328-46.329.61-63.137 11.7-14.391 9.5-25.065 24.118-30.869 42.274a102.512 102.512 0 0 0 -1.235 57.048c5.086 18.414 15.135 32.393 28.294 39.36 23.872 12.637 36.306 20.386 42.406 30.241 6.339 10.24 5.387 21.551 3.811 40.29-.245 2.915-.508 6.037-.765 9.4-3.6 47.12 3.209 108.485 33.13 139.4a10.882 10.882 0 0 0 3.486 1.648 8.327 8.327 0 0 0 11.245-9.4c-.031-.15-.054-.3-.067-.456z"/></g><path d="m106.789 38.447a6 6 0 0 0 -10.537 5.742l18.434 33.828a6 6 0 0 0 10.537-5.743z" fill="#0635c9"/><path d="m184.664 20.2a6 6 0 0 0 -7.35 4.24l-12 44.741a6 6 0 1 0 11.586 3.119l12-44.74a6 6 0 0 0 -4.236-7.36z" fill="#0635c9"/><path d="m91.569 112.521-43.16-12.441a6 6 0 1 0 -3.324 11.531l43.16 12.441a6 6 0 1 0 3.324-11.531z" fill="#0635c9"/><path d="m423.723 105.264c-20.546-10.366-45.539-11.65-74.285-3.816-20.122 5.486-30.677 12.031-41.853 18.961-7.666 4.753-15.593 9.669-27.4 14.61a10.5 10.5 0 0 0 -1.147.561c-2.736-1.487-6.1-3.428-9.819-5.578-18.572-10.726-46.639-26.934-70.441-30.091-51.768-6.864-91.334 16.133-105.84 61.521-13.9 43.5.658 92.591 32.463 109.429 21.351 11.3 33.038 18.41 37.66 25.875 4.277 6.912 3.5 16.152 2.09 32.925-.246 2.92-.509 6.048-.766 9.413-1.828 23.909-4.629 105.192 36.1 147.276 1.731 1.789 4.352 3.271 8.012 4.532a20.472 20.472 0 0 0 6.667 1.118 19.723 19.723 0 0 0 19.676-23.262c-.5-5.227-9.3-104.222 32.782-155.44a16.1 16.1 0 0 1 24.706.123c41.3 51.529 32.593 150.091 32.1 155.319a20.076 20.076 0 0 0 1.353 11.491c4.074 9.394 15.053 14.074 25 10.65 3.66-1.26 6.281-2.742 8.01-4.53 40.731-42.085 37.93-123.368 36.1-147.277-.256-3.348-.518-6.463-.762-9.37-1.41-16.781-2.186-26.025 2.092-32.935 4.614-7.456 16.3-14.575 37.66-25.911 16.825-8.93 29.087-27.159 34.525-51.327 5.135-22.82 3.279-48.033-5.093-69.175-8.141-20.537-21.829-36.129-39.59-45.092zm-319.36 59.821c6.047-18.919 27.2-61.986 92.832-53.277 1.218.161 2.455.369 3.705.608l1.154 23.816a20.358 20.358 0 0 1 -20.334 21.343 32.312 32.312 0 0 0 -31.866 26.736l-1.105 6.265a20.323 20.323 0 0 1 -22.708 16.647l-25.979-3.423a101.735 101.735 0 0 1 4.301-38.715zm352.327 51.815c-4.589 20.4-14.957 36.205-28.444 43.363-47.938 25.445-49.363 31.411-46.083 70.449.242 2.88.5 5.964.755 9.281 3.569 46.669-3.163 107.435-32.739 138a10.821 10.821 0 0 1 -3.313 1.549 8.046 8.046 0 0 1 -10.081-4.077 8.134 8.134 0 0 1 -.519-4.769c.03-.164.054-.328.072-.493a352.323 352.323 0 0 0 -.058-60.355c-3.822-45.09-15.46-80.056-34.589-103.923a28.1 28.1 0 0 0 -43.34-.236c-46.213 56.251-35.888 160.124-35.425 164.518.016.164.041.327.071.489a7.836 7.836 0 0 1 -10.6 8.847 11.16 11.16 0 0 1 -3.293-1.53c-29.6-30.581-36.329-91.347-32.759-138.017.255-3.332.515-6.429.759-9.321 3.284-39.059 1.86-45.024-46.092-70.411-12.955-6.859-22.854-20.638-27.87-38.8-.483-1.747-.9-3.525-1.279-5.317l22.611 2.979a32.674 32.674 0 0 0 4.292.283 32.29 32.29 0 0 0 31.8-26.741l1.106-6.265a20.329 20.329 0 0 1 20.048-16.821 32.359 32.359 0 0 0 32.32-33.923l-.966-19.952c17.711 5.972 36.573 16.86 50.139 24.694 5.332 3.079 9.937 5.739 13.346 7.433 34.356 17.087 53.838 16.038 65.5 13.76a6 6 0 1 0 -2.3-11.777c-13.195 2.572-28.18.185-46.525-7.512a212.988 212.988 0 0 0 20.67-11.691c10.864-6.737 20.247-12.554 38.686-17.581 47.62-12.981 83.9 2.235 99.552 41.748 7.511 18.948 9.168 41.591 4.548 62.119z" fill="#1ae5be"/></svg>