<svg id="Layer_1" height="512" viewBox="0 0 512 512" width="512" xmlns="http://www.w3.org/2000/svg" data-name="Layer 1"><path d="m244.524 364.675a114.152 114.152 0 0 1 104-113.557c-3.3-.287-6.629-.443-10-.443a114 114 0 0 0 0 228c3.371 0 6.7-.156 10-.444a114.151 114.151 0 0 1 -104-113.556z" fill="#d4e1f4"/><g fill="#0635c9"><path d="m50.876 487.433a6 6 0 0 0 6.348-.723l31.781-25.421 31.782 25.421a6 6 0 0 0 7.5 0l31.777-25.42 31.774 25.42a6 6 0 0 0 7.5 0l31.775-25.42 31.775 25.42a6 6 0 0 0 7.5 0l14.752-11.8a6 6 0 0 0 -7.5-9.37l-11 8.805-31.774-25.42a6 6 0 0 0 -7.5 0l-31.775 25.42-31.774-25.42a6 6 0 0 0 -7.5 0l-31.777 25.42-31.787-25.425a6 6 0 0 0 -7.5 0l-25.777 20.622v-436.217h272.187v211.35a6 6 0 0 0 12 0v-217.35a6 6 0 0 0 -6-6h-284.187a6 6 0 0 0 -6 6v454.7a6 6 0 0 0 3.4 5.408z"/><path d="m90.354 249.849h2.546a6 6 0 0 0 0-12h-2.546a6 6 0 1 0 0 12z"/><path d="m137.438 237.849h-19.193a6 6 0 0 0 0 12h19.193a6 6 0 0 0 0-12z"/><path d="m245.165 243.849a6 6 0 0 0 -6-6h-75.965a6 6 0 0 0 0 12h75.965a6 6 0 0 0 6-6z"/><path d="m90.354 195.718h2.546a6 6 0 1 0 0-12h-2.546a6 6 0 0 0 0 12z"/><path d="m137.438 183.718h-19.193a6 6 0 1 0 0 12h19.193a6 6 0 0 0 0-12z"/><path d="m306.785 189.718a6 6 0 0 0 -6-6h-137.585a6 6 0 0 0 0 12h137.585a6 6 0 0 0 6-6z"/><path d="m90.354 141.587h2.546a6 6 0 0 0 0-12h-2.546a6 6 0 1 0 0 12z"/><path d="m137.438 129.587h-19.193a6 6 0 0 0 0 12h19.193a6 6 0 0 0 0-12z"/><path d="m300.785 129.587h-137.585a6 6 0 0 0 0 12h137.585a6 6 0 0 0 0-12z"/><path d="m90.354 303.979h2.546a6 6 0 0 0 0-12h-2.546a6 6 0 1 0 0 12z"/><path d="m143.438 297.979a6 6 0 0 0 -6-6h-19.193a6 6 0 0 0 0 12h19.193a6 6 0 0 0 6-6z"/><path d="m163.2 303.979h41.929a6 6 0 0 0 0-12h-41.929a6 6 0 0 0 0 12z"/><path d="m106.5 362.972a10.152 10.152 0 0 1 10.141 10.14 6 6 0 0 0 12 0 22.176 22.176 0 0 0 -16.141-21.307v-3.7a6 6 0 0 0 -12 0v3.7a22.138 22.138 0 0 0 6 43.448 10.138 10.138 0 0 1 .111 20.275c-.037 0-.073-.006-.111-.006s-.074 0-.111.006a10.15 10.15 0 0 1 -10.03-10.135 6 6 0 0 0 -12 0 22.175 22.175 0 0 0 16.141 21.307v4.436a6 6 0 1 0 12 0v-4.436a22.137 22.137 0 0 0 -6-43.447 10.141 10.141 0 1 1 0-20.281z"/><path d="m152.418 407.012a6 6 0 0 0 6 6h48.182a6 6 0 0 0 0-12h-48.182a6 6 0 0 0 -6 6z"/></g><path d="m278.715 359.182c6.936 3.672 11.49 6.36 12.761 8.413.92 1.488.727 4.336.241 10.125-.094 1.108-.194 2.3-.291 3.574-.719 9.4-1.787 41.4 14.646 58.382a11.1 11.1 0 0 0 4.487 2.64 11.4 11.4 0 0 0 3.717.623 11.166 11.166 0 0 0 11.137-12.993 126.009 126.009 0 0 1 .071-21.07c.916-10.551 3.649-25.126 11.461-34.635a2.333 2.333 0 0 1 3.5.01c14.4 17.97 11.554 52.926 11.3 55.7a11.208 11.208 0 0 0 14.855 12.365 11.089 11.089 0 0 0 4.488-2.642c16.433-16.98 15.364-48.978 14.644-58.38-.1-1.272-.2-2.455-.289-3.56-.486-5.79-.679-8.64.241-10.128 1.27-2.05 5.826-4.745 12.765-8.427 14.37-7.628 20.359-31.033 12.813-50.086-7.513-18.972-25.219-26.694-47.365-20.658a56.337 56.337 0 0 0 -16.757 7.573 66.321 66.321 0 0 1 -8.6 4.716c-.624-.356-1.3-.748-2.018-1.161-7.255-4.189-18.217-10.52-27.922-11.807-21.455-2.851-37.871 6.781-43.934 25.749-5.76 18.035.541 38.525 14.049 45.677zm-2.615-42.023c2.233-6.988 8.4-17.908 25.13-17.908a44.113 44.113 0 0 1 5.795.4c7.344.974 17.456 6.814 23.5 10.3 2.063 1.191 3.844 2.22 5.233 2.91 6.687 3.326 16.768 7.519 27.062 5.507a6 6 0 1 0 -2.3-11.778 19.681 19.681 0 0 1 -7.492-.116l.437-.271a44.472 44.472 0 0 1 13.591-6.195c21.754-5.93 30.046 5.912 33.051 13.5 5.248 13.252 1.709 30.3-7.282 35.067-19.388 10.29-20.7 13.991-19.338 30.16.091 1.076.188 2.23.282 3.47 1.226 16.022-.813 36.549-9.967 47.625.61-7.847 2.284-42.777-13.992-63.087a14.327 14.327 0 0 0 -22.138-.124c-16.613 20.222-14.931 55.334-14.316 63.212-9.152-11.073-11.192-31.6-9.967-47.626.095-1.245.192-2.4.284-3.483 1.36-16.18.053-19.881-19.345-30.15-8.469-4.48-12.237-18.872-8.228-31.413z" fill="#1ae5be"/><path d="m338.524 490.675a126 126 0 1 0 -126-126 126.143 126.143 0 0 0 126 126zm0-240a114 114 0 1 1 -114 114 114.129 114.129 0 0 1 114-114z" fill="#1ae5be"/></svg>