<svg id="Layer_1" height="512" viewBox="0 0 512 512" width="512" xmlns="http://www.w3.org/2000/svg" data-name="Layer 1"><path d="m180.106 392.209a94.147 94.147 0 0 1 79.047-92.809 95.21 95.21 0 0 0 -15.047-1.194 94 94 0 1 0 15 186.8 94.148 94.148 0 0 1 -79-92.797z" fill="#d4e1f4"/><path d="m141.929 376.168 8.485-8.484-79.4-79.4a6.44 6.44 0 0 1 0-9.109l26.393-26.394a6.445 6.445 0 0 1 9.111 0l67.982 67.985 8.486-8.485-57.238-57.237a81.964 81.964 0 0 0 20.118-53.993v-13.017a23.88 23.88 0 0 1 7.041-17l39.524-39.525 31.1 31.1-3.373 3.373c-.419.419-.847.828-1.277 1.224-9.755 8.943-24.653 11-37.079 5.1l-.525-.248a6 6 0 0 0 -5.127 10.85l.518.244c17.048 8.085 36.8 5.293 50.327-7.109q.84-.774 1.651-1.582l55.354-55.33a11.419 11.419 0 0 1 16.149 16.148l-42.229 42.23a6 6 0 1 0 8.485 8.484l41.349-41.349a11.419 11.419 0 0 1 16.146 16.149l-41.349 41.35a6 6 0 1 0 8.486 8.484l30.792-30.792a11.419 11.419 0 0 1 16.148 16.149l-7.918 7.918-22.874 22.874a6 6 0 1 0 8.485 8.485l22.874-22.874a11.419 11.419 0 0 1 16.149 16.148l-70.013 70.013 8.486 8.484 37.394-37.395 17.362 17.363a25.046 25.046 0 0 0 30.306 3.9l39.112 39.113a6 6 0 0 0 4.206 1.758l21.232.128.095 20.923a6 6 0 0 0 6 5.973h.027a6 6 0 0 0 5.974-6.027l-.122-26.86a6 6 0 0 0 -5.963-5.972l-24.7-.151-37.259-37.259a25.037 25.037 0 0 0 -3.546-30.879l-17.591-17.592a23.427 23.427 0 0 0 -14.416-36.55 23.444 23.444 0 0 0 -15.633-32.305 23.421 23.421 0 0 0 -19.818-35.9c-.145 0-.288.008-.433.01.062-.695.1-1.4.1-2.1a23.418 23.418 0 0 0 -39.978-16.559l-16.615 16.611-41.793-41.787a25.036 25.036 0 0 0 -31.738-2.99l-40.029-40.029a6 6 0 0 0 -8.486 0 12.933 12.933 0 0 1 -18.049-.018 12.437 12.437 0 0 1 -3.641-9.1 13.437 13.437 0 0 1 3.976-9.306 6 6 0 1 0 -8.485-8.484 25.374 25.374 0 0 0 -7.489 17.583 24.339 24.339 0 0 0 7.154 17.79 24.815 24.815 0 0 0 30.257 3.741l36.77 36.769a25.042 25.042 0 0 0 4.405 29.4l2.2 2.2-39.525 39.525a35.8 35.8 0 0 0 -10.555 25.482v13.017a70.051 70.051 0 0 1 -16.624 45.487l-2.248-2.242a18.442 18.442 0 0 0 -26.081 0l-26.39 26.388a18.44 18.44 0 0 0 0 26.08zm232.863-97.653a13.016 13.016 0 0 1 -18.384 0l-17.363-17.363 18.385-18.386 17.362 17.363a13.014 13.014 0 0 1 0 18.386zm-166.17-184.556 41.788 41.788-18.385 18.386-41.788-41.788a13 13 0 0 1 18.385-18.386z" fill="#0635c9"/><g fill="#1ae5be"><path d="m244.106 498.209a106.015 106.015 0 0 0 47.508-200.782 104.9 104.9 0 0 0 -47.508-11.218 106 106 0 0 0 0 212zm0-200a93.936 93.936 0 0 1 94 94 94 94 0 1 1 -94-94z"/><path d="m197.148 389.149c2.928 1.55 8.377 4.435 9.366 6.034.51.823.28 3.556-.011 7.016-.072.863-.15 1.786-.226 2.78-.568 7.425-1.4 32.705 11.717 46.259a9.909 9.909 0 0 0 4.012 2.39 10.035 10.035 0 0 0 13.288-11.028c-.211-2.341-2.314-28.8 8.635-42.126a.6.6 0 0 1 .612 0c10.765 13.432 8.674 39.815 8.466 42.131a10.036 10.036 0 0 0 13.293 11.021 9.9 9.9 0 0 0 4.006-2.384c13.121-13.558 12.288-38.838 11.72-46.263-.076-.989-.153-1.909-.225-2.767-.291-3.462-.521-6.2-.011-7.021.988-1.595 6.441-4.49 9.371-6.045 12.944-6.87 15.948-26.851 10.548-40.486a28.52 28.52 0 0 0 -13.588-15.39c-6.964-3.513-15.278-3.992-24.713-1.42a44.777 44.777 0 0 0 -13.336 6.022 52.406 52.406 0 0 1 -5.879 3.283l-.957-.551c-5.711-3.3-14.342-8.283-22.125-9.316-9.142-1.21-17.046.33-23.491 4.586a30.149 30.149 0 0 0 -12 16.288c-4.74 14.81.326 31.057 11.528 36.987zm-.1-33.334c1.788-5.592 7.082-14.669 22.488-12.63 5.422.718 13.109 5.158 17.7 7.81 1.618.935 3.015 1.741 4.129 2.3 5.357 2.664 13.449 6.021 21.824 4.381a6 6 0 0 0 -2.3-11.777q-.523.1-1.073.155a30.874 30.874 0 0 1 6.749-2.621c15.047-4.1 21.349 2.984 23.988 9.65 3.766 9.511 1.281 22.126-5.017 25.469-7.78 4.13-11.64 6.6-13.948 10.328-2.6 4.194-2.239 8.451-1.744 14.342.07.831.145 1.721.218 2.677.8 10.394-.194 23.261-4.78 31.931.26-10.418-.7-31.535-11.376-44.857a12.448 12.448 0 0 0 -19.247-.109c-10.908 13.278-11.9 34.507-11.636 44.965-4.585-8.667-5.574-21.535-4.779-31.929.073-.962.149-1.856.219-2.69.495-5.889.853-10.143-1.743-14.339-2.312-3.734-6.174-6.2-13.955-10.322-5.918-3.137-8.59-13.758-5.721-22.734z"/></g></svg>