<svg id="Layer_1" height="512" viewBox="0 0 512 512" width="512" xmlns="http://www.w3.org/2000/svg" data-name="Layer 1"><path d="m152.967 256.222a123.2 123.2 0 0 1 113.033-122.622c-3.3-.266-6.633-.408-10-.408a123.033 123.033 0 0 0 0 246.066q5.051 0 10-.408a123.2 123.2 0 0 1 -113.033-122.628z" fill="#d4e1f4"/><path d="m469.588 223.587a32.458 32.458 0 0 0 -31.888 26.635h-46.807a134.522 134.522 0 0 0 -35.761-85.584l33.2-33.2a32.315 32.315 0 1 0 -8.36-8.61l-33.362 33.361a134.5 134.5 0 0 0 -85.622-34.9v-46.849a32.43 32.43 0 1 0 -12-.388v47.318a134.522 134.522 0 0 0 -84.5 35.658l-33.172-33.171a32.41 32.41 0 0 0 -3.421-41.8 32.4 32.4 0 1 0 -5.258 50.1l33.4 33.4a134.506 134.506 0 0 0 -34.96 85.691h-46.6a32.429 32.429 0 1 0 -.471 12h47.147a134.525 134.525 0 0 0 35.507 84.342l-32.985 32.986a32.315 32.315 0 1 0 8.36 8.61l33.127-33.128a134.511 134.511 0 0 0 84.838 35.057v46.626a32.412 32.412 0 1 0 12 0v-46.626a134.518 134.518 0 0 0 85.422-35.61l33.007 33.007a32.409 32.409 0 0 0 3.681 41.436 32.412 32.412 0 1 0 4.88-49.846l-33.106-33.102a134.511 134.511 0 0 0 35.009-84.776h46.888a32.411 32.411 0 1 0 31.807-38.635zm-76.988-133.049a20.411 20.411 0 1 1 -5.979 14.433 20.343 20.343 0 0 1 5.979-14.433zm-157.012-48.125a20.412 20.412 0 1 1 20.412 20.412 20.436 20.436 0 0 1 -20.412-20.412zm-145.051 76.992a20.413 20.413 0 1 1 28.867 0 20.282 20.282 0 0 1 -28.867 0zm-48.125 157.008a20.413 20.413 0 1 1 20.412-20.413 20.436 20.436 0 0 1 -20.412 20.413zm76.988 145.049a20.421 20.421 0 1 1 -.641-29.446 5.733 5.733 0 0 0 1.813 1.871 20.39 20.39 0 0 1 -1.172 27.575zm157.008 48.125a20.412 20.412 0 1 1 -21.724-20.345 5.889 5.889 0 0 0 2.624 0 20.421 20.421 0 0 1 19.104 20.345zm145.055-76.987a20.412 20.412 0 1 1 -28.863 28.862 20.412 20.412 0 0 1 28.863-28.862zm-165.463-13.345a123.033 123.033 0 1 1 123.033-123.033 123.172 123.172 0 0 1 -123.033 123.033zm213.588-102.842a20.413 20.413 0 1 1 20.412-20.413 20.436 20.436 0 0 1 -20.412 20.413z" fill="#0635c9"/><path d="m285.228 169.7a63.71 63.71 0 0 0 -18.926 8.557 75.164 75.164 0 0 1 -10.327 5.619c-.818-.463-1.725-.987-2.69-1.544-8.231-4.753-20.67-11.937-31.59-13.385-22.283-2.951-40.2 6.441-47.93 25.139-7.831 18.944-3.248 41.967 10.434 52.415a27.807 27.807 0 0 0 3.85 2.468c8.261 4.373 13.349 7.4 14.91 9.921 1.2 1.936.989 5.107.4 12.094-.106 1.266-.22 2.621-.332 4.08-.815 10.655-2.033 46.909 16.5 66.06a11.87 11.87 0 0 0 4.792 2.8 11.954 11.954 0 0 0 15.846-13.216 145 145 0 0 1 .078-24.265c1.058-12.18 4.223-29.016 13.292-40.055a3.519 3.519 0 0 1 5.332.022c16.712 20.852 13.377 61.261 13.1 64.3a11.9 11.9 0 0 0 11.876 13.875 12.185 12.185 0 0 0 3.971-.665 11.86 11.86 0 0 0 4.793-2.805c18.532-19.149 17.313-55.4 16.5-66.059-.111-1.452-.225-2.8-.331-4.061-.587-6.992-.8-10.164.4-12.1 1.56-2.519 6.65-5.552 14.914-9.939a26.492 26.492 0 0 0 3.845-2.494c14.359-11.164 18.452-37.968 8.76-57.359-4.426-8.844-18.295-28.445-51.467-19.403zm35.337 67.3a14.6 14.6 0 0 1 -2.1 1.366c-21.838 11.592-23.183 15.369-21.648 33.64.1 1.233.215 2.552.324 3.971 1.466 19.177-1.15 43.976-12.823 56.449-.1.04-.231.093-.408.154-.032.01-.053 0-.089.014.027-.149.049-.3.064-.45.2-1.94 4.732-47.8-15.651-73.235a15.516 15.516 0 0 0 -23.97-.134c-20.8 25.314-16.218 71.422-16.012 73.373.014.131.031.3.053.446a.286.286 0 0 1 -.078-.014c-.178-.061-.311-.114-.408-.155-11.675-12.473-14.289-37.271-12.823-56.448.11-1.426.221-2.751.325-3.988 1.537-18.282.193-22.06-21.653-33.625a15.885 15.885 0 0 1 -2.184-1.4c-9.252-7.065-12.286-24.6-6.626-38.292 3.294-7.968 12.258-20.882 35.262-17.828 8.56 1.135 19.758 7.6 27.167 11.88 2.347 1.356 4.374 2.526 5.937 3.3 7.532 3.746 18.875 8.466 30.383 6.22a6 6 0 1 0 -2.3-11.778 24.831 24.831 0 0 1 -10.976-.6c.8-.482 1.557-.953 2.3-1.412a52.116 52.116 0 0 1 15.758-7.178c17.577-4.792 30.923-.106 37.574 13.2 7.086 14.185 4.466 34.85-5.398 42.524z" fill="#1ae5be"/></svg>