<svg id="Layer_1" height="512" viewBox="0 0 512 512" width="512" xmlns="http://www.w3.org/2000/svg" data-name="Layer 1"><path d="m391.475 453.709-96.8-144.154 47.325-31.781-6.216-9.256-61.111 41.037 96.8 144.154a36.831 36.831 0 0 0 40.584 14.9 36.522 36.522 0 0 1 -20.582-14.9z" fill="#d4e1f4"/><path d="m153.217 49.786-84.7-19.631a6 6 0 0 0 -2.709 11.69l82.219 19.055 40.64 67.779a6 6 0 0 0 10.291-6.172l-41.95-69.962a6 6 0 0 0 -3.791-2.759z" fill="#0635c9"/><path d="m392.619 481.08a49.307 49.307 0 0 0 9.512.931 48.818 48.818 0 0 0 40.417-76.029l-100.142-149.13-13.069-19.462-39.2-58.378a6 6 0 0 0 -8.327-1.637l-6.482 4.353-50.54-75.262a6 6 0 0 0 -8.326-1.637l-48.146 32.331a6 6 0 0 0 -1.636 8.326l50.539 75.263-6.482 4.353a6 6 0 0 0 -1.636 8.326l26.129 38.912 13.07 19.46 113.212 168.6a48.492 48.492 0 0 0 31.107 20.68zm45.526-40.793a36.805 36.805 0 0 1 -66.67 13.422l-96.8-144.154 61.111-41.037 96.8 144.154a36.565 36.565 0 0 1 5.559 27.615zm-176.539-150.187 61.112-41.037 6.377 9.5-61.111 41.037zm-13.067-19.46 61.111-41.04 6.377 9.5-61.111 41.037zm-13.068-19.461 61.111-41.037 6.378 9.5-61.111 41.037zm48.043-60.5 6.378 9.5-61.111 41.036-6.378-9.5 6.478-4.35h.007l48.131-32.32.009-.006.008-.006zm-103.532-46.9 38.184-25.641 47.195 70.281-38.185 25.641z" fill="#1ae5be"/></svg>