<svg id="Layer_1" height="512" viewBox="0 0 512 512" width="512" xmlns="http://www.w3.org/2000/svg" data-name="Layer 1"><path d="m86.785 208.463c0-74.427 59.243-135.825 134.859-143.069q-7.4-.708-15-.718c-82.632 0-149.859 64.5-149.859 143.787s67.227 143.787 149.859 143.787q7.593 0 15-.718c-75.616-7.244-134.859-68.642-134.859-143.069z" fill="#d4e1f4"/><path d="m206.644 364.25c89.25 0 161.859-69.886 161.859-155.787s-72.609-155.787-161.859-155.787-161.859 69.886-161.859 155.787 72.615 155.787 161.859 155.787zm0-299.574c82.632 0 149.859 64.5 149.859 143.787s-67.227 143.787-149.859 143.787-149.859-64.503-149.859-143.787 67.227-143.787 149.859-143.787z" fill="#0635c9"/><path d="m206.644 394.925a197.2 197.2 0 0 0 132.643-50.665l30.905 29.7-18.773 18.04a6 6 0 0 0 0 8.652l81.672 78.487a39.708 39.708 0 0 0 54.572-.026c.507-.478 1-.971 1.477-1.475a36.638 36.638 0 0 0 -1.44-51.712l-81.635-78.455a6 6 0 0 0 -8.314 0l-18.9 18.164-30.917-29.712c32.53-33.367 52.487-78.212 52.487-127.464 0-102.812-86.928-186.459-193.777-186.459s-193.777 83.647-193.777 186.463 86.933 186.462 193.777 186.462zm195.264-34.8 77.515 74.5a24.637 24.637 0 0 1 .988 34.789c-.32.34-.649.668-1.02 1.02a27.69 27.69 0 0 1 -38.02.032l-77.136-74.136zm-195.264-326.125c100.232 0 181.777 78.263 181.777 174.462s-81.545 174.463-181.777 174.463-181.777-78.264-181.777-174.462 81.545-174.463 181.777-174.463z" fill="#0635c9"/><path d="m255.816 225.061c-.1-1.273-.206-2.457-.3-3.561-.505-5.736-.706-8.557.228-10 1.343-2.07 6.141-4.78 13.446-8.482 14.731-7.463 21.072-29.9 13.847-48.99-2.808-7.421-14.687-30.926-49.664-21.824a59.964 59.964 0 0 0 -17.441 7.527 70.188 70.188 0 0 1 -9.293 4.84c-.714-.387-1.5-.821-2.332-1.28-7.57-4.172-19.008-10.478-29.076-11.753-12.044-1.524-22.373.465-30.7 5.914a37.529 37.529 0 0 0 -15.291 20.818c-5.524 18.055 1.06 37.711 14.989 44.751 7.3 3.69 12.1 6.394 13.442 8.467.936 1.443.734 4.262.229 10-.1 1.11-.2 2.3-.3 3.577-.755 9.425-1.879 41.5 15.358 58.5a11.294 11.294 0 0 0 4.571 2.57 12.163 12.163 0 0 0 3.8.612 11.4 11.4 0 0 0 10.46-6.605 11.054 11.054 0 0 0 .842-6.441 120.185 120.185 0 0 1 .075-21.009c.958-10.524 3.815-25.062 11.986-34.555a3.007 3.007 0 0 1 4.287.012c15.04 17.915 12.086 52.741 11.817 55.56a11.039 11.039 0 0 0 .842 6.43 11.719 11.719 0 0 0 14.263 5.995 11.458 11.458 0 0 0 4.568-2.569c17.231-17.005 16.102-49.079 15.347-58.504zm-10.141-20.089c-3.225 4.972-2.759 10.26-2.115 17.579.094 1.076.2 2.229.295 3.468 1.308 16.331-.95 37.358-11.065 48.219.578-6.507 2.921-42.9-14.631-63.807a14.988 14.988 0 0 0 -22.573-.125c-17.911 20.811-15.553 57.389-14.968 63.931-10.116-10.867-12.373-31.89-11.065-48.218.1-1.245.2-2.4.3-3.482.644-7.317 1.11-12.6-2.115-17.577-2.889-4.457-7.919-7.5-18.1-12.648-8.575-4.334-12.663-18.315-8.925-30.53 5.986-19.564 25.08-19.343 33.01-18.338 7.791.987 18.02 6.626 24.789 10.357 2.156 1.189 4.018 2.215 5.462 2.9 6.941 3.3 17.394 7.445 28.019 5.467a6 6 0 1 0 -2.2-11.8 22.13 22.13 0 0 1 -8.078-.122l.325-.192a48.559 48.559 0 0 1 14.351-6.241c23.727-6.171 32.374 6.409 35.419 14.458 4.979 13.158 1.144 29.382-8.047 34.039-10.176 5.162-15.203 8.213-18.088 12.662z" fill="#1ae5be"/></svg>