<svg id="Layer_1" enable-background="new 0 0 512 512" height="512" viewBox="0 0 512 512" width="512" xmlns="http://www.w3.org/2000/svg"><g fill="#0635c9"><path d="m188 306.117h-116.24c-3.314 0-6 2.686-6 6s2.686 6 6 6h116.24c3.314 0 6-2.686 6-6s-2.686-6-6-6z"/><path d="m188 346.2h-65.134c-3.314 0-6 2.686-6 6s2.686 6 6 6h65.134c3.314 0 6-2.686 6-6s-2.686-6-6-6z"/><path d="m71.76 358.2h29.3c3.314 0 6-2.686 6-6s-2.686-6-6-6h-29.3c-3.314 0-6 2.686-6 6s2.686 6 6 6z"/><path d="m188 386.284h-23.17c-3.314 0-6 2.686-6 6s2.686 6 6 6h23.17c3.314 0 6-2.686 6-6s-2.686-6-6-6z"/><path d="m142.848 386.284h-71.088c-3.314 0-6 2.686-6 6s2.686 6 6 6h71.088c3.314 0 6-2.686 6-6s-2.686-6-6-6z"/><path d="m330.31 311v144.92c-.02 18.81-15.27 34.06-34.08 34.08h-219.32c-16.2-.02-30.15-11.43-33.4-27.31h179.42c3.31 0 6-2.68 6-6v-184.96c-4.23-3.86-8.24-7.95-12-12.26v191.22h-174.1v-207.65l161.57-.07c-2.54-3.88-4.91-7.88-7.09-11.99l-60.6.03-93.87.04v-.05h-.01v-9.51c.76-7.47 3.35-22.9 14.13-38.69 10.33-15.14 23.05-23.08 29.64-26.61h93.27c.11-4.04.39-8.05.82-12h-88.09v-25.33l93.05.01c1.16-4.08 2.5-8.08 4.01-12.01h-6.81v-48.02l18.06-.04v24.82c3.6-6.05 7.61-11.83 12-17.29v-7.55l6.5-.02c3.89-4.24 8.01-8.25 12.36-12.02l-165.18.32c-8.83.03-15.98 7.19-15.99 16.02v39.76c.01 8.85 7.18 16.02 16.02 16.02h13.98v27.38c-24.35 14.24-45.77 32.89-49.77 75.25v234.43c.03 25.43 20.65 46.05 46.08 46.08h219.32c25.43-.03 46.05-20.64 46.08-46.08v-145.4c-3.96.32-7.96.48-12 .48zm-159.46-252.14v48h-18.06l-.01-47.97zm-48.13.09 18.06-.03v47.94h-18.06zm-30.06.06 18.06-.04v47.89h-18.06zm-26.04 47.85c-2.22 0-4.02-1.8-4.02-4.02v-39.76c0-2.22 1.8-4.01 4.01-4.02l14.05-.03v47.83z"/></g><path d="m222.171 160.5c0-71.3 54.16-130.183 123.5-137.685-4.982-.541-9.989-.813-15-.815-76.369 0-138.5 62.13-138.5 138.5s62.129 138.5 138.5 138.5c5.011-.002 10.018-.274 15-.815-69.34-7.503-123.5-66.385-123.5-137.685z" fill="#d4e1f4"/><path d="m330.671 10c-82.986 0-150.5 67.514-150.5 150.5s67.514 150.5 150.5 150.5 150.5-67.514 150.5-150.5-67.515-150.5-150.5-150.5zm0 289c-76.369 0-138.5-62.13-138.5-138.5s62.129-138.5 138.5-138.5 138.5 62.13 138.5 138.5-62.132 138.5-138.5 138.5z" fill="#1ae5be"/><path d="m363.89 68.045c-7.472 1.898-14.595 4.973-21.1 9.11-3.898 2.415-7.981 4.519-12.21 6.291-1.031-.554-2.2-1.2-3.458-1.892-9.213-5.081-23.142-12.754-35.261-14.294-14.48-1.832-26.87.543-36.833 7.059-8.83 5.865-15.293 14.672-18.241 24.854-6.6 21.582 1.188 45.039 17.737 53.4 9.424 4.763 15.239 8.072 17.069 10.9 1.4 2.159 1.164 5.595.5 13.162-.12 1.362-.249 2.821-.374 4.39-.917 11.442-2.292 50.366 18.483 70.857 1.453 1.324 3.193 2.293 5.084 2.832 1.331.438 2.723.661 4.124.66 4.994.058 9.568-2.786 11.725-7.291 1.022-2.24 1.344-4.736.924-7.162-.32-3.258-4.177-46.964 15.155-69.426 1.93-2.029 5.139-2.109 7.168-.18.071.067.139.137.206.208 18.935 22.553 15.158 66.151 14.846 69.4-.419 2.425-.097 4.92.924 7.159 2.867 5.879 9.652 8.717 15.851 6.63 1.89-.539 3.629-1.508 5.082-2.832 20.775-20.491 19.4-59.415 18.483-70.857-.125-1.562-.252-3.014-.372-4.37-.666-7.57-.9-11.008.5-13.168 1.828-2.818 7.644-6.135 17.072-10.912 17.517-8.876 25.01-35.681 16.363-58.533-3.355-8.855-17.544-36.898-59.447-25.995zm37.657 73.824c-24.319 12.322-25.816 16.348-24.1 35.836.116 1.327.241 2.748.365 4.276 1.66 20.738-1.334 47.592-14.666 61.073-.133.059-.354.149-.685.258-.398.151-.847.079-1.178-.19-.029-.057-.037-.124-.021-.186.034-.171.06-.344.079-.517.228-2.084 5.326-51.35-17.565-78.615-6.168-7.119-16.94-7.89-24.059-1.722-.568.492-1.103 1.021-1.601 1.584-23.353 27.134-18.2 76.662-17.968 78.757.019.171.045.341.079.509.015.063.008.129-.02.187-.328.273-.779.347-1.177.193-.233-.074-.462-.16-.686-.258-13.332-13.482-16.326-40.335-14.666-61.073.123-1.535.249-2.963.366-4.295 1.718-19.5.222-23.525-24.107-35.82-11.3-5.711-16.539-23.288-11.675-39.182 2.556-8.35 11.781-27.357 42.092-23.518 9.843 1.246 22.562 8.257 30.979 12.9 2.632 1.451 4.9 2.7 6.644 3.53 8.363 3.969 20.948 8.976 33.617 6.615 3.258-.608 5.408-3.742 4.8-7s-3.742-5.408-7-4.8c-4.645.738-9.396.418-13.9-.936 1.2-.683 2.329-1.35 3.414-1.993 5.078-3 9.463-5.6 18-7.824 22.072-5.742 38.546 1.048 45.2 18.629 6.356 16.789 1.321 37.562-10.561 43.582z" fill="#1ae5be"/></svg>