<svg id="Layer_1" height="512" viewBox="0 0 512 512" width="512" xmlns="http://www.w3.org/2000/svg" data-name="Layer 1"><path d="m293.864 218a6 6 0 0 0 4.272 0l7.993-3.045-7.968-12.2-22.161 8.438z" fill="#d4e1f4"/><path d="m298.136 447.016a6 6 0 0 0 -4.272 0l-17.864 6.805 22.161 8.443 7.968-12.2z" fill="#d4e1f4"/><path d="m230.422 426.4a6 6 0 0 0 -3.457-2.511l-41.342-11.189 2.133-42.777a6 6 0 0 0 -1.32-4.063l-26.87-33.354 26.87-33.354a6 6 0 0 0 1.32-4.063l-2.133-42.777 41.342-11.19a6 6 0 0 0 3.457-2.511l15.449-23.659-32.032-12.2-23.417 35.862a6 6 0 0 1 -3.457 2.511l-41.342 11.19 2.133 42.777a6 6 0 0 1 -1.32 4.063l-26.87 33.354 26.87 33.354a6 6 0 0 1 1.32 4.063l-2.133 42.774 41.342 11.19a6 6 0 0 1 3.457 2.511l23.417 35.862 32.032-12.2z" fill="#d4e1f4"/><g fill="#0635c9"><path d="m252.926 60.729a6 6 0 0 0 6-6v-12.32a6 6 0 1 0 -12 0v12.32a6 6 0 0 0 6 6z"/><path d="m252.926 137.844a6 6 0 0 0 6-6v-55.916a6 6 0 0 0 -12 0v55.916a6 6 0 0 0 6 6z"/><path d="m301.389 133.8a6 6 0 0 0 6-6v-65.391a6 6 0 1 0 -12 0v65.391a6 6 0 0 0 6 6z"/><path d="m301.389 167.844a6 6 0 0 0 6-6v-12.718a6 6 0 1 0 -12 0v12.718a6 6 0 0 0 6 6z"/><path d="m204.463 113.126a6 6 0 0 0 6-6v-44.717a6 6 0 0 0 -12 0v44.717a6 6 0 0 0 6 6z"/><path d="m204.463 167.844a6 6 0 0 0 6-6v-33.718a6 6 0 0 0 -12 0v33.718a6 6 0 0 0 6 6z"/><path d="m156 122.187a6 6 0 0 0 6-6v-33.778a6 6 0 1 0 -12 0v33.778a6 6 0 0 0 6 6z"/><path d="m156 189.194a6 6 0 0 0 6-6v-45.182a6 6 0 0 0 -12 0v45.182a6 6 0 0 0 6 6z"/><path d="m156 217.844a6 6 0 0 0 6-6v-9.573a6 6 0 1 0 -12 0v9.573a6 6 0 0 0 6 6z"/><path d="m349.852 111.411a6 6 0 0 0 6-6v-23a6 6 0 1 0 -12 0v23a6 6 0 0 0 6 6z"/><path d="m349.852 217.844a6 6 0 0 0 6-6v-84.786a6 6 0 1 0 -12 0v84.786a6 6 0 0 0 6 6z"/><path d="m135.657 371.609-2.257 45.322a6 6 0 0 0 4.426 6.09l43.8 11.856 24.811 38a6 6 0 0 0 7.16 2.326l42.403-16.16 42.4 16.157a6 6 0 0 0 7.16-2.326l24.811-38 43.8-11.856a6 6 0 0 0 4.426-6.09l-2.261-45.322 28.468-35.338a6 6 0 0 0 0-7.528l-28.461-35.34 2.261-45.322a6 6 0 0 0 -4.426-6.09l-43.8-11.856-24.811-37.994a6 6 0 0 0 -7.16-2.327l-42.407 16.16-42.4-16.155a6 6 0 0 0 -7.16 2.327l-24.811 37.994-43.8 11.856a6 6 0 0 0 -4.426 6.09l2.261 45.322-28.468 35.338a6 6 0 0 0 0 7.528zm10.779-72.456a6 6 0 0 0 1.32-4.063l-2.133-42.777 41.342-11.19a6 6 0 0 0 3.457-2.511l23.417-35.862 40.025 15.25a6 6 0 0 0 4.272 0l40.025-15.248 23.417 35.862a6 6 0 0 0 3.457 2.511l41.342 11.19-2.133 42.777a6 6 0 0 0 1.32 4.063l26.87 33.354-26.87 33.354a6 6 0 0 0 -1.32 4.063l2.133 42.777-41.342 11.19a6 6 0 0 0 -3.457 2.511l-23.417 35.862-40.025-15.248a6 6 0 0 0 -4.272 0l-40.025 15.248-23.417-35.866a6 6 0 0 0 -3.457-2.511l-41.342-11.189 2.133-42.777a6 6 0 0 0 -1.32-4.063l-26.87-33.354z"/></g><path d="m204.335 328.556c4.559 2.413 9.515 5.136 10.609 6.9.645 1.043.472 3.514.081 8.155-.08.953-.166 1.974-.25 3.072-.623 8.149-1.542 35.891 12.793 50.7a10.341 10.341 0 0 0 4.182 2.478 10.464 10.464 0 0 0 13.863-11.515c-.229-2.521-2.607-32.126 9.7-47.1a1.2 1.2 0 0 1 1.671 0c12.094 15.09 9.73 44.6 9.5 47.1a10.531 10.531 0 0 0 13.861 11.515 10.322 10.322 0 0 0 4.185-2.48c14.334-14.81 13.415-42.552 12.792-50.7-.084-1.093-.169-2.109-.249-3.058-.39-4.644-.564-7.116.082-8.158 1.093-1.765 6.051-4.5 10.613-6.918 12.679-6.73 18-27.292 11.378-44s-22.176-23.522-41.621-18.219a49.033 49.033 0 0 0 -14.589 6.59 57.305 57.305 0 0 1 -6.874 3.809l-1.347-.776c-6.276-3.624-15.761-9.1-24.248-10.227-9.961-1.322-18.558.352-25.56 4.974a32.726 32.726 0 0 0 -13.027 17.685c-5.146 16.106.32 33.751 12.455 40.173zm-1.024-36.516c2.04-6.381 8.077-16.741 25.579-14.418 6.126.813 14.7 5.765 19.825 8.724 1.781 1.029 3.319 1.917 4.533 2.521 5.845 2.906 14.666 6.566 23.743 4.793a6 6 0 0 0 -2.3-11.778 14.37 14.37 0 0 1 -3.757.208 34.8 34.8 0 0 1 9.748-4.182c7.729-2.107 21.553-3.471 27.307 11.061 4.274 10.793 1.378 25.15-5.847 28.984-8.5 4.514-12.715 7.2-15.19 11.2-2.763 4.462-2.374 9.083-1.837 15.48.078.92.161 1.906.242 2.967.956 12.506-.415 28.233-6.656 37.89.477-10.179.276-35.98-12.358-51.745a13.138 13.138 0 0 0 -20.307-.114c-12.9 15.7-13.121 41.639-12.642 51.858-6.24-9.656-7.611-25.383-6.655-37.889.082-1.066.165-2.056.243-2.981.538-6.394.927-11.014-1.836-15.476-2.48-4.007-6.692-6.692-15.2-11.195-6.795-3.596-9.896-15.704-6.635-25.908z" fill="#1ae5be"/></svg>