<svg id="Layer_1" height="512" viewBox="0 0 512 512" width="512" xmlns="http://www.w3.org/2000/svg" data-name="Layer 1"><g fill="#0635c9"><path d="m364.784 179.179v-47.4a108.763 108.763 0 1 0 -217.526 0v47.393a25.2 25.2 0 0 0 -17.13 18.243 31.867 31.867 0 0 0 21.6 38.032l4.318 14.854a101.763 101.763 0 0 0 199.91 0l4.318-14.854a31.866 31.866 0 0 0 21.6-38.031 25.2 25.2 0 0 0 -17.09-18.237zm-205.526-23.623h9.485l-.723 17.577a7.812 7.812 0 0 1 -8.762 7.375zm0-12v-8.275h193.526v8.275zm193.526 17.13a145.08 145.08 0 0 1 -26.079-5.13h26.079zm-57.294-5.13a149.056 149.056 0 0 0 57.294 17.193v5.335c-14.875-.747-55.183-4.435-94.431-22.528zm-39.469-120.546a96.891 96.891 0 0 1 96.386 88.271h-192.772a96.891 96.891 0 0 1 96.386-88.271zm88.2 212.779a89.762 89.762 0 0 1 -176.432 0 5.773 5.773 0 0 0 -.136-.567l-.46-1.582 62.3 11.544a145.074 145.074 0 0 0 53.077 0l62.251-11.541-.459 1.581a5.773 5.773 0 0 0 -.146.565zm10.184-23.26a6 6 0 0 0 -4.887 4.938l-.951 3.274-68.19 12.642a133.12 133.12 0 0 1 -48.7 0l-68.231-12.644-.951-3.274a6 6 0 0 0 -4.887-4.938 19.86 19.86 0 0 1 -15.817-24.265 13.31 13.31 0 0 1 9.639-9.8 19.77 19.77 0 0 0 28.586-16.814l.745-18.1h52.028c56.911 34.6 123.22 34.752 126.029 34.718a5.908 5.908 0 0 0 .733-.053 13.416 13.416 0 0 1 10.674 10.044 19.859 19.859 0 0 1 -15.825 24.272z"/><path d="m286 423a11 11 0 1 0 -11-11 11.012 11.012 0 0 0 11 11zm0-12a1 1 0 1 1 -1 1 1 1 0 0 1 1-1z"/><path d="m286 463a11 11 0 1 0 -11-11 11.012 11.012 0 0 0 11 11zm0-12a1 1 0 1 1 -1 1 1 1 0 0 1 1-1z"/></g><path d="m419.271 418.5q-.266-1.134-.572-2.253c-5.255-19.135-20.011-34.326-39.472-40.635l-71.52-23.189v-32.8l-12 4v29.583a91.019 91.019 0 0 1 -79.414 0v-28.583l-12-6v33.8l-71.52 23.189c-19.461 6.309-34.217 21.5-39.472 40.636q-.307 1.119-.571 2.25a56.129 56.129 0 0 0 -1.387 12.9v51.6a6 6 0 0 0 6 6h317.314a6 6 0 0 0 6-6v-51.6a56.156 56.156 0 0 0 -1.386-12.898zm-315.928 58.49v-45.6a44.388 44.388 0 0 1 1.073-10.171q.212-.908.457-1.8c4.181-15.226 15.995-27.338 31.6-32.4l73.173-23.719a102.308 102.308 0 0 0 40.354 10.842v102.848zm305.314 0h-146.657v-102.848a102.308 102.308 0 0 0 40.354-10.84l73.172 23.723c15.606 5.06 27.42 17.172 31.6 32.4q.245.894.457 1.8a44.357 44.357 0 0 1 1.073 10.169z" fill="#1ae5be"/></svg>