<svg id="Layer_1" height="512" viewBox="0 0 512 512" width="512" xmlns="http://www.w3.org/2000/svg" data-name="Layer 1"><path d="m313.056 423.315c-4.009-47.3-16.206-83.958-36.251-108.97a28.668 28.668 0 0 0 -22.526-10.689 29.576 29.576 0 0 0 -6.857.811c.032.04.066.077.1.117 20.046 25.011 32.243 61.674 36.252 108.969a369.779 369.779 0 0 1 .061 63.343c-.017.161-.04.322-.07.481a8.683 8.683 0 0 0 11.726 9.805 11.251 11.251 0 0 0 3.644-1.727 93.477 93.477 0 0 0 15.2-21.376 391.653 391.653 0 0 0 -1.279-40.764z" fill="#d4e1f4"/><path d="m165.541 476.9c-.012-.111-.049-.473-.1-1.056-19.23-34.6-23.564-85.374-20.458-126.009.268-3.5.542-6.759.8-9.8 1.644-19.544 2.636-31.341-3.975-42.02-6.362-10.278-19.33-18.36-44.227-31.54-13.724-7.266-24.2-21.845-29.509-41.051a106.92 106.92 0 0 1 1.288-59.5c6.053-18.936 17.186-34.183 32.195-44.09 17.53-11.57 39.683-15.678 65.848-12.207.924.123 1.859.275 2.8.44-10.918-4.922-22.053-8.871-32.084-10.2-26.166-3.471-48.319.637-65.848 12.206-15.009 9.908-26.142 25.154-32.2 44.091a106.92 106.92 0 0 0 -1.289 59.5c5.305 19.205 15.785 33.785 29.51 41.05 24.9 13.18 37.865 21.262 44.227 31.54 6.611 10.68 5.618 22.476 3.975 42.02-.256 3.04-.53 6.3-.8 9.8-3.757 49.144 3.346 113.144 34.553 145.388a11.309 11.309 0 0 0 3.635 1.719 8.684 8.684 0 0 0 11.727-9.8c-.028-.162-.051-.321-.068-.481z" fill="#d4e1f4"/><path d="m339.7 280.338c-11.013 12.158-9.97 24.827-8.076 47.826.221 2.691.457 5.552.69 8.6 5.622 73.567-13.814 121.936-33.872 142.656a11.084 11.084 0 0 1 -3.491 1.643 8.287 8.287 0 0 1 -11.2-9.356c.03-.164.055-.329.072-.494a363.7 363.7 0 0 0 -.06-62.286c-3.944-46.521-15.946-82.591-35.674-107.206a28.819 28.819 0 0 0 -44.452-.243c-20.118 24.488-32.374 60.563-36.427 107.222a359.836 359.836 0 0 0 -.109 62.517q.027.246.072.489a8.287 8.287 0 0 1 -11.2 9.356 11.281 11.281 0 0 1 -3.475-1.628c-20.069-20.735-39.508-69.1-33.884-142.669.264-3.441.533-6.641.784-9.628 1.619-19.254 2.6-30.875-3.941-41.437-6.32-10.21-18.543-17.839-43.551-31.078-13.425-7.108-23.68-21.379-28.875-40.186a104.817 104.817 0 0 1 1.264-58.323c6.258-19.582 28.146-64.156 96.071-55.149 22.18 2.942 49.9 18.951 68.243 29.544 3.5 2.024 6.531 3.771 9.22 5.258l5.808-10.5c-2.592-1.434-5.574-3.156-9.027-5.149-19.164-11.069-48.126-27.793-72.666-31.049-53.362-7.068-94.134 16.623-109.084 63.391-14.331 44.835.664 95.422 33.428 112.768 22.078 11.689 34.165 19.04 38.961 26.788 4.452 7.192 3.647 16.755 2.187 34.116-.253 3.015-.525 6.245-.79 9.72-2.144 28.037-.6 56.981 4.348 81.5 6.169 30.568 17.231 54.264 32.877 70.431 1.768 1.827 4.449 3.342 8.193 4.629 10.173 3.5 21.4-1.281 25.568-10.89a20.548 20.548 0 0 0 1.382-11.766c-.514-5.328-9.671-107.629 33.894-160.658a16.823 16.823 0 0 1 25.817.13c42.71 53.292 33.692 155.2 33.182 160.532a20.547 20.547 0 0 0 1.383 11.762 20.34 20.34 0 0 0 18.738 12.035 20.971 20.971 0 0 0 6.828-1.144c3.747-1.289 6.428-2.8 8.195-4.63 15.647-16.167 26.708-39.864 32.877-70.431 4.947-24.518 6.492-53.462 4.348-81.5-.235-3.074-.472-5.958-.7-8.673-1.907-23.156-2.167-30.859 5.01-38.783z" fill="#0635c9"/><g fill="#1ae5be"><path d="m348.528 18.446c-74.99 0-136 61.01-136 136s61.01 136 136 136 136-61.01 136-136-61.009-136-136-136zm0 260a124 124 0 1 1 124-124 124.14 124.14 0 0 1 -124 124z"/><path d="m348.528 95.718a26.029 26.029 0 0 1 26 26 6 6 0 1 0 12 0 38.056 38.056 0 0 0 -32-37.521v-12.062a6 6 0 1 0 -12 0v12.065a38 38 0 0 0 6 75.521 26 26 0 0 1 .309 51.992c-.1 0-.2-.015-.309-.015s-.205.01-.309.015a26.025 26.025 0 0 1 -25.691-25.992 6 6 0 1 0 -12 0 38.058 38.058 0 0 0 32 37.522v13.516a6 6 0 0 0 12 0v-13.519a38 38 0 0 0 -6-75.522 26 26 0 0 1 0-52z"/></g></svg>