<svg id="Layer_1" height="512" viewBox="0 0 512 512" width="512" xmlns="http://www.w3.org/2000/svg" data-name="Layer 1"><path d="m248.07 477.6c-.159-1.509-2.7-27.139 3.821-51.808.019-3.417.158-6.761.4-9.962.12-1.57.243-3.03.357-4.393 1.663-19.769.2-23.857-23.5-36.408-11.267-5.965-16.346-24.891-11.092-41.329 4.617-14.446 14.475-20.313 23.77-22.443a30.81 30.81 0 0 0 -3.219-.625c-9.568-1.271-32.678-1.562-40.551 23.068-5.254 16.438-.175 35.364 11.092 41.329 23.706 12.551 25.166 16.639 23.5 36.408-.114 1.363-.237 2.823-.357 4.393-1.626 21.268 1.3 48.8 14.351 62.64.123.055.32.137.607.236a.734.734 0 0 0 .849-.2.676.676 0 0 0 .041-.414c-.028-.161-.052-.325-.069-.492z" fill="#d4e1f4"/><path d="m310.986 397.479a16.492 16.492 0 0 0 -22.778-2.708 16.09 16.09 0 0 1 2.778 2.708c22.269 27.786 17.31 78 17.088 80.12-.017.165-.041.33-.072.494a.675.675 0 0 0 .04.412.735.735 0 0 0 .85.2c.287-.1.484-.181.607-.236 11.134-11.81 14.9-33.593 14.752-52.944-2.659-10.085-6.82-20.005-13.265-28.046z" fill="#d4e1f4"/><path d="m478.134 165.838-106.456-40.5 39.711-7.3a44.575 44.575 0 0 0 36.579-50.738 6 6 0 0 0 -7.205-4.931l-146.825 32a43.511 43.511 0 0 0 -19.138-8.262l-95.731-17.686a60.113 60.113 0 0 0 -29.262 1.89l-1.692.545h-20.705l6.262-31.323a6 6 0 0 0 -4.708-7.059l-55.6-11.115a6 6 0 0 0 -7.06 4.708l-36.188 181.026a6 6 0 0 0 4.708 7.059l55.6 11.116a6 6 0 0 0 7.06-4.708l5.512-27.572 14.26 1.75a70.707 70.707 0 0 0 51.664 31.626l-8.905 91.419a6 6 0 0 0 5.971 6.582c.147 0 .295 0 .442-.016a58.774 58.774 0 0 0 54.044-52l4.73-41.97c1.443-12.8 3.408-25.711 5.845-38.377a38.851 38.851 0 0 1 71.464 10.712l12.671 54.7a70.929 70.929 0 0 0 50.941 52.64 6 6 0 0 0 7.445-6.89l-17.2-92.96 31.189 36.272a51.128 51.128 0 0 0 62.748 12.009 6 6 0 0 0 1.9-9.064l-49.972-62.448 20.557 8.689a44.051 44.051 0 0 0 18.244 3.952 44.591 44.591 0 0 0 40.4-25.63 6 6 0 0 0 -3.3-8.144zm-68.763-59.633-.1.018-84.033 15.449-19.946-17.5 131.184-28.589a32.572 32.572 0 0 1 -27.105 30.622zm-322.481 106.119-43.83-8.762 33.84-169.262 43.831 8.761zm239.979 42.376-12.671-54.7a50.852 50.852 0 0 0 -94.12-12.985 6 6 0 0 0 -.63 1.741c-2.582 13.283-4.659 26.833-6.174 40.274l-4.73 41.97a46.776 46.776 0 0 1 -35.844 40.293l8.76-89.936a6 6 0 0 0 -5.858-6.581 58.9 58.9 0 0 1 -49.643-28.733 6 6 0 0 0 -4.414-2.868l-16.193-1.987 19.658-98.332h24.048a5.993 5.993 0 0 0 1.841-.289l2.588-.835a48.051 48.051 0 0 1 23.4-1.51l95.78 17.7.111.02a31.533 31.533 0 0 1 15.666 7.417l33.608 29.491a37.576 37.576 0 0 1 12.116 21.323l25.7 138.944a58.937 58.937 0 0 1 -32.999-40.417zm110.979-4.022a39.145 39.145 0 0 1 -41.191-12.032l-38.865-45.2-5.738-6.576-4.237-22.906 31.194 13.185zm-10.154-65.975c-.051-.023-.1-.046-.155-.067l-82.555-34.893a49.741 49.741 0 0 0 -9.172-17.817l13.115-2.411 118.288 45a32.563 32.563 0 0 1 -39.521 10.191z" fill="#0635c9"/><path d="m92.906 51.853a16.377 16.377 0 1 0 16.378 16.376 16.394 16.394 0 0 0 -16.378-16.376zm0 20.754a4.377 4.377 0 1 1 4.378-4.378 4.382 4.382 0 0 1 -4.378 4.378z" fill="#0635c9"/><path d="m247.523 490.756a12.5 12.5 0 0 0 12.464-14.59c-.3-3.266-4.062-48.21 14.836-71.213a4.472 4.472 0 0 1 6.8.029c18.562 23.162 14.835 67.936 14.535 71.185a12.549 12.549 0 0 0 16.642 13.888 12.477 12.477 0 0 0 5.035-2.936c20.21-20.882 18.873-60.543 17.981-72.2-.122-1.6-.247-3.079-.363-4.463-.658-7.828-.889-11.385.529-13.675 1.8-2.9 7.232-6.155 16.635-11.146 17.416-9.244 24.611-37.764 15.4-61.032-9.126-23.048-30.7-32.412-57.7-25.052a69.557 69.557 0 0 0 -20.66 9.344 83.954 83.954 0 0 1 -11.712 6.34c-.968-.547-2.056-1.174-3.221-1.847-9.014-5.2-22.635-13.072-34.531-14.65-26.164-3.469-46.183 8.236-53.559 31.312-7.03 21.994.555 46.93 16.908 55.588 9.4 4.975 14.833 8.223 16.632 11.128 1.417 2.291 1.186 5.845.528 13.669-.117 1.39-.242 2.88-.365 4.484a143.1 143.1 0 0 0 2.05 38.275c2.954 14.641 8.314 26.055 15.928 33.922a12.48 12.48 0 0 0 5.038 2.939 12.834 12.834 0 0 0 4.17.701zm-15.229-74.923c.12-1.57.243-3.03.357-4.393 1.663-19.769.2-23.857-23.5-36.408-11.267-5.965-16.346-24.891-11.092-41.329 7.873-24.63 30.983-24.339 40.551-23.068 9.535 1.264 21.915 8.414 30.108 13.144 2.572 1.486 4.793 2.768 6.5 3.615 8.207 4.082 20.56 9.224 33.04 6.79a6 6 0 1 0 -2.3-11.778 29.043 29.043 0 0 1 -13.706-1.041c1.322-.781 2.549-1.542 3.727-2.271 4.937-3.062 9.2-5.7 17.492-7.965 28.514-7.772 39.425 7.874 43.391 17.892 6.859 17.32 2.064 39.682-9.866 46.014-23.7 12.578-25.156 16.666-23.5 36.426.114 1.356.236 2.81.356 4.372 1.626 21.267-1.3 48.8-14.351 62.64-.123.055-.32.137-.607.236a.735.735 0 0 1 -.85-.2.675.675 0 0 1 -.04-.412c.031-.164.055-.329.072-.494.222-2.124 5.181-52.334-17.088-80.12a16.467 16.467 0 0 0 -25.435-.143c-22.719 27.655-17.7 78.131-17.481 80.267.017.164.041.328.072.49a.676.676 0 0 1 -.041.414.734.734 0 0 1 -.849.2c-.287-.1-.484-.181-.607-.236-13.047-13.837-15.979-41.375-14.353-62.642z" fill="#1ae5be"/></svg>