<svg id="Layer_1" height="512" viewBox="0 0 512 512" width="512" xmlns="http://www.w3.org/2000/svg" data-name="Layer 1"><path d="m273.955 339.108a117.87 117.87 0 0 1 108-117.6c-3.291-.277-6.619-.427-9.98-.427a118.023 118.023 0 1 0 0 236.045c3.368 0 6.7-.15 10-.427a118.178 118.178 0 0 1 -108.02-117.591z" fill="#d4e1f4"/><path d="m214.067 42.964a5.959 5.959 0 0 0 -1.6-.045c-1.408-.03-2.818-.049-4.233-.049s-2.8.024-4.189.053a5.912 5.912 0 0 0 -1.631.039 197.819 197.819 0 0 0 -142.488 66.763c-.1.078-.205.154-.3.24a5.987 5.987 0 0 0 -1.226 1.475 197.874 197.874 0 0 0 0 259.329 5.969 5.969 0 0 0 1.218 1.475c.081.07.171.119.254.184a197.825 197.825 0 0 0 142.493 66.818 5.456 5.456 0 0 0 1.767.041c1.364.028 2.729.052 4.1.052 1.39 0 2.777-.019 4.162-.047a5.982 5.982 0 0 0 .7.048 5.908 5.908 0 0 0 1.014-.1 197.039 197.039 0 0 0 66.236-13.428 6 6 0 0 0 -4.367-11.178 184.593 184.593 0 0 1 -36.158 10.031 173.691 173.691 0 0 0 26.948-23.316 6 6 0 0 0 -8.735-8.229 160.111 160.111 0 0 1 -43.8 32.949v-117.818a183.292 183.292 0 0 1 36.549 4.656 6 6 0 0 0 2.7-11.692 196.071 196.071 0 0 0 -39.25-4.955v-49.155h81.72a6 6 0 0 0 0-12h-81.72v-49.153a195.694 195.694 0 0 0 86.249-22.387 253.811 253.811 0 0 1 11.157 64.312 6 6 0 0 0 5.988 5.723c.094 0 .188 0 .283-.007a6 6 0 0 0 5.715-6.271 264.859 264.859 0 0 0 -12.487-69.8 195.812 195.812 0 0 0 41.62-33.93 185.059 185.059 0 0 1 40.386 95.188 6 6 0 0 0 11.916-1.424c-11.646-97.54-93.233-171.55-190.991-174.392zm-11.832 130.955a185.833 185.833 0 0 1 -82.306-22.1c16.175-42.8 44.519-76.36 82.306-95.673zm-25.611-116.353c-30.007 20.968-52.938 51.321-67.221 88.156a185.883 185.883 0 0 1 -37.674-31.16 186.1 186.1 0 0 1 104.895-56.996zm-112.807 300.986a185.325 185.325 0 0 1 -41.71-111.447h70.483c.546 27.885 4.9 54.069 12.687 77.846a197.8 197.8 0 0 0 -41.46 33.601zm-41.71-123.447a185.327 185.327 0 0 1 41.71-111.448 197.87 197.87 0 0 0 41.462 33.6c-7.787 23.777-12.141 49.959-12.689 77.845zm49.622 132.541a185.9 185.9 0 0 1 37.671-31.158c14.279 36.83 37.205 67.181 67.205 88.152a186.093 186.093 0 0 1 -104.876-56.994zm130.506 58.426c-37.788-19.317-66.134-52.88-82.308-95.683a185.906 185.906 0 0 1 82.308-22.1zm0-129.791a197.809 197.809 0 0 0 -86.28 22.622 255.775 255.775 0 0 1 -11.363-71.8h97.643zm-97.642-61.176a255.755 255.755 0 0 1 11.364-71.8 197.726 197.726 0 0 0 86.278 22.62v49.176zm109.642-61.154v-117.781c28.6 14.594 51.7 37 68.663 66.707a202.37 202.37 0 0 1 13.634 29.184 183.754 183.754 0 0 1 -82.297 21.89zm92.8-27.983a213.367 213.367 0 0 0 -13.713-29.042 182.566 182.566 0 0 0 -53.573-59.381 186.33 186.33 0 0 1 105.1 56.947 183.85 183.85 0 0 1 -37.817 31.476z" fill="#0635c9"/><g fill="#1ae5be"><path d="m371.978 209.085a130.023 130.023 0 1 0 130.022 130.023 130.146 130.146 0 0 0 -130.022-130.023zm0 248.045a118.023 118.023 0 1 1 118.022-118.022 118.155 118.155 0 0 1 -118.022 118.022z"/><path d="m397.354 262.867a56.347 56.347 0 0 0 -16.754 7.573 66.33 66.33 0 0 1 -8.6 4.717c-.623-.356-1.3-.747-2.015-1.16-7.254-4.19-18.217-10.521-27.923-11.809-19.858-2.632-35.829 5.762-42.73 22.454-6.975 16.875-2.861 37.408 9.368 46.746a25.1 25.1 0 0 0 3.472 2.227c6.935 3.672 11.489 6.36 12.76 8.413.921 1.487.728 4.336.241 10.124-.094 1.109-.193 2.3-.291 3.575-.719 9.4-1.787 41.4 14.642 58.375a11.056 11.056 0 0 0 4.492 2.647 11.209 11.209 0 0 0 14.853-12.371 125.932 125.932 0 0 1 .072-21.069c.916-10.552 3.648-25.126 11.461-34.636a2.331 2.331 0 0 1 3.5.011c14.4 17.968 11.555 52.918 11.3 55.7a11.166 11.166 0 0 0 11.138 12.987 11.427 11.427 0 0 0 3.715-.623 11.076 11.076 0 0 0 4.49-2.643c16.433-16.98 15.364-48.978 14.645-58.381-.1-1.271-.2-2.453-.289-3.558-.487-5.791-.679-8.641.241-10.128 1.269-2.051 5.825-4.746 12.767-8.43a24.079 24.079 0 0 0 3.469-2.251c12.822-9.97 16.5-33.857 7.876-51.116-3.954-7.907-16.337-25.428-45.9-17.374zm30.658 59.019a12.054 12.054 0 0 1 -1.732 1.126c-19.387 10.29-20.7 13.991-19.337 30.161.091 1.076.188 2.229.283 3.468 1.224 16.022-.815 36.547-9.969 47.626.61-7.851 2.283-42.779-13.992-63.088a14.326 14.326 0 0 0 -22.138-.123c-16.612 20.22-14.931 55.328-14.315 63.21-9.154-11.073-11.193-31.6-9.968-47.624.1-1.245.192-2.4.284-3.484 1.36-16.179.053-19.88-19.344-30.149a13.164 13.164 0 0 1 -1.805-1.159c-7.847-5.992-10.393-20.932-5.56-32.623 2.8-6.773 10.435-17.741 30.061-15.143 7.345.974 17.458 6.815 23.5 10.3 2.063 1.192 3.844 2.22 5.232 2.91 6.686 3.326 16.764 7.518 27.063 5.506a6 6 0 1 0 -2.3-11.777 19.706 19.706 0 0 1 -7.493-.116l.438-.272a44.459 44.459 0 0 1 13.589-6.194c19.221-5.242 28.018 3.178 32.009 11.162 6.065 12.136 3.875 29.767-4.506 36.283z"/></g></svg>