<svg id="Layer_1" height="512" viewBox="0 0 512 512" width="512" xmlns="http://www.w3.org/2000/svg" data-name="Layer 1"><g fill="#d4e1f4"><path d="m304.192 219.446c8.417-5.219 15.687-9.726 29.98-13.623 11.944-3.256 22.963-4.213 32.828-3-14.159-8.466-32.754-10.069-54.36-4.178-14.294 3.9-21.563 8.4-29.981 13.622a160.931 160.931 0 0 1 -16.6 9.333c8.441 3.6 15.968 5.752 22.84 6.538a168.467 168.467 0 0 0 15.293-8.692z"/><path d="m321.323 435.523c-2.947-34.776-11.916-61.734-26.655-80.125a21.08 21.08 0 0 0 -16.563-7.86 21.7 21.7 0 0 0 -5.042.6c.023.029.049.056.073.085 14.739 18.391 23.707 45.349 26.655 80.125a271.922 271.922 0 0 1 .045 46.575c-.012.119-.029.237-.052.354a6.386 6.386 0 0 0 8.622 7.209 8.244 8.244 0 0 0 2.68-1.27 68.7 68.7 0 0 0 11.174-15.716 287.806 287.806 0 0 0 -.937-29.977z"/><path d="m212.857 474.923c-.009-.081-.036-.347-.076-.776-14.14-25.441-17.327-62.775-15.043-92.654.2-2.576.4-4.97.587-7.2 1.209-14.371 1.938-23.045-2.923-30.9-4.678-7.558-14.213-13.5-32.519-23.191-10.092-5.343-17.8-16.063-21.7-30.184a78.617 78.617 0 0 1 .948-43.748c4.45-13.924 12.636-25.135 23.672-32.42 12.89-8.507 29.179-11.527 48.418-8.975.679.09 1.367.2 2.059.323-8.028-3.619-16.215-6.523-23.591-7.5-19.24-2.552-35.529.468-48.418 8.976-11.036 7.284-19.222 18.5-23.673 32.419a78.617 78.617 0 0 0 -.947 43.748c3.9 14.122 11.606 24.842 21.7 30.184 18.306 9.691 27.842 15.634 32.52 23.191 4.861 7.853 4.131 16.527 2.923 30.9-.189 2.236-.39 4.63-.587 7.206-2.763 36.135 2.46 83.194 25.406 106.9a8.352 8.352 0 0 0 2.674 1.264 6.384 6.384 0 0 0 8.622-7.209q-.034-.177-.052-.354z"/></g><path d="m309.258 186.682c-15.891 4.332-24.208 9.489-33.015 14.95a138.512 138.512 0 0 1 -21.2 11.307c-.124.052-.246.106-.367.163-2-1.1-4.4-2.485-7.024-4-14.585-8.424-36.629-21.154-55.466-23.652-41.094-5.453-72.505 12.839-84.038 48.922-11.039 34.532.615 73.55 25.976 86.977 16.455 8.712 25.442 14.154 28.89 19.725 2.984 4.822 2.6 11.116 1.439 24.895-.192 2.281-.4 4.726-.6 7.357-1.438 18.8-3.627 82.727 28.543 115.966a17.09 17.09 0 0 0 29.07-14.838 268.6 268.6 0 0 1 .14-45.263c1.991-22.689 7.972-54.126 25.16-75.048a11.251 11.251 0 0 1 17.238.085c16.876 21.056 22.73 52.47 24.67 75.116a271.826 271.826 0 0 1 .1 45.112 16.707 16.707 0 0 0 16.666 19.644 17.265 17.265 0 0 0 5.631-.944 16.855 16.855 0 0 0 6.772-3.866c32.172-33.241 29.982-97.167 28.545-115.968-.2-2.618-.4-5.052-.6-7.324-1.158-13.785-1.544-20.082 1.44-24.9 3.444-5.563 12.431-11.017 28.891-19.753 13.479-7.154 23.286-21.692 27.616-40.936a95.414 95.414 0 0 0 -4.035-54.766c-6.469-16.334-17.37-28.744-31.525-35.886-16.334-8.245-36.157-9.28-58.917-3.075zm79.289 43.377a83.122 83.122 0 0 1 3.485 47.713c-3.5 15.546-11.347 27.564-21.535 32.971-19.144 10.162-28.52 16.044-33.468 24.036-5.2 8.395-4.443 17.365-3.195 32.225.189 2.244.391 4.648.589 7.233 2.76 36.1-2.393 83.043-25.124 106.626a9.478 9.478 0 0 1 -2.132.948 4.8 4.8 0 0 1 -6.551-5.414c.031-.164.056-.329.073-.494.359-3.434 8.382-84.632-27.324-129.182a23.249 23.249 0 0 0 -35.874-.2c-36.416 44.327-28.305 125.933-27.942 129.385.016.164.041.327.072.49a4.8 4.8 0 0 1 -6.553 5.413 9.433 9.433 0 0 1 -2.13-.947c-22.729-23.581-27.883-70.525-25.124-106.626.2-2.6.4-5.012.592-7.266 1.249-14.855 2-23.821-3.193-32.216-4.956-8.006-14.334-13.879-33.479-24.015-20.123-10.653-29.355-43.954-20.162-72.718 4.62-14.451 20.778-47.342 71.031-40.68 16.476 2.185 37.278 14.2 51.043 22.148 4.181 2.415 7.792 4.5 10.488 5.841 13.015 6.472 32.56 14.636 51.966 10.853a6 6 0 0 0 -2.3-11.778c-9.386 1.834-20.017.34-32.868-4.7 5.338-2.736 9.661-5.416 13.634-7.88 8.393-5.2 15.64-9.7 29.847-13.571 36.449-9.926 64.197 1.661 76.134 31.805z" fill="#0635c9"/><path d="m289.57 59.135 5.87-34.222a6 6 0 0 0 -8.706-6.326l-30.734 16.158-30.734-16.158a6 6 0 0 0 -8.706 6.326l5.87 34.222-24.865 24.237a6 6 0 0 0 3.327 10.234l34.361 4.994 15.366 31.137a6 6 0 0 0 10.762 0l15.366-31.137 34.361-4.993a6 6 0 0 0 3.327-10.234zm-17.67 28.042a6 6 0 0 0 -4.518 3.282l-11.382 23.064-11.382-23.064a6 6 0 0 0 -4.518-3.282l-25.453-3.7 18.418-17.953a6 6 0 0 0 1.726-5.31l-4.349-25.349 22.766 11.968a6.005 6.005 0 0 0 5.584 0l22.766-11.968-4.349 25.349a6 6 0 0 0 1.726 5.31l18.418 17.953z" fill="#1ae5be"/><path d="m146.732 114.018 5.868-34.218a6 6 0 0 0 -8.7-6.33l-30.738 16.158-30.733-16.157a6 6 0 0 0 -8.706 6.329l5.869 34.223-24.864 24.232a6 6 0 0 0 3.326 10.234l34.361 4.992 15.366 31.138a6 6 0 0 0 10.762 0l15.366-31.138 34.362-4.992a6 6 0 0 0 3.326-10.234zm-17.67 28.042a6 6 0 0 0 -4.518 3.282l-11.382 23.064-11.382-23.064a6 6 0 0 0 -4.518-3.282l-25.452-3.7 18.418-17.953a6 6 0 0 0 1.725-5.31l-4.348-25.347 22.765 11.967a6 6 0 0 0 5.584 0l22.766-11.967-4.349 25.35a6 6 0 0 0 1.726 5.31l18.418 17.953z" fill="#1ae5be"/><path d="m432.408 114.018 5.869-34.218a6 6 0 0 0 -8.706-6.324l-30.733 16.152-30.738-16.158a6 6 0 0 0 -8.7 6.33l5.871 34.223-24.871 24.232a6 6 0 0 0 3.326 10.234l34.362 4.992 15.366 31.138a6 6 0 0 0 10.762 0l15.366-31.138 34.361-4.992a6 6 0 0 0 3.326-10.234zm-17.67 28.042a6 6 0 0 0 -4.518 3.282l-11.382 23.064-11.382-23.064a6 6 0 0 0 -4.518-3.282l-25.453-3.7 18.415-17.951a6 6 0 0 0 1.726-5.31l-4.346-25.349 22.766 11.968a6 6 0 0 0 5.584 0l22.77-11.968-4.353 25.35a6 6 0 0 0 1.725 5.31l18.418 17.953z" fill="#1ae5be"/></svg>