<svg id="Layer_1" height="512" viewBox="0 0 512 512" width="512" xmlns="http://www.w3.org/2000/svg" data-name="Layer 1"><path d="m218.455 41.5a14.016 14.016 0 0 1 14-14h-10a14.016 14.016 0 0 0 -14 14v178.281l10-7.918z" fill="#d4e1f4"/><path d="m218.455 307.5v-18.195l10.179-10.179a5.986 5.986 0 0 1 -2.179-4.626v-3.195l-18 18v18.195a14.015 14.015 0 0 0 14 14h10a14.015 14.015 0 0 1 -14-14z" fill="#d4e1f4"/><path d="m422.455 15.5h-200a26.029 26.029 0 0 0 -26 26v107.982l-92.149 73.381a5.721 5.721 0 0 0 -.543.489 40.4 40.4 0 0 0 -11.646 28.474v160.81h-12.572a16.019 16.019 0 0 0 -16 16v51.864a16.018 16.018 0 0 0 16 16h166.155a16.017 16.017 0 0 0 16-16v-51.864a16.018 16.018 0 0 0 -16-16h-6.511v-13.568a40.694 40.694 0 0 0 34.632-40.191v-25.377h148.634a26.029 26.029 0 0 0 26-26v-266a26.029 26.029 0 0 0 -26-26zm-172.755 413.136v51.864a4 4 0 0 1 -4 4h-166.155a4 4 0 0 1 -4-4v-51.864a4 4 0 0 1 4-4h166.155a4 4 0 0 1 4 4zm12.121-69.759a28.664 28.664 0 0 1 -28.632 28.633 6 6 0 0 0 -6 6v19.126h-123.072v-160.81a28.462 28.462 0 0 1 7.964-19.815l84.374-67.19v64.462l-53.727 42.542a6 6 0 1 0 7.449 9.408l78.987-62.543 2.345 2.344a20 20 0 0 1 0 28.249l-36.735 36.734a6 6 0 0 0 -1.748 3.9l-.464 8.009c-.006.116-.009.232-.009.347a40.447 40.447 0 0 0 4 17.285 41.041 41.041 0 0 1 -2.99 40 5.994 5.994 0 0 0 -1.008 3.328v17.317a6 6 0 1 0 12 0v-15.57a53.047 53.047 0 0 0 7.786-29.181 25.873 25.873 0 0 0 10.116 2.048h39.364zm-23.364-99.572 1.538-1.538a32.01 32.01 0 0 0 0-45.218l-1.539-1.539v-150.51h168v208h-168zm198 48.195a14.015 14.015 0 0 1 -14 14h-200a14.015 14.015 0 0 1 -14-14v-18.195l18-18v3.195a6 6 0 0 0 6 6h180a6 6 0 0 0 6-6v-220a6 6 0 0 0 -6-6h-180a6 6 0 0 0 -6 6v151.106a6.027 6.027 0 0 0 -.551.358l-17.449 13.817v-178.281a14.016 14.016 0 0 1 14-14h200a14.016 14.016 0 0 1 14 14z" fill="#0635c9"/><path d="m333.181 292.5h-21.451a6 6 0 0 0 0 12h21.451a6 6 0 1 0 0-12z" fill="#0635c9"/><path d="m363.253 119.731c-6.527-3.294-14.309-3.743-23.122-1.343a41.727 41.727 0 0 0 -12.421 5.612 49.354 49.354 0 0 1 -5.153 2.9l-.674-.389c-5.3-3.059-13.305-7.683-20.572-8.647-12.518-1.655-27.82 2.61-33.241 19.57-4.431 13.866.34 29.092 10.863 34.663 2.471 1.309 7.613 4.031 8.459 5.4.388.628.162 3.327-.079 6.184-.067.8-.138 1.651-.209 2.569-.527 6.9-1.3 30.381 10.935 43.018a9.6 9.6 0 0 0 3.882 2.32 9.721 9.721 0 0 0 12.873-10.663c-.2-2.192-2.093-26.241 7.78-38.4 9.7 12.252 7.821 36.214 7.625 38.4a9.722 9.722 0 0 0 12.875 10.662 9.581 9.581 0 0 0 3.876-2.315c12.235-12.642 11.465-36.126 10.938-43.022-.07-.913-.141-1.762-.207-2.555-.242-2.859-.468-5.562-.079-6.189.844-1.366 5.99-4.1 8.463-5.409 12.154-6.451 15-25.163 9.943-37.921a26.764 26.764 0 0 0 -12.755-14.445zm-2.814 41.758c-13.867 7.36-15.793 10.395-14.716 23.2.063.765.132 1.584.2 2.464.909 11.9-.864 21.01-3.445 27.075.021-10.235-1.437-27.86-10.624-39.322a11.946 11.946 0 0 0 -18.473-.1c-9.39 11.429-10.883 29.152-10.866 39.429-2.581-6.065-4.356-15.177-3.446-27.077.068-.885.137-1.708.2-2.477 1.078-12.812-.849-15.846-14.723-23.192-5.272-2.79-7.63-12.325-5.047-20.4 1.446-4.527 5.458-11.594 16.4-11.594a29.168 29.168 0 0 1 3.835.265c4.908.651 11.945 4.714 16.15 7.143 1.5.866 2.8 1.614 3.835 2.131 5 2.486 12.554 5.617 20.423 4.081a6 6 0 0 0 -.645-11.869 31.492 31.492 0 0 1 3.792-1.274c13.54-3.7 19.2 2.651 21.564 8.619 3.393 8.57 1.208 19.909-4.414 22.898z" fill="#1ae5be"/></svg>