<svg id="Layer_1" height="512" viewBox="0 0 512 512" width="512" xmlns="http://www.w3.org/2000/svg" data-name="Layer 1"><path d="m270.67 335.725a119.6 119.6 0 0 1 109.7-119.241c-3.308-.276-6.653-.424-10.031-.424a119.665 119.665 0 0 0 0 239.33c3.368 0 6.7-.148 10-.422a119.823 119.823 0 0 1 -109.669-119.243z" fill="#d4e1f4"/><path d="m106.786 126.951a47.368 47.368 0 1 0 47.367-47.367 47.421 47.421 0 0 0 -47.367 47.367zm82.735 0a35.368 35.368 0 1 1 -35.368-35.367 35.408 35.408 0 0 1 35.368 35.367z" fill="#0635c9"/><path d="m383.711 90.574h-12.386v-3.193a42.819 42.819 0 0 0 -42.77-42.771h-275.784a42.82 42.82 0 0 0 -42.771 42.771v185.062a42.821 42.821 0 0 0 42.771 42.772h12.385v3.192a42.821 42.821 0 0 0 42.772 42.772h138.24v-12h-138.24a30.807 30.807 0 0 1 -30.772-30.772v-3.192h170.317v-12h-83l81.863-85.309a14.971 14.971 0 0 1 19.547-1.88c.07.05.142.1.215.145l31.031 19.934 6.486-10.095-30.928-19.869a26.9 26.9 0 0 0 -35.009 3.457l-27.866 29.038-64.326-39.907a27.124 27.124 0 0 0 -30.886 1.641l-92.6 61.33v-174.319a30.806 30.806 0 0 1 30.771-30.771h275.784a30.806 30.806 0 0 1 30.77 30.771v122.679h12v-107.486h12.386a30.805 30.805 0 0 1 30.771 30.771v87.124h12v-87.124a42.819 42.819 0 0 0 -42.771-42.771zm-262.282 119.666c.144-.095.284-.2.42-.3a15.09 15.09 0 0 1 17.311-1.009l62.157 38.561-53.475 55.727h-95.071a30.81 30.81 0 0 1 -30.564-27.258z" fill="#0635c9"/><g fill="#1ae5be"><path d="m370.335 204.06a131.632 131.632 0 0 0 -131.665 131.665c0 72.6 59.064 131.665 131.665 131.665s131.665-59.065 131.665-131.665-59.064-131.665-131.665-131.665zm0 251.33a119.665 119.665 0 1 1 119.665-119.665 119.8 119.8 0 0 1 -119.665 119.665z"/><path d="m394.869 261.688a54.729 54.729 0 0 0 -16.283 7.359 64.2 64.2 0 0 1 -8.221 4.516c-.582-.332-1.211-.695-1.873-1.078-7.04-4.064-17.679-10.208-27.115-11.46-19.333-2.564-34.872 5.613-41.592 21.867-6.788 16.42-2.776 36.408 9.133 45.5a24.523 24.523 0 0 0 3.392 2.175c6.69 3.542 11.08 6.13 12.289 8.083.861 1.391.673 4.128.206 9.695-.091 1.074-.188 2.225-.283 3.464-.7 9.127-1.732 40.194 14.238 56.695a10.891 10.891 0 0 0 4.422 2.608 11.046 11.046 0 0 0 14.639-12.176c-.251-2.74-3.01-36.616 11.129-53.828a2.162 2.162 0 0 1 3.1.009c13.895 17.339 11.155 51.1 10.908 53.819a11.119 11.119 0 0 0 14.634 12.178 10.917 10.917 0 0 0 4.425-2.607c15.973-16.506 14.937-47.571 14.239-56.7-.094-1.234-.191-2.379-.28-3.45-.468-5.568-.655-8.306.206-9.7 1.208-1.951 5.6-4.545 12.3-8.1a23.448 23.448 0 0 0 3.387-2.2c12.487-9.708 16.076-32.955 7.683-49.75-3.852-7.693-15.913-24.76-44.683-16.919zm29.631 57.212a11.635 11.635 0 0 1 -1.649 1.072c-18.883 10.022-20.157 13.63-18.832 29.4.087 1.042.181 2.158.273 3.36 1.167 15.261-.725 34.747-9.237 45.535.615-8.657 1.785-41.4-13.641-60.647a14.066 14.066 0 0 0 -21.736-.121c-15.747 19.167-14.575 52.078-13.954 60.768-8.511-10.784-10.4-30.273-9.238-45.535.093-1.206.187-2.328.275-3.373 1.328-15.78.053-19.388-18.835-29.388a12.55 12.55 0 0 1 -1.725-1.108c-7.54-5.756-9.979-20.128-5.327-31.381 2.415-5.841 8.567-14.932 23.45-14.932a41.639 41.639 0 0 1 5.474.378c7.076.938 16.851 6.583 22.692 9.956 2 1.155 3.731 2.154 5.081 2.825 6.5 3.235 16.312 7.31 26.336 5.351a6 6 0 0 0 -2.3-11.778 18.459 18.459 0 0 1 -6.707-.026h.008a42.9 42.9 0 0 1 13.115-5.979c18.5-5.046 26.954 3.043 30.79 10.715 5.841 11.671 3.745 28.638-4.313 34.908z"/></g></svg>