<svg id="Layer_1" height="512" viewBox="0 0 512 512" width="512" xmlns="http://www.w3.org/2000/svg" data-name="Layer 1"><path d="m246.954 438.3c-3.159-37.262-12.768-66.147-28.561-85.853a22.586 22.586 0 0 0 -17.747-8.421 23.255 23.255 0 0 0 -5.4.639c.025.031.053.06.078.091 15.793 19.706 25.4 48.591 28.561 85.853a291.342 291.342 0 0 1 .048 49.906c-.013.126-.031.253-.055.379a6.841 6.841 0 0 0 9.238 7.724 8.834 8.834 0 0 0 2.871-1.361 73.648 73.648 0 0 0 11.973-16.84 308.31 308.31 0 0 0 -1.006-32.117z" fill="#d4e1f4"/><path d="m130.732 480.514c-.009-.088-.038-.373-.08-.833-15.151-27.259-18.566-67.262-16.118-99.277.211-2.76.427-5.325.628-7.72 1.295-15.4 2.077-24.692-3.132-33.106-5.012-8.1-15.229-14.465-34.844-24.849-10.813-5.725-19.07-17.211-23.25-32.342a84.25 84.25 0 0 1 1.015-46.876c4.769-14.919 13.54-26.931 25.366-34.737 13.811-9.115 31.264-12.351 51.879-9.617.727.1 1.464.217 2.205.347-8.6-3.878-17.374-6.989-25.277-8.038-20.615-2.734-38.068.5-51.879 9.618-11.825 7.805-20.6 19.817-25.366 34.737a84.246 84.246 0 0 0 -1.015 46.879c4.18 15.131 12.437 26.618 23.25 32.342 19.615 10.384 29.832 16.751 34.844 24.849 5.209 8.414 4.427 17.708 3.132 33.106-.2 2.395-.417 4.961-.628 7.721-2.962 38.714 2.638 89.137 27.222 114.541a8.931 8.931 0 0 0 2.865 1.354 6.841 6.841 0 0 0 9.239-7.723c-.024-.125-.042-.25-.056-.376z" fill="#d4e1f4"/><path d="m167.944 354.517a12.2 12.2 0 0 1 18.689.091c33.639 41.975 26.633 122.4 26.194 127.043a17.292 17.292 0 0 0 17.25 20.349 17.86 17.86 0 0 0 5.833-.979 17.441 17.441 0 0 0 7.013-4c33.834-34.96 31.526-102.255 30.013-122.047-.212-2.759-.427-5.326-.628-7.721-1.228-14.612-1.636-21.29 1.566-26.462 3.671-5.93 13.183-11.707 30.594-20.948 12.514-6.643 22.236-19.748 27.374-36.9a100.155 100.155 0 0 0 1.269-51.09 6 6 0 1 0 -11.675 2.772c7.28 30.669-2.855 64.143-22.594 74.62-20.137 10.688-29.994 16.867-35.171 25.231-5.424 8.761-4.632 18.18-3.321 33.784.2 2.368.412 4.9.62 7.631 2.918 38.153-2.542 87.782-26.608 112.722a9.723 9.723 0 0 1 -2.355 1.059 5.562 5.562 0 0 1 -6.978-2.775 5.634 5.634 0 0 1 -.359-3.306c.031-.163.055-.328.072-.493.378-3.618 8.826-89.116-28.745-136a24.193 24.193 0 0 0 -37.325-.2c-38.317 46.641-29.776 132.57-29.394 136.2q.025.248.072.489a5.644 5.644 0 0 1 -.359 3.307 5.561 5.561 0 0 1 -6.981 2.773 9.64 9.64 0 0 1 -2.352-1.057c-24.065-24.933-29.526-74.563-26.608-112.716.209-2.741.423-5.289.623-7.665 1.312-15.6 2.1-25.013-3.32-33.775-5.186-8.379-15.045-14.549-35.181-25.209-21.352-11.3-31.162-46.6-21.42-77.077 4.9-15.319 22.029-50.188 75.263-43.126 17.439 2.313 39.41 15 53.949 23.4 4.405 2.544 8.209 4.741 11.044 6.15 13.682 6.805 34.227 15.391 54.593 11.418a6 6 0 1 0 -2.3-11.778c-10.124 1.975-21.6.3-35.51-5.243 5.912-2.992 10.65-5.928 14.99-8.619 8.873-5.5 16.536-10.253 31.564-14.349a95.071 95.071 0 0 1 29.536-3.662 6 6 0 1 0 .6-11.985 107.04 107.04 0 0 0 -33.291 4.069c-16.712 4.556-25.465 9.983-34.732 15.729a146.338 146.338 0 0 1 -22.409 11.949c-.175.073-.341.159-.51.241-2.149-1.18-4.726-2.667-7.575-4.312-15.36-8.87-38.572-22.275-58.373-24.9-43.159-5.723-76.16 13.479-88.271 51.368-11.594 36.274.624 77.248 27.236 91.337 17.406 9.214 26.917 14.98 30.593 20.919 3.2 5.172 2.794 11.847 1.565 26.453-.2 2.406-.419 4.983-.631 7.756-1.513 19.792-3.822 87.087 30.012 122.046a17.7 17.7 0 0 0 30.1-15.378c-.446-4.633-7.571-85.358 26.749-127.134z" fill="#1ae5be"/><path d="m446.989 14.682a15.984 15.984 0 1 0 -22.6 22.6l9.877 9.878-21.878 21.878-9.867-9.867a16.019 16.019 0 0 0 -22.627 0l-23.926 23.929-17.177 17.176-17.176 17.176-17.177 17.178-17.179 17.178-17.19 17.192-21.018 21.018a16.007 16.007 0 0 0 -.687 21.867l-9.914 9.914a6 6 0 0 0 0 8.485l2.817 2.818-10.508 10.508a6 6 0 0 0 0 8.485l6.347 6.348-59.149 59.147a6 6 0 1 0 8.485 8.484l59.147-59.147 6.348 6.347a6 6 0 0 0 8.486 0l10.508-10.508 2.817 2.817a6 6 0 0 0 8.486 0l9.914-9.915a15.983 15.983 0 0 0 21.867-.687l130.845-130.843a16.018 16.018 0 0 0 0-22.628l-9.866-9.866 21.873-21.873 9.877 9.877a15.985 15.985 0 0 0 22.606-22.606zm-190.809 245.865-6.345-6.345-6.344-6.344 6.266-6.266 12.7 12.695zm21.811-7.692-26.815-26.814 5.635-5.635 26.815 26.815zm158.384-137.2-130.845 130.845a4 4 0 0 1 -5.657 0l-42.339-42.338a4.006 4.006 0 0 1 0-5.657l16.777-16.776 16.937 16.937a6 6 0 0 0 8.486-8.485l-16.934-16.941 8.694-8.694 6.348 6.348a6 6 0 1 0 8.485-8.486l-6.347-6.347 8.694-8.695 16.933 16.934a6 6 0 0 0 8.486-8.486l-16.938-16.937 8.7-8.694 6.347 6.347a6 6 0 0 0 8.485-8.485l-6.347-6.348 8.694-8.694 16.938 16.938a6 6 0 0 0 8.485-8.486l-16.937-16.937 8.694-8.7 6.347 6.348a6 6 0 0 0 8.486-8.486l-6.348-6.347 19.685-19.685a4 4 0 0 1 5.657 0l42.334 42.352a4 4 0 0 1 0 5.652zm-9.867-32.494-5.635-5.635 21.874-21.876 5.634 5.635zm54.357-12a3.99 3.99 0 0 1 -5.636 0l-14.12-14.121-14.12-14.12-14.12-14.12a3.985 3.985 0 0 1 5.635-5.635l42.361 42.361a3.99 3.99 0 0 1 0 5.637z" fill="#0635c9"/></svg>