<svg id="Layer_1" height="512" viewBox="0 0 512 512" width="512" xmlns="http://www.w3.org/2000/svg" data-name="Layer 1"><path d="m200.407 231.373 15.375-16.18 211.533 211.533-15.778 15.778z" fill="#d4e1f4"/><path d="m61.151 114.976 45.993.064 100.156 100.153a6 6 0 0 0 8.486-8.485l-101.911-101.908a6 6 0 0 0 -4.234-1.758l-42.5-.059-.141-41.992a6 6 0 0 0 -6-5.98h-.02a6 6 0 0 0 -5.98 6.02l.16 47.969a6 6 0 0 0 5.991 5.976z" fill="#0635c9"/><path d="m222 269.938.025.026 26.046 26.046.016.015 26.047 26.047.025.026 26.041 26.041.026.025 26.046 26.046.015.016 26.047 26.046.025.026 26.046 26.046.016.015 26.044 26.041.035.036 2.8 2.794a6 6 0 0 0 8.485 0l39.463-39.462a6 6 0 0 0 0-8.485l-29.338-29.332-.024-.024-26.039-26.038-.033-.034-26.039-26.039-.022-.021-26.041-26.041-.03-.031-26.037-26.036-.029-.03-26.043-26.043-.018-.018-26.055-26.054-.006-.006-26.061-26.061-.006-.006-7.8-7.8a6 6 0 0 0 -8.485 0l-39.463 39.461a6 6 0 0 0 0 8.486zm36.746-42.178-10.143 51.811-15.839-15.841 10.143-51.811zm26.067 26.066-10.143 51.812-15.839-15.838 10.143-51.812zm26.067 26.067-10.142 51.807-15.838-15.836 10.144-51.812zm26.066 26.067-10.143 51.811-15.839-15.841 10.143-51.811zm26.067 26.067-10.143 51.811-15.839-15.838 10.143-51.811zm26.067 26.067-10.143 51.811-15.837-15.841 10.143-51.812zm26.067 26.067-10.144 51.811-15.84-15.841 10.143-51.812zm1.88 52.851 8.346-42.626 17.14 17.14zm-185.643-236.612 1.3 1.3-10.146 51.8-22.131-22.131z" fill="#1ae5be"/></svg>