<svg id="Layer_1" height="512" viewBox="0 0 512 512" width="512" xmlns="http://www.w3.org/2000/svg" data-name="Layer 1"><path d="m140.833 476.1a135.09 135.09 0 0 1 -80.971-123.624v-67.029l82.777-45.365-10.14-5.4-92.637 50.765v67.029a135.09 135.09 0 0 0 80.971 123.624l11.286 4.919 10.048-4.338z" fill="#d4e1f4"/><path d="m107.587 135.35a34.039 34.039 0 0 1 34-34h51.642l.093.093.093-.093h132.751l.093.093.093-.093h95.235a34.039 34.039 0 0 1 34 34v52.182h-66.722a49.637 49.637 0 0 0 0 99.273h66.722v52.181a34.038 34.038 0 0 1 -34 34h-190.512v12h190.512a46.052 46.052 0 0 0 46-46v-52.181h10.551a6 6 0 0 0 6-6v-87.273a6 6 0 0 0 -6-6h-10.551v-52.182a46.052 46.052 0 0 0 -46-46h-23.248l-69.157-69.157a6 6 0 0 0 -8.485 0l-29.359 29.359-27.305-27.3a6 6 0 0 0 -8.484 0l-67.1 67.1h-46.862a46.052 46.052 0 0 0 -46 46v109.425h12zm364.551 139.455h-83.273a37.637 37.637 0 0 1 0-75.273h83.273zm-147.199-241.884 56.43 56.429h-50.233l-31.313-31.313zm-65.148 2.054 54.375 54.375h-108.751z" fill="#0635c9"/><path d="m368.138 237.168a22.364 22.364 0 1 0 22.362-22.363 22.389 22.389 0 0 0 -22.362 22.363zm22.362-10.363a10.364 10.364 0 1 1 -10.363 10.363 10.375 10.375 0 0 1 10.363-10.363z" fill="#0635c9"/><g fill="#1ae5be"><path d="m116.026 487.1 13.684 5.965a6 6 0 0 0 4.776.008l15.42-6.658a146.8 146.8 0 0 0 89.956-135.341v-69.18a6 6 0 0 0 -3.178-5.3l-101.4-54.036a6 6 0 0 0 -5.705.034l-98.6 54.035a6 6 0 0 0 -3.117 5.262v70.582a147.093 147.093 0 0 0 88.164 134.629zm-76.164-201.653 92.638-50.769 95.362 50.822v65.578a134.83 134.83 0 0 1 -82.652 124.3l-.042.018-13.049 5.634-11.286-4.93a135.09 135.09 0 0 1 -80.971-123.624z"/><path d="m86.269 354.531c2.977 1.576 8.518 4.51 9.534 6.151.532.86.3 3.644 0 7.17-.074.875-.153 1.811-.23 2.819-.575 7.524-1.418 33.138 11.861 46.857a9.954 9.954 0 0 0 4.037 2.4 10.093 10.093 0 0 0 13.362-11.117c-.819-8.132-.8-31.105 8.781-42.771a.606.606 0 0 1 .756 0c10.943 13.655 8.817 40.458 8.606 42.8a10.091 10.091 0 0 0 13.37 11.088 9.954 9.954 0 0 0 4.028-2.4c13.283-13.724 12.44-39.338 11.865-46.862-.076-1-.155-1.935-.228-2.805-.3-3.528-.531-6.315 0-7.175 1.014-1.638 6.559-4.582 9.539-6.163 13.089-6.948 16.123-27.164 10.659-40.961a28.845 28.845 0 0 0 -13.739-15.562c-7.045-3.554-15.458-4.037-25.006-1.434a45.377 45.377 0 0 0 -13.507 6.1 53.167 53.167 0 0 1 -6.012 3.355l-1.012-.584c-5.787-3.342-14.533-8.393-22.41-9.437-9.252-1.228-17.25.333-23.77 4.638a30.5 30.5 0 0 0 -12.143 16.476c-4.79 14.986.331 31.421 11.659 37.417zm-.228-33.763c1.643-5.141 6.2-13.171 18.579-13.171a32.909 32.909 0 0 1 4.325.3c5.517.731 13.323 5.239 17.987 7.933 1.641.947 3.058 1.766 4.185 2.326 5.421 2.7 13.6 6.09 22.082 4.437a6 6 0 0 0 -2.3-11.778 11.723 11.723 0 0 1 -1.5.192 31.22 31.22 0 0 1 7.224-2.861c15.319-4.177 21.744 3.045 24.435 9.84 3.835 9.683 1.295 22.535-5.128 25.944-15.112 8.02-17.04 11.051-15.872 24.942.07.842.146 1.745.22 2.714.817 10.685-.223 23.942-5.031 32.756.294-10.423-.571-32.158-11.51-45.806a12.542 12.542 0 0 0 -19.39-.109c-11.176 13.6-12.069 35.453-11.775 45.916-4.806-8.811-5.846-22.07-5.03-32.756.074-.975.151-1.881.223-2.728.5-5.957.863-10.261-1.756-14.492-2.334-3.771-6.243-6.269-14.122-10.44-6.038-3.196-8.769-14.017-5.846-23.159z"/></g></svg>