<svg id="Layer_1" height="512" viewBox="0 0 512 512" width="512" xmlns="http://www.w3.org/2000/svg" data-name="Layer 1"><path d="m353.35 444.363a97.322 97.322 0 0 1 -38.511-77.678c0-2.818.122-5.667.361-8.464a97.566 97.566 0 0 1 87.221-88.591 98.927 98.927 0 0 0 -10-.525 97.591 97.591 0 0 0 -97.22 89.116c-.239 2.8-.361 5.646-.361 8.464a97.322 97.322 0 0 0 38.511 77.678 96.688 96.688 0 0 0 59.07 19.9 98.246 98.246 0 0 0 10.053-.515 96.491 96.491 0 0 1 -49.124-19.385z" fill="#d4e1f4"/><path d="m209.911 35.734h-.378c-110.095.073-199.605 89.701-199.533 199.796a6 6 0 0 0 11.8 1.526c1.389-5.255 6.317-20.263 12.445-26.9a43.694 43.694 0 0 1 30.229-12.236 42.512 42.512 0 0 1 30.133 12.195 43.69 43.69 0 0 1 12.285 30.253 6 6 0 0 0 12 0 41.811 41.811 0 0 1 42.475-42.448h.21a42.559 42.559 0 0 1 29.924 12.2 43.693 43.693 0 0 1 12.284 30.253v173.86a42.361 42.361 0 0 1 -84.721 0 6 6 0 0 0 -12 0 54.361 54.361 0 0 0 108.721 0v-173.866a41.812 41.812 0 0 1 42.475-42.444h.206a42.563 42.563 0 0 1 29.929 12.2 43.691 43.691 0 0 1 12.284 30.253 6 6 0 1 0 12 0 41.813 41.813 0 0 1 42.475-42.448 42.594 42.594 0 0 1 30.131 12.191c6.15 6.616 11.1 21.676 12.485 26.939a6 6 0 0 0 11.8-1.527v-.254c-.065-110.06-89.619-199.543-199.659-199.543zm184.037 166.073c-.053-.057-.108-.113-.164-.168a54.478 54.478 0 0 0 -38.392-15.717h-.264a55.507 55.507 0 0 0 -38.564 15.627c-.087.083-.173.169-.256.257a59.062 59.062 0 0 0 -9.627 13.555 59.088 59.088 0 0 0 -9.626-13.555c-.054-.057-.109-.113-.164-.168a54.483 54.483 0 0 0 -38.391-15.716h-.264a55.5 55.5 0 0 0 -38.562 15.627c-.088.083-.174.168-.256.256a59.081 59.081 0 0 0 -9.628 13.552 59.083 59.083 0 0 0 -9.63-13.557c-.054-.056-.108-.113-.164-.168a54.468 54.468 0 0 0 -38.387-15.717c-14.448-.081-27.9 5.341-38.832 15.628-.088.083-.173.169-.256.257a59.083 59.083 0 0 0 -9.627 13.555 59.114 59.114 0 0 0 -9.627-13.555c-.054-.056-.109-.113-.164-.168a54.472 54.472 0 0 0 -38.387-15.717c-14.451-.081-27.9 5.341-38.832 15.628-.089.083-.175.17-.258.258q-.389.412-.766.846c15.528-87.868 92.412-154.847 184.677-154.913h.25a.425.425 0 0 0 .124 0c92.3 0 169.273 66.989 184.805 154.921q-.379-.435-.768-.848z" fill="#0635c9"/><g fill="#1ae5be"><path d="m430.408 263.871a109.62 109.62 0 0 0 -147.163 93.329c-.269 3.138-.406 6.33-.406 9.49a109.323 109.323 0 0 0 43.239 87.225 108.6 108.6 0 0 0 66.342 22.356 109.6 109.6 0 0 0 37.988-212.4zm-37.988 200.4a96.688 96.688 0 0 1 -59.07-19.9 97.322 97.322 0 0 1 -38.511-77.678c0-2.818.122-5.667.361-8.464a97.584 97.584 0 1 1 97.22 106.045z"/><path d="m414.025 300.3a49.191 49.191 0 0 0 -14.634 6.611 57.658 57.658 0 0 1 -6.909 3.828c-.429-.246-.886-.51-1.361-.784-6.3-3.637-15.811-9.132-24.323-10.261-9.987-1.322-18.613.353-25.634 4.988a32.828 32.828 0 0 0 -13.064 17.737c-5.163 16.15.323 33.844 12.486 40.284 4.577 2.422 9.553 5.157 10.653 6.935.652 1.052.477 3.533.085 8.2-.081.957-.167 1.98-.251 3.082-.625 8.174-1.548 36 12.833 50.863a10.371 10.371 0 0 0 4.188 2.479 10.642 10.642 0 0 0 3.466.58 10.442 10.442 0 0 0 10.413-12.142c-.905-8.957-.882-34.327 9.737-47.254a1.222 1.222 0 0 1 1.709 0c12.141 15.149 9.768 44.775 9.541 47.278a10.48 10.48 0 0 0 13.887 11.53 10.349 10.349 0 0 0 4.186-2.481c14.376-14.855 13.455-42.684 12.83-50.859-.084-1.1-.169-2.115-.249-3.067-.392-4.664-.566-7.147.084-8.2 1.1-1.775 6.078-4.519 10.658-6.949 12.713-6.748 18.044-27.369 11.408-44.128s-22.236-23.586-41.739-18.27zm24.7 51.8c-8.529 4.527-12.752 7.224-15.234 11.233-2.767 4.471-2.378 9.106-1.839 15.52.077.924.161 1.913.242 2.977.961 12.58-.424 28.407-6.723 38.1.483-10.159.311-36.132-12.392-51.981a13.162 13.162 0 0 0 -20.345-.116c-12.973 15.792-13.163 41.9-12.677 52.1-6.3-9.688-7.684-25.515-6.722-38.094.082-1.07.166-2.064.243-2.992.54-6.412.93-11.045-1.838-15.516-2.486-4.017-6.712-6.709-15.242-11.226-6.829-3.615-9.946-15.776-6.671-26.023 2.048-6.41 8.11-16.817 25.689-14.482 6.15.816 14.758 5.786 19.9 8.756 1.787 1.032 3.33 1.923 4.548 2.528 5.86 2.915 14.7 6.583 23.811 4.809a6 6 0 0 0 -2.3-11.777 14.461 14.461 0 0 1 -3.842.2 34.973 34.973 0 0 1 9.843-4.232c7.762-2.117 21.644-3.485 27.424 11.11 4.3 10.835 1.388 25.254-5.871 29.106z"/></g></svg>