<svg id="Layer_1" height="512" viewBox="0 0 512 512" width="512" xmlns="http://www.w3.org/2000/svg" data-name="Layer 1"><path d="m263.691 211.081a87.325 87.325 0 0 1 -17.7-13.666 86.924 86.924 0 0 1 51.473-147.824 88.218 88.218 0 0 0 -10-.589 86.939 86.939 0 0 0 -61.475 148.413 86.657 86.657 0 0 0 71.346 24.892 86.5 86.5 0 0 1 -33.644-11.226z" fill="#d4e1f4"/><g fill="#0635c9"><path d="m188.984 64.848a6 6 0 0 0 -6-6h-72.727a6 6 0 0 0 0 12h72.727a6 6 0 0 0 6-6z"/><path d="m114.247 434c1.413 0 2.808-.074 4.19-.195h.053 111.153v16.83a51.333 51.333 0 0 0 51.274 51.275h155.6q1.129.084 2.282.084a6.073 6.073 0 0 0 6-6.084 6 6 0 0 0 -6-6h-1.779a18.715 18.715 0 0 1 -16.91-18.605v-99.9a51.333 51.333 0 0 0 -51.275-51.276h-75.126v-91.251a6 6 0 0 0 -12 0v91.256h-84.551c-.126 0-.252 0-.376.012q-.518-.012-1.04-.012a45.952 45.952 0 0 0 -45.9 45.9v20.374a35.6 35.6 0 0 1 -71.191 0v-363.308a25.152 25.152 0 0 1 4.087 2.4c3.671 2.474 8.24 5.552 16.791 5.552s13.121-3.078 16.792-5.552c3.019-2.033 5.2-3.5 10.087-3.5s7.07 1.47 10.088 3.5c3.671 2.474 8.24 5.552 16.793 5.552s13.122-3.078 16.794-5.552c3.019-2.033 5.2-3.5 10.088-3.5s7.069 1.47 10.089 3.5c3.672 2.473 8.24 5.551 16.793 5.551s13.122-3.078 16.794-5.551c3.019-2.034 5.2-3.5 10.089-3.5s7.071 1.47 10.091 3.5c3.671 2.473 8.242 5.551 16.8 5.551s13.124-3.078 16.8-5.551a25.141 25.141 0 0 1 4.092-2.409v19.909a6 6 0 1 0 12 0v-27a6 6 0 0 0 -6-6c-8.554 0-13.124 3.078-16.8 5.551-3.02 2.034-5.2 3.5-10.092 3.5s-7.071-1.47-10.092-3.5c-3.675-2.473-8.246-5.551-16.799-5.551s-13.123 3.078-16.794 5.551c-3.02 2.034-5.2 3.5-10.089 3.5s-7.069-1.47-10.088-3.5c-3.672-2.473-8.24-5.551-16.794-5.551s-13.121 3.078-16.793 5.551c-3.02 2.034-5.2 3.5-10.089 3.5s-7.069-1.47-10.088-3.5c-3.671-2.473-8.24-5.551-16.793-5.551s-13.121 3.078-16.792 5.552c-3.018 2.033-5.2 3.5-10.087 3.5s-7.067-1.47-10.086-3.5c-3.671-2.474-8.243-5.552-16.791-5.552a6 6 0 0 0 -6 6v370.408a47.649 47.649 0 0 0 47.595 47.592zm254.583-101.866a39.32 39.32 0 0 1 39.275 39.276v99.9a30.535 30.535 0 0 0 6.3 18.605h-133.488a39.319 39.319 0 0 1 -39.274-39.275v-84.606a45.789 45.789 0 0 0 -14.987-33.9zm-206.987 54.274v-20.374a33.9 33.9 0 1 1 67.8 0v55.777h-83.626a47.483 47.483 0 0 0 15.826-35.403z"/><path d="m198.283 102.164h-49.82a6 6 0 0 0 0 12h49.82a6 6 0 0 0 0-12z"/><path d="m126.721 102.164h-16.464a6 6 0 0 0 0 12h16.464a6 6 0 0 0 0-12z"/><path d="m148.463 157.48h46.82a6 6 0 0 0 0-12h-46.82a6 6 0 0 0 0 12z"/><path d="m126.721 145.48h-16.464a6 6 0 1 0 0 12h16.464a6 6 0 1 0 0-12z"/><path d="m148.463 200.8h66.82a6 6 0 0 0 0-12h-66.82a6 6 0 0 0 0 12z"/><path d="m126.721 188.8h-16.464a6 6 0 1 0 0 12h16.464a6 6 0 1 0 0-12z"/><path d="m250.1 232.113h-101.637a6 6 0 0 0 0 12h101.637a6 6 0 0 0 0-12z"/><path d="m126.721 232.113h-16.464a6 6 0 0 0 0 12h16.464a6 6 0 0 0 0-12z"/><path d="m250.1 270.43h-101.637a6 6 0 0 0 0 12h101.637a6 6 0 0 0 0-12z"/><path d="m126.721 270.43h-16.464a6 6 0 0 0 0 12h16.464a6 6 0 0 0 0-12z"/><path d="m311.286 449.369h61.4a6 6 0 0 0 0-12h-61.4a6 6 0 1 0 0 12z"/><path d="m273.723 449.369h17.067a6 6 0 1 0 0-12h-17.067a6 6 0 0 0 0 12z"/><path d="m311.286 414.369h61.4a6 6 0 0 0 0-12h-61.4a6 6 0 1 0 0 12z"/><path d="m273.723 414.369h17.067a6 6 0 1 0 0-12h-17.067a6 6 0 0 0 0 12z"/><path d="m311.286 379.369h61.4a6 6 0 0 0 0-12h-61.4a6 6 0 1 0 0 12z"/><path d="m273.723 379.369h17.067a6 6 0 1 0 0-12h-17.067a6 6 0 0 0 0 12z"/></g><path d="m237.644 221.445a98.93 98.93 0 0 0 115.4-11.436l28.576 28.571-8.133 8.133a6 6 0 0 0 0 8.485l31.743 31.744a23.527 23.527 0 0 0 33.234 0 23.529 23.529 0 0 0 0-33.234l-31.744-31.744a6 6 0 0 0 -8.486 0l-8.134 8.136-28.579-28.578a99.053 99.053 0 0 0 -4.1-135.537 98.938 98.938 0 1 0 -119.777 155.46zm164.835 13.247 27.5 27.5a11.5 11.5 0 1 1 -16.263 16.264l-27.5-27.5zm-176.49-160.226a86.938 86.938 0 1 1 17.7 136.615 87.325 87.325 0 0 1 -17.7-13.666 86.939 86.939 0 0 1 0-122.949z" fill="#1ae5be"/><path d="m243.941 133.531c2.472 1.308 7.614 4.031 8.459 5.4.389.629.162 3.328-.078 6.186-.067.8-.138 1.649-.209 2.566-.527 6.9-1.3 30.381 10.938 43.023a9.585 9.585 0 0 0 3.88 2.317 9.722 9.722 0 0 0 12.869-10.666c-.2-2.2-2.092-26.245 7.78-38.4 9.706 12.256 7.819 36.234 7.625 38.4a9.721 9.721 0 0 0 12.875 10.661 9.6 9.6 0 0 0 3.876-2.315c12.235-12.642 11.466-36.127 10.938-43.024-.069-.913-.14-1.763-.208-2.555-.24-2.86-.466-5.561-.078-6.188.845-1.365 5.991-4.1 8.463-5.409 12.155-6.45 15-25.161 9.944-37.92a26.77 26.77 0 0 0 -12.755-14.437c-6.527-3.292-14.306-3.745-23.122-1.342a41.7 41.7 0 0 0 -12.423 5.607 48.9 48.9 0 0 1 -5.152 2.9l-.669-.386c-5.3-3.06-13.307-7.685-20.578-8.649-12.519-1.66-27.82 2.609-33.239 19.569-4.431 13.865.341 29.091 10.864 34.662zm.568-31.01c1.606-5.019 6.372-13.163 20.231-11.327 4.909.651 11.949 4.717 16.155 7.146 1.5.865 2.791 1.612 3.831 2.129 5 2.487 12.564 5.618 20.421 4.08a6 6 0 0 0 -.647-11.869 31.488 31.488 0 0 1 3.792-1.274c13.534-3.69 19.2 2.65 21.563 8.62 3.4 8.575 1.21 19.919-4.411 22.9-13.867 7.36-15.793 10.4-14.718 23.2.065.765.134 1.585.2 2.466.91 11.9-.865 21.013-3.446 27.077.022-10.234-1.435-27.861-10.622-39.323a11.946 11.946 0 0 0 -18.475-.1c-9.383 11.426-10.877 29.154-10.86 39.426-2.581-6.065-4.355-15.176-3.445-27.077.068-.885.137-1.708.2-2.475 1.078-12.814-.848-15.849-14.722-23.194-5.271-2.791-7.629-12.326-5.047-20.405z" fill="#1ae5be"/></svg>