<svg id="Layer_1" height="512" viewBox="0 0 512 512" width="512" xmlns="http://www.w3.org/2000/svg" data-name="Layer 1"><g fill="#d4e1f4"><path d="m289.118 61.8c10.437-6.472 19.451-12.06 37.176-16.892 14.81-4.038 28.474-5.224 40.706-3.719-17.557-10.5-40.615-12.485-67.407-5.181-17.724 4.832-26.738 10.42-37.175 16.892a200.131 200.131 0 0 1 -20.585 11.57c10.467 4.461 19.8 7.132 28.322 8.106a208.4 208.4 0 0 0 18.963-10.776z"/><path d="m277.309 230.377a26.141 26.141 0 0 0 -20.538-9.745 26.936 26.936 0 0 0 -6.253.739c.029.036.061.07.09.106 11.287 14.083 19.845 32.218 25.6 54.185l17.129-18.644a123.035 123.035 0 0 0 -16.028-26.641z"/><path d="m175.862 378.589c-.011-.1-.044-.431-.094-.963-17.533-31.546-21.485-77.841-18.652-114.89.244-3.194.494-6.163.727-8.935 1.5-17.819 2.4-28.575-3.624-38.312-5.8-9.371-17.625-16.74-40.325-28.757-12.513-6.625-22.069-19.918-26.906-37.428a97.5 97.5 0 0 1 1.175-54.248c5.519-17.266 15.67-31.167 29.354-40.2 15.983-10.549 36.183-14.294 60.039-11.13.841.112 1.694.251 2.552.4-9.954-4.488-20.107-8.089-29.253-9.3-23.855-3.164-44.055.581-60.038 11.13-13.685 9.033-23.835 22.934-29.354 40.2a97.485 97.485 0 0 0 -1.175 54.244c4.837 17.511 14.392 30.8 26.906 37.429 22.7 12.017 34.524 19.385 40.324 28.757 6.028 9.737 5.123 20.493 3.625 38.312-.234 2.772-.483 5.741-.728 8.935-3.425 44.807 3.051 103.161 31.5 132.56a10.357 10.357 0 0 0 3.315 1.567 7.917 7.917 0 0 0 10.692-8.938c-.022-.142-.044-.287-.06-.433z"/></g><path d="m378.479 188.282c16.251-8.626 28.091-26.22 33.339-49.541 4.951-22 3.161-46.312-4.912-66.7-7.846-19.814-21.054-34.86-38.2-43.509-19.822-10-43.926-11.244-71.644-3.688-19.395 5.286-29.566 11.593-40.335 18.271a172 172 0 0 1 -26.339 14.041 10.35 10.35 0 0 0 -1.009.493c-2.613-1.423-5.8-3.262-9.342-5.308-17.883-10.327-44.914-25.941-67.862-28.981-49.927-6.621-88.1 15.566-102.093 59.354-13.412 41.96.65 89.319 31.348 105.571 20.509 10.858 31.732 17.677 36.152 24.818 4.077 6.587 3.332 15.451 1.979 31.544-.237 2.81-.491 5.821-.738 9.059-2 26.163-.559 53.175 4.059 76.059 5.764 28.563 16.108 50.714 30.744 65.836a19.476 19.476 0 0 0 7.8 4.417 19.922 19.922 0 0 0 6.494 1.088 19.2 19.2 0 0 0 19.157-22.642c-.491-5.1-8.964-100.151 31.5-149.4a15.268 15.268 0 0 1 23.423.117c12.154 15.165 21.006 36.07 26.309 62.133a6 6 0 0 0 11.76-2.392c-5.688-27.952-15.345-50.577-28.706-67.246a27.265 27.265 0 0 0 -42.057-.23c-44.528 54.2-34.583 154.247-34.138 158.48q.025.246.072.489a7.315 7.315 0 0 1 -9.9 8.257 10.966 10.966 0 0 1 -3.08-1.417c-28.428-29.373-34.892-87.774-31.461-132.634.245-3.206.5-6.187.73-8.969 3.172-37.716 1.8-43.476-44.473-67.973-12.411-6.57-21.895-19.78-26.7-37.195a97.251 97.251 0 0 1 1.173-54.116c5.8-18.151 26.118-59.46 89.084-51.112 20.588 2.73 46.378 17.624 63.443 27.479 5.134 2.965 9.568 5.526 12.855 7.16 15.862 7.889 39.666 17.846 63.176 13.26a6 6 0 1 0 -2.3-11.778c-12.536 2.445-26.775.2-44.165-7.028a207.241 207.241 0 0 0 19.449-11.034c10.439-6.473 19.455-12.064 37.167-16.892 45.7-12.457 80.518 2.137 95.526 40.038 7.207 18.2 8.8 39.938 4.361 59.645-4.4 19.565-14.337 34.719-27.256 41.576-22.25 11.81-33.916 19.023-40.042 28.073-6.543 9.669-6.055 20.142-4.714 36.43a6 6 0 0 0 5.972 5.508c.165 0 .331-.006.5-.02a6 6 0 0 0 5.488-6.472c-2.386-28.81-2.58-31.164 38.406-52.919z" fill="#0635c9"/><path d="m356.687 490.106a6 6 0 0 0 8.748 0l70.9-75.52a112.285 112.285 0 0 0 24.1-38.26 104.39 104.39 0 0 0 6.3-42.974 110.649 110.649 0 0 0 -31.951-70.761 104.1 104.1 0 0 0 -147.446 0 110.649 110.649 0 0 0 -31.951 70.761 104.39 104.39 0 0 0 6.3 42.974 112.285 112.285 0 0 0 24.1 38.26zm-89.328-155.954a98.653 98.653 0 0 1 28.48-63.09 92.1 92.1 0 0 1 130.444 0 98.653 98.653 0 0 1 28.48 63.09 92.472 92.472 0 0 1 -5.6 38.061 100.375 100.375 0 0 1 -21.571 34.16l-66.528 70.861-66.528-70.861a100.375 100.375 0 0 1 -21.571-34.16 92.472 92.472 0 0 1 -5.606-38.061z" fill="#1ae5be"/><path d="m361.061 382.135c26.71 0 48.442-22.242 48.442-49.581s-21.732-49.582-48.442-49.582-48.442 22.242-48.442 49.582 21.731 49.581 48.442 49.581zm0-87.163c20.094 0 36.442 16.859 36.442 37.582s-16.348 37.581-36.442 37.581-36.442-16.859-36.442-37.581 16.348-37.582 36.442-37.582z" fill="#1ae5be"/></svg>