<svg id="Layer_1" height="512" viewBox="0 0 512 512" width="512" xmlns="http://www.w3.org/2000/svg" data-name="Layer 1"><path d="m194.806 240.171c-17.956-24.626-26.829-53.425-24.984-81.1a123.641 123.641 0 0 1 35.6-79.2 114.467 114.467 0 0 1 66.859-33.071 117.476 117.476 0 0 0 -15-.963 114.63 114.63 0 0 0 -81.863 34.023 123.641 123.641 0 0 0 -35.6 79.2c-1.845 27.679 7.028 56.478 24.984 81.1l92.475 123.623 15-20.052z" fill="#d4e1f4"/><path d="m426.407 293.141a6 6 0 0 0 -5.727-4.212h-102.957v12h9.738l9.192 57.44a6 6 0 0 0 5.925 5.051h93.2l13.522 43.321h-193.483a6 6 0 0 0 -6 6v53.418h-62.741l5-88.423a6 6 0 0 0 -5.99-6.339h-109.386l24.032-70.468h98.668v-12h-102.958a6 6 0 0 0 -5.678 4.064l-60.443 177.229a6 6 0 0 0 5.679 7.937h440a6 6 0 0 0 5.728-7.788zm-78.713 58.279-8.08-50.491h76.653l15.76 50.491zm-275.083 31.98h107.122l-4.675 82.762h-130.672zm189.206 82.762v-47.421h191.224l14.8 47.418z" fill="#0635c9"/><g fill="#1ae5be"><path d="m347.653 71.4a127.5 127.5 0 0 0 -180.745 0 135.626 135.626 0 0 0 -39.06 86.875c-2.032 30.472 7.65 62.067 27.3 89.022l97.323 130.1a6 6 0 0 0 9.609 0l97.318-130.1c19.721-26.294 29.42-57.914 27.311-89.018a135.635 135.635 0 0 0 -39.056-86.879zm2.145 168.71-92.517 123.684-92.475-123.623c-17.956-24.626-26.829-53.425-24.984-81.1a123.641 123.641 0 0 1 35.6-79.2 115.5 115.5 0 0 1 163.725 0 123.646 123.646 0 0 1 35.6 79.219c1.909 28.246-6.947 57.021-24.947 81.023z"/><path d="m256 70a96 96 0 1 0 96 96 96.109 96.109 0 0 0 -96-96zm0 180a84 84 0 1 1 84-84 84.095 84.095 0 0 1 -84 84z"/><path d="m300.607 106.291c-7.044-3.555-15.457-4.039-25.005-1.435a45.352 45.352 0 0 0 -13.507 6.1 53.343 53.343 0 0 1 -6.012 3.355l-1.01-.583c-5.788-3.343-14.534-8.394-22.412-9.438-9.251-1.229-17.249.333-23.77 4.638a30.49 30.49 0 0 0 -12.143 16.472c-4.79 14.984.331 31.419 11.658 37.416 2.977 1.576 8.518 4.51 9.534 6.15.532.861.3 3.646 0 7.171q-.109 1.311-.229 2.818c-.575 7.524-1.42 33.136 11.86 46.857a9.94 9.94 0 0 0 4.036 2.4 10.092 10.092 0 0 0 13.364-11.112c-.818-8.133-.8-31.105 8.782-42.771a.593.593 0 0 1 .755 0c10.944 13.655 8.817 40.458 8.607 42.8a10.057 10.057 0 0 0 10.031 11.648 10.243 10.243 0 0 0 3.337-.56 9.951 9.951 0 0 0 4.03-2.4c13.285-13.726 12.44-39.339 11.864-46.862-.076-1-.154-1.935-.228-2.805-.3-3.529-.53-6.315 0-7.175 1.015-1.639 6.559-4.582 9.538-6.163 13.09-6.947 16.125-27.163 10.661-40.961a28.837 28.837 0 0 0 -13.741-15.56zm-2.544 45.926c-15.11 8.021-17.039 11.051-15.872 24.943.071.842.147 1.745.222 2.715.816 10.684-.223 23.941-5.03 32.755.293-10.422-.572-32.158-11.51-45.8a12.542 12.542 0 0 0 -19.392-.112c-11.175 13.6-12.068 35.454-11.774 45.916-4.807-8.81-5.847-22.07-5.03-32.756.075-.974.151-1.881.222-2.727.5-5.957.863-10.262-1.755-14.492-2.335-3.772-6.244-6.269-14.123-10.441-6.035-3.194-8.765-14.015-5.843-23.157 1.644-5.141 6.2-13.172 18.581-13.172a32.941 32.941 0 0 1 4.325.3c5.517.731 13.323 5.239 17.987 7.934 1.64.947 3.056 1.764 4.184 2.325 5.423 2.7 13.611 6.094 22.083 4.436a6 6 0 1 0 -2.3-11.777 11.549 11.549 0 0 1 -1.5.191 31.213 31.213 0 0 1 7.223-2.86c15.321-4.178 21.745 3.046 24.436 9.84 3.83 9.68 1.29 22.53-5.134 25.939z"/></g></svg>