<svg id="Layer_1" height="512" viewBox="0 0 512 512" width="512" xmlns="http://www.w3.org/2000/svg" data-name="Layer 1"><path d="m172.851 320.356a103.29 103.29 0 0 1 93.149-102.663c-3.292-.318-6.626-.486-10-.486a103.149 103.149 0 0 0 0 206.3c3.374 0 6.708-.168 10-.486a103.29 103.29 0 0 1 -93.149-102.665z" fill="#d4e1f4"/><path d="m143.823 489.73h224.354a46.052 46.052 0 0 0 46-46v-264.93a46.053 46.053 0 0 0 -46-46h-21.616v-35.825h29.805a16.164 16.164 0 0 0 16.146-16.145v-42.415a16.163 16.163 0 0 0 -16.146-16.145h-240.732a16.163 16.163 0 0 0 -16.146 16.145v42.415a16.164 16.164 0 0 0 16.146 16.145h29.805v35.825h-21.616a46.053 46.053 0 0 0 -46 46v264.93a46.052 46.052 0 0 0 46 46zm43.609-455.46h17.568v50.7h-17.568zm-12 50.7h-17.566v-50.7h17.566zm41.568-50.7h17.565v50.7h-17.565zm29.565 0h17.567v50.7h-17.57zm29.567 0h17.565v50.7h-17.568zm29.565 0h17.563v50.7h-17.566zm29.566 0h17.565v50.7h-17.568zm45.252 4.145v42.415a4.151 4.151 0 0 1 -4.146 4.145h-11.544v-50.705h11.541a4.15 4.15 0 0 1 4.146 4.145zm-249.027 42.415v-42.415a4.15 4.15 0 0 1 4.146-4.145h10.232v50.7h-10.232a4.151 4.151 0 0 1 -4.146-4.14zm203.073 16.145v10.108h-157.122v-10.108zm-157.122 22.108h157.122v13.717h-157.122zm-67.616 59.717a34.039 34.039 0 0 1 34-34h224.354a34.039 34.039 0 0 1 34 34v264.93a34.038 34.038 0 0 1 -34 34h-224.354a34.038 34.038 0 0 1 -34-34z" fill="#0635c9"/><g fill="#1ae5be"><path d="m371.149 320.356a115.149 115.149 0 1 0 -115.149 115.149 115.28 115.28 0 0 0 115.149-115.149zm-218.3 0a103.149 103.149 0 1 1 103.151 103.149 103.265 103.265 0 0 1 -103.149-103.149z"/><path d="m257.062 329.174c12.3 15.342 9.888 45.333 9.661 47.85a10.531 10.531 0 0 0 13.95 11.587 10.431 10.431 0 0 0 4.21-2.493c14.517-15 13.584-43.111 12.952-51.37-.085-1.107-.171-2.138-.252-3.1-.4-4.731-.573-7.25.1-8.331 1.12-1.81 6.163-4.589 10.8-7.05 12.826-6.808 18.2-27.618 11.5-44.532s-22.436-23.8-42.121-18.432a49.651 49.651 0 0 0 -14.779 6.676 58.108 58.108 0 0 1 -7.021 3.888c-.444-.254-.915-.526-1.408-.81-6.361-3.674-15.974-9.225-24.567-10.365-10.085-1.338-18.786.356-25.871 5.033a33.119 33.119 0 0 0 -13.182 17.9c-5.209 16.3.322 34.152 12.592 40.649 4.636 2.454 9.676 5.224 10.8 7.036.669 1.081.492 3.6.095 8.327-.081.966-.168 2-.253 3.114-.632 8.258-1.566 36.369 12.954 51.372a10.415 10.415 0 0 0 4.208 2.491 10.688 10.688 0 0 0 3.485.584 10.492 10.492 0 0 0 10.464-12.173c-.23-2.543-2.652-32.626 9.856-47.852a1.3 1.3 0 0 1 1.827.001zm-11.1-7.62c-13.208 16.076-13.3 42.746-12.791 52.87-6.491-9.792-7.92-25.943-6.94-38.761.083-1.081.167-2.086.247-3.024.544-6.471.937-11.146-1.85-15.648-2.506-4.048-6.772-6.765-15.386-11.326-6.93-3.669-10.1-16-6.776-26.39 2.076-6.5 8.223-17.05 26.044-14.687 6.232.827 14.941 5.856 20.144 8.861 1.806 1.043 3.366 1.944 4.6 2.555 5.918 2.943 14.85 6.649 24.03 4.856a6 6 0 1 0 -2.3-11.778 14.817 14.817 0 0 1 -4.106.192 35.606 35.606 0 0 1 10.144-4.393c7.868-2.145 21.945-3.531 27.808 11.273 4.35 10.986 1.392 25.605-5.972 29.514-8.613 4.572-12.877 7.293-15.378 11.333-2.788 4.5-2.395 9.179-1.851 15.652.079.934.163 1.934.245 3.01.981 12.82-.449 28.974-6.941 38.764.5-10.085.431-36.619-12.5-52.758a13.239 13.239 0 0 0 -20.466-.115z"/></g></svg>