<svg id="Layer_1" height="512" viewBox="0 0 512 512" width="512" xmlns="http://www.w3.org/2000/svg" data-name="Layer 1"><g fill="#d4e1f4"><path d="m263.412 293.536v-26.366l-19.955 11v15.366h-.045a28.03 28.03 0 0 0 28 27.951h20a28.03 28.03 0 0 1 -28-27.951z"/><path d="m291.455 27.5h-20a28.029 28.029 0 0 0 -28 27.95h20a28.029 28.029 0 0 1 28-27.95z"/><path d="m263.509 213.276-20.052 7.757v-165.583h20.052z"/></g><path d="m296.819 358.877a28.665 28.665 0 0 1 -28.632 28.634 6 6 0 0 0 -6 6v19.125h-123.07v-160.81a28.462 28.462 0 0 1 7.964-19.815l95.769-76.264-7.475-9.387-96.069 76.5a5.871 5.871 0 0 0 -.543.49 40.4 40.4 0 0 0 -11.646 28.474v160.81h-12.572a16.018 16.018 0 0 0 -16 16v51.866a16.019 16.019 0 0 0 16 16h166.155a16.018 16.018 0 0 0 16-16v-51.864a16.017 16.017 0 0 0 -16-16h-6.511v-13.568a40.694 40.694 0 0 0 34.632-40.191v-36.238h-12zm-12.119 69.759v51.864a4 4 0 0 1 -4 4h-166.155a4 4 0 0 1 -4-4v-51.864a4 4 0 0 1 4-4h166.155a4 4 0 0 1 4 4z" fill="#0635c9"/><path d="m142.208 474.854a19.425 19.425 0 1 0 -18.987-19.42 19.228 19.228 0 0 0 18.987 19.42zm0-26.84a7.433 7.433 0 1 1 -6.987 7.42 7.221 7.221 0 0 1 6.987-7.42z" fill="#0635c9"/><path d="m271.455 333.5h102a40.045 40.045 0 0 0 40-40v-238a40.045 40.045 0 0 0 -40-40h-102a40.045 40.045 0 0 0 -40 40v177.554h12v-165.604h158v186.05h-136.679v12h136.679v28a28.031 28.031 0 0 1 -28 28h-102a28.032 28.032 0 0 1 -28-28v-7.68h-12v7.68a40.045 40.045 0 0 0 40 40zm0-306h102a28.031 28.031 0 0 1 28 27.95h-158a28.029 28.029 0 0 1 28-27.95z" fill="#1ae5be"/><path d="m338.181 299.5a6 6 0 1 0 0-12h-31.451a6 6 0 0 0 0 12z" fill="#1ae5be"/><path d="m370.146 171.317c13.089-6.948 16.124-27.165 10.66-40.963a28.853 28.853 0 0 0 -13.744-15.565c-7.042-3.554-15.455-4.035-25-1.434a45.405 45.405 0 0 0 -13.506 6.1 53.471 53.471 0 0 1 -6.011 3.355l-1.012-.583c-5.787-3.342-14.533-8.393-22.411-9.439-9.256-1.226-17.25.334-23.771 4.639a30.5 30.5 0 0 0 -12.151 16.473c-4.789 14.986.331 31.42 11.658 37.417 2.978 1.576 8.519 4.51 9.535 6.151.532.86.3 3.644 0 7.17-.074.875-.152 1.811-.229 2.819-.575 7.522-1.42 33.135 11.867 46.865a9.982 9.982 0 0 0 4.03 2.4 10.094 10.094 0 0 0 13.366-11.122c-.82-8.133-.8-31.106 8.781-42.771a.6.6 0 0 1 .756 0c10.942 13.655 8.817 40.455 8.606 42.8a10.093 10.093 0 0 0 13.37 11.088 9.972 9.972 0 0 0 4.029-2.4c13.284-13.727 12.439-39.34 11.864-46.862-.076-1-.155-1.937-.228-2.807-.3-3.527-.53-6.313 0-7.173 1.016-1.633 6.561-4.575 9.541-6.158zm-21.5 14.34c.071.843.147 1.746.221 2.717.818 10.688-.223 23.95-5.03 32.76.294-10.422-.572-32.16-11.512-45.812a12.543 12.543 0 0 0 -19.389-.107c-11.176 13.6-12.069 35.453-11.775 45.916-4.807-8.813-5.847-22.071-5.029-32.757.074-.975.151-1.882.221-2.728.5-5.957.864-10.26-1.755-14.491-2.334-3.771-6.244-6.268-14.122-10.44-6.036-3.194-8.765-14.016-5.843-23.158 1.822-5.7 7.22-14.953 22.9-12.872 5.517.731 13.324 5.24 17.988 7.933 1.64.947 3.056 1.765 4.183 2.325 5.422 2.7 13.613 6.1 22.082 4.438a6 6 0 0 0 -2.3-11.777 11.912 11.912 0 0 1 -1.506.191 31.238 31.238 0 0 1 7.224-2.861c15.314-4.177 21.744 3.045 24.435 9.839 3.835 9.684 1.294 22.536-5.128 25.945-15.102 8.02-17.031 11.05-15.864 24.939z" fill="#1ae5be"/><path d="m268.871 206.427a6 6 0 0 0 -7.967-.462l-83.176 65.86a6 6 0 1 0 7.449 9.408l78.987-62.544 2.345 2.344a20 20 0 0 1 0 28.249l-36.735 36.734a6 6 0 0 0 -1.748 3.9l-.464 8.011c-.006.115-.009.231-.009.347a40.449 40.449 0 0 0 4 17.284 41.044 41.044 0 0 1 -2.99 40 5.99 5.99 0 0 0 -1.008 3.328v17.317a6 6 0 1 0 12 0v-15.57a53.127 53.127 0 0 0 2.859-50.182 28.584 28.584 0 0 1 -2.858-12.017l.321-5.548 35.119-35.118a32.012 32.012 0 0 0 0-45.219z" fill="#0635c9"/></svg>