<svg id="Layer_1" height="512" viewBox="0 0 512 512" width="512" xmlns="http://www.w3.org/2000/svg" data-name="Layer 1"><g fill="#d4e1f4"><path d="m303.7 238.228c8.081-5.01 15.059-9.337 28.781-13.078 11.466-3.126 22.045-4.044 31.515-2.879-13.592-8.127-31.444-9.666-52.186-4.011-13.722 3.74-20.7 8.067-28.781 13.078a154.9 154.9 0 0 1 -15.929 8.962 79.484 79.484 0 0 0 21.926 6.276 161.453 161.453 0 0 0 14.674-8.348z"/><path d="m320.151 445.662c-2.83-33.385-11.44-59.265-25.59-76.92a20.234 20.234 0 0 0 -15.9-7.545 20.867 20.867 0 0 0 -4.841.572c.023.028.048.054.07.082 14.15 17.656 22.759 43.535 25.589 76.92a261.052 261.052 0 0 1 .044 44.713c-.012.113-.029.227-.05.339a6.129 6.129 0 0 0 8.277 6.921 7.974 7.974 0 0 0 2.573-1.219 66.036 66.036 0 0 0 10.727-15.088 276.631 276.631 0 0 0 -.899-28.775z"/><path d="m216.022 483.486c-.008-.078-.034-.333-.072-.745-13.574-24.423-16.634-60.264-14.441-88.947.189-2.473.382-4.772.563-6.918 1.16-13.795 1.861-22.122-2.806-29.661-4.491-7.255-13.645-12.96-31.219-22.263-9.688-5.129-17.086-15.42-20.83-28.977a75.478 75.478 0 0 1 .909-42c4.273-13.367 12.132-24.129 22.726-31.123 12.374-8.167 28.011-11.066 46.481-8.616.652.086 1.312.194 1.976.311-7.706-3.475-15.566-6.263-22.647-7.2-18.47-2.45-34.107.45-46.481 8.617-10.595 6.993-18.453 17.755-22.726 31.122a75.469 75.469 0 0 0 -.909 42c3.744 13.557 11.142 23.849 20.83 28.977 17.574 9.3 26.728 15.009 31.219 22.264 4.666 7.538 3.966 15.865 2.806 29.661-.181 2.146-.374 4.444-.563 6.917-2.653 34.69 2.361 79.867 24.39 102.627a7.99 7.99 0 0 0 2.566 1.213 6.13 6.13 0 0 0 8.278-6.92c-.021-.113-.038-.225-.05-.339z"/></g><path d="m151.67 194.5h208.66a6 6 0 0 0 6-6v-30.966a6 6 0 0 0 -12 0v24.966h-196.66v-24.966a6 6 0 0 0 -12 0v30.966a6 6 0 0 0 6 6z" fill="#0635c9"/><path d="m141.329 338.293c15.54 8.228 24.021 13.359 27.25 18.576 2.775 4.482 2.409 10.41 1.317 23.392-.182 2.162-.376 4.48-.567 6.972-1.365 17.846-3.44 78.524 27.132 110.114a16.286 16.286 0 0 0 6.539 3.741 16.674 16.674 0 0 0 5.437.911 16.146 16.146 0 0 0 16.106-18.974 254.176 254.176 0 0 1 .134-42.824c1.883-21.448 7.535-51.161 23.765-70.917a10.344 10.344 0 0 1 15.841.078c15.937 19.885 21.469 49.576 23.3 70.983a257.235 257.235 0 0 1 .1 42.682 16.8 16.8 0 0 0 28.079 14.32c30.572-31.59 28.5-92.269 27.132-110.114-.189-2.48-.383-4.787-.564-6.941-1.091-12.987-1.457-18.918 1.318-23.4 3.224-5.208 11.707-10.35 27.251-18.6 12.851-6.822 22.2-20.669 26.323-38.993a90.71 90.71 0 0 0 -3.838-52.071c-13.553-34.226-45.724-48.1-86.065-37.1-15.1 4.116-23 9.014-31.362 14.2a130.931 130.931 0 0 1 -20.046 10.69c-.071.029-.142.06-.211.091-1.866-1.03-4.082-2.31-6.511-3.713-13.841-7.993-34.757-20.072-52.665-22.446-39.095-5.19-68.984 12.222-79.96 46.565-10.5 32.856.609 69.99 24.765 82.778zm-13.329-79.124c4.352-13.615 19.588-44.6 66.952-38.323 15.548 2.062 35.222 13.425 48.242 20.943 3.966 2.29 7.391 4.268 9.955 5.544 12.37 6.152 30.956 13.914 49.432 10.309a6 6 0 0 0 -2.3-11.779c-8.677 1.692-18.489.365-30.312-4.179 4.783-2.485 8.7-4.915 12.316-7.157 7.93-4.917 14.779-9.164 28.195-12.821 34.355-9.364 60.508 1.547 71.751 29.939a78.429 78.429 0 0 1 3.288 45.019c-3.294 14.638-10.672 25.947-20.242 31.027-18.19 9.655-27.1 15.251-31.828 22.885-4.979 8.041-4.261 16.578-3.073 30.721.178 2.125.37 4.4.557 6.851 2.609 34.121-2.249 78.476-23.691 100.75a9.109 9.109 0 0 1 -1.919.843 4.235 4.235 0 0 1 -5.794-4.772c.031-.164.056-.328.073-.494.34-3.259 7.953-80.309-25.954-122.618a22.344 22.344 0 0 0 -34.479-.19c-34.582 42.1-26.886 119.536-26.542 122.812.018.164.042.328.073.49a4.234 4.234 0 0 1 -5.793 4.773 9.158 9.158 0 0 1 -1.921-.844c-21.442-22.274-26.3-66.629-23.69-100.75.188-2.46.38-4.747.56-6.882 1.189-14.138 1.907-22.671-3.072-30.713-4.733-7.648-13.647-13.235-31.838-22.865-18.94-10.026-27.617-41.404-18.946-68.519z" fill="#0635c9"/><path d="m132.2 95.451 13.6 63.342a6 6 0 0 0 5.866 4.741h208.664a6 6 0 0 0 5.866-4.741l13.6-63.342c.22 0 .438.016.659.016a29.527 29.527 0 1 0 -24.14-12.588l-41.8 32.03-39.743-52.709a29.49 29.49 0 1 0 -38.053-.442l-42.671 53.126-38.719-31.509a29.469 29.469 0 1 0 -23.787 12.092c.221 0 .439-.012.658-.016zm248.258-46.951a17.483 17.483 0 1 1 -3.413 34.626 5.94 5.94 0 0 0 -.694-.2c-.105-.022-.209-.034-.313-.051a17.471 17.471 0 0 1 4.42-34.377zm-124.458-26.5a17.475 17.475 0 0 1 8.167 32.929 5.989 5.989 0 0 0 -1.357.655 17.416 17.416 0 0 1 -13.37.093c-.029-.024-.053-.05-.082-.073a5.971 5.971 0 0 0 -2.331-1.145 17.465 17.465 0 0 1 8.973-32.459zm-61.056 107.35a6.1 6.1 0 0 0 .633-.034 6 6 0 0 0 4.046-2.209l47.738-59.436a29.413 29.413 0 0 0 16.639.181l44.57 59.11a6 6 0 0 0 3.981 2.332 5.8 5.8 0 0 0 .81.056 6 6 0 0 0 3.649-1.238l48.18-36.912a29.4 29.4 0 0 0 2.916 1.547l-12.624 58.789h-198.964l-12.624-58.791q1.233-.572 2.4-1.251l44.864 36.506a6 6 0 0 0 3.786 1.35zm-80.885-63.366a17.483 17.483 0 1 1 29.95 12.235 5.97 5.97 0 0 0 -2.361 1.758 6.152 6.152 0 0 0 -.381.526 17.385 17.385 0 0 1 -5.308 2.377c-.1.016-.206.028-.31.05a5.94 5.94 0 0 0 -.694.2 17.471 17.471 0 0 1 -20.9-17.144z" fill="#1ae5be"/></svg>