<svg id="Layer_1" height="512" viewBox="0 0 512 512" width="512" xmlns="http://www.w3.org/2000/svg" data-name="Layer 1"><path d="m266.2 99.015c11.11-6.889 20.706-12.839 39.574-17.982 15.766-4.3 30.311-5.561 43.332-3.959-18.689-11.175-43.235-13.291-71.755-5.515-18.868 5.143-28.464 11.092-39.574 17.982a212.883 212.883 0 0 1 -21.913 12.319c11.142 4.749 21.078 7.592 30.149 8.629a221.823 221.823 0 0 0 20.187-11.474z" fill="#d4e1f4"/><path d="m289.678 397.147h-28.078a333.642 333.642 0 0 1 -1.147 39.094q-.024.236-.069.468a8.429 8.429 0 0 0 11.382 9.516 10.906 10.906 0 0 0 3.537-1.677 90.725 90.725 0 0 0 14.75-20.748c.155-7.511.118-16.587-.375-26.653z" fill="#d4e1f4"/><path d="m145.641 436.245c-.011-.108-.047-.459-.1-1.025-18.664-33.581-22.871-82.863-19.856-122.3.26-3.4.526-6.561.774-9.512 1.6-18.969 2.559-30.418-3.858-40.784-6.175-9.976-18.762-17.82-42.926-30.612-13.321-7.052-23.493-21.2-28.642-39.843a103.781 103.781 0 0 1 1.251-57.747c5.875-18.38 16.68-33.178 31.248-42.794 17.014-11.228 38.516-15.218 63.912-11.85.9.119 1.8.267 2.717.428-10.6-4.778-21.4-8.611-31.14-9.9-25.4-3.369-46.9.618-63.912 11.848-14.568 9.616-25.373 24.414-31.248 42.793a103.785 103.785 0 0 0 -1.251 57.748c5.149 18.64 15.321 32.791 28.642 39.843 24.164 12.79 36.748 20.634 42.926 30.61 6.417 10.365 5.454 21.815 3.858 40.784-.248 2.951-.514 6.111-.774 9.511-3.647 47.7 3.248 109.817 33.536 141.113a11 11 0 0 0 3.529 1.668 8.428 8.428 0 0 0 11.382-9.515c-.029-.154-.051-.309-.068-.464z" fill="#d4e1f4"/><path d="m268.719 455.572a20.652 20.652 0 0 0 6.718-1.127c3.682-1.267 6.32-2.758 8.062-4.558 13.2-13.638 23.114-32.89 29.473-57.222a6 6 0 1 0 -11.61-3.034c-5.831 22.309-14.742 39.775-26.466 51.891a10.907 10.907 0 0 1 -3.366 1.577 7.965 7.965 0 0 1 -10.771-8.991c.031-.164.055-.329.073-.5a338.818 338.818 0 0 0 1.017-42.67 6 6 0 0 0 -11.993.409 337.828 337.828 0 0 1 -.938 40.8 19.848 19.848 0 0 0 19.8 23.416z" fill="#0635c9"/><path d="m48.011 232.384c21.558 11.416 33.359 18.589 38.03 26.136 4.328 6.991 3.543 16.322 2.118 33.263-.247 2.947-.513 6.1-.772 9.5-1.845 24.126-4.671 106.143 36.423 148.6 1.742 1.8 4.378 3.291 8.06 4.558a20.593 20.593 0 0 0 6.718 1.126 20.02 20.02 0 0 0 18.441-11.845 20.223 20.223 0 0 0 1.361-11.571c-.5-5.239-9.439-105.146 33.1-156.926a16.018 16.018 0 0 1 12.459-5.786 16.575 16.575 0 0 1 7.009 1.561 6 6 0 0 0 5.1-10.861 28.658 28.658 0 0 0 -12.113-2.695 27.973 27.973 0 0 0 -21.731 10.168c-46.627 56.756-36.208 161.572-35.741 166.006.016.164.041.327.071.489a8.28 8.28 0 0 1 -.528 4.847 8.183 8.183 0 0 1 -10.244 4.146 11.214 11.214 0 0 1 -3.344-1.558c-29.885-30.878-36.683-92.226-33.08-139.342.256-3.364.52-6.491.765-9.41 3.313-39.388 1.875-45.4-46.491-71.01-13.09-6.93-23.089-20.849-28.156-39.194a102.318 102.318 0 0 1 1.234-56.929c6.109-19.108 27.489-62.594 93.756-53.811 21.651 2.872 48.731 18.51 66.651 28.859 5.381 3.108 10.029 5.792 13.467 7.5 16.6 8.254 41.508 18.672 66.076 13.882a6 6 0 1 0 -2.3-11.778c-13.348 2.607-28.522.16-47.089-7.642a214.717 214.717 0 0 0 20.959-11.837c10.968-6.8 20.442-12.677 39.06-17.752 22.164-6.041 41.748-6.2 58.21-.473 14.3 4.975 25.931 14.233 34.573 27.518 10.274 15.79 15.558 36.269 14.88 57.663-.65 20.537-6.9 39.54-17.161 52.136a6 6 0 0 0 9.307 7.577c25.2-30.958 26.594-87.707 3.033-123.92-12.584-19.341-43.085-49.227-106-32.078-20.3 5.534-30.952 12.138-42.228 19.13-7.74 4.8-15.742 9.761-27.669 14.749a10.557 10.557 0 0 0 -1.165.584c-2.771-1.5-6.169-3.467-9.951-5.651-18.74-10.822-47.061-27.178-71.074-30.363-52.214-6.923-92.129 16.272-106.763 62.05-14.025 43.885.661 93.4 32.739 110.384z" fill="#0635c9"/><g fill="#1ae5be"><path d="m466 207.71h-220.942a36.04 36.04 0 0 0 -36 36v117.437a36.04 36.04 0 0 0 36 36h220.942a36.04 36.04 0 0 0 36-36v-117.437a36.04 36.04 0 0 0 -36-36zm24 153.437a24.027 24.027 0 0 1 -24 24h-220.942a24.027 24.027 0 0 1 -24-24v-97.111h14.38a6 6 0 0 0 0-12h-14.38v-8.326a24.027 24.027 0 0 1 24-24h220.942a24.027 24.027 0 0 1 24 24z"/><path d="m448.688 252.036h-180.973a6 6 0 0 0 0 12h180.973a6 6 0 0 0 0-12z"/><path d="m249.479 264.036h3.964a6 6 0 0 0 0-12h-3.964a6 6 0 1 0 0 12z"/><path d="m292.875 317.219h-43.851a16.018 16.018 0 0 0 -16 16v19.906a16.019 16.019 0 0 0 16 16h43.851a16.019 16.019 0 0 0 16-16v-19.906a16.018 16.018 0 0 0 -16-16zm4 16v6.746h-9.55v-10.746h5.55a4 4 0 0 1 4 4zm-32.2 11.164h10.646v12.742h-10.642zm-15.655-15.164h26.3v3.164h-16.641a6 6 0 0 0 -6 6v1.436h-7.655v-6.6a4 4 0 0 1 4-4zm-4 23.906v-1.306h7.655v5.306h-3.655a4 4 0 0 1 -3.996-4zm47.851 4h-5.55v-5.16h9.55v1.16a4 4 0 0 1 -3.996 4z"/><path d="m463.648 339.965h-2.234a6 6 0 0 0 0 12h2.234a6 6 0 0 0 0-12z"/><path d="m441.459 339.965h-12.666a6 6 0 0 0 0 12h12.666a6 6 0 0 0 0-12z"/><path d="m408.275 339.965h-50.743a6 6 0 0 0 0 12h50.743a6 6 0 0 0 0-12z"/></g></svg>