<svg id="Layer_1" height="512" viewBox="0 0 512 512" width="512" xmlns="http://www.w3.org/2000/svg" data-name="Layer 1"><path d="m265.054 372.637a114.17 114.17 0 0 1 99-113.012 114 114 0 1 0 0 226.024 114.169 114.169 0 0 1 -99-113.012z" fill="#d4e1f4"/><g fill="#0635c9"><path d="m423.522 175.749-37.041-3.571a155.8 155.8 0 0 0 -18.864-44.8l23.594-28.49a6 6 0 0 0 -.352-8.043l-38.846-39.345a6 6 0 0 0 -8.1-.405l-28.529 23.631a159.469 159.469 0 0 0 -44.756-18.9l-3.57-37.042a6 6 0 0 0 -5.973-5.425h-55.78a6 6 0 0 0 -5.972 5.425l-3.57 37.04a155.819 155.819 0 0 0 -44.8 18.863l-28.489-23.587a6 6 0 0 0 -8.069.379l-39.345 39.343a6 6 0 0 0 -.378 8.069l23.629 28.532a159.418 159.418 0 0 0 -18.9 44.755l-37.043 3.571a6 6 0 0 0 -5.425 5.972v55.779a6 6 0 0 0 5.425 5.973l37.041 3.57a155.776 155.776 0 0 0 18.863 44.8l-23.59 28.49a6 6 0 0 0 .378 8.069l39.345 39.345a6 6 0 0 0 8.07.378l28.532-23.625a159.474 159.474 0 0 0 44.756 18.9l3.57 37.043a6 6 0 0 0 5.972 5.425h26.851a6 6 0 1 0 0-12h-21.4l-3.462-35.912a6 6 0 0 0 -4.7-5.289 147.623 147.623 0 0 1 -48.815-20.594 6 6 0 0 0 -7.08.421l-27.672 22.906-31.619-31.62 22.912-27.668a6 6 0 0 0 .371-7.155 143.252 143.252 0 0 1 -20.544-48.74 6 6 0 0 0 -5.288-4.7l-35.913-3.461v-44.886l35.913-3.461a6 6 0 0 0 5.288-4.709 147.6 147.6 0 0 1 20.593-48.813 6 6 0 0 0 -.42-7.08l-22.912-27.663 31.62-31.619 27.672 22.911a6 6 0 0 0 7.155.371 143.239 143.239 0 0 1 48.739-20.543 6 6 0 0 0 4.7-5.289l3.462-35.912h44.881l3.463 35.912a6 6 0 0 0 4.705 5.289 147.54 147.54 0 0 1 48.814 20.593 6 6 0 0 0 7.08-.421l27.64-22.89 31.171 31.571-22.934 27.694a6 6 0 0 0 -.371 7.155 143.269 143.269 0 0 1 20.54 48.734 6 6 0 0 0 5.289 4.705l35.912 3.461v44.888l-35.421 3.456a6 6 0 0 0 -5.282 4.7 138.883 138.883 0 0 1 -3.836 14.087 6 6 0 1 0 11.4 3.756c1.2-3.627 2.259-7.319 3.176-11.021l36.55-3.567a6 6 0 0 0 5.417-5.972v-55.78a6 6 0 0 0 -5.428-5.964z"/><path d="m233.2 95.01a114.6 114.6 0 1 0 0 229.2c3.109 0 6.251-.126 9.337-.375a6 6 0 1 0 -.964-11.961c-2.767.223-5.584.336-8.373.336a102.516 102.516 0 1 1 93.76-60.868 6 6 0 1 0 10.96 4.887 114.657 114.657 0 0 0 -104.72-161.219z"/><path d="m273.755 177.066-53.684 52.412-27.933-27.27a6 6 0 1 0 -8.383 8.585l32.124 31.364a6 6 0 0 0 8.383 0l57.876-56.505a6 6 0 0 0 -8.383-8.586z"/></g><path d="m349.054 246.637a126 126 0 1 0 126 126 126.143 126.143 0 0 0 -126-126zm0 240a114 114 0 1 1 114-114 114.129 114.129 0 0 1 -114 114z" fill="#1ae5be"/><path d="m374.432 296.4a56.358 56.358 0 0 0 -16.76 7.574 66.114 66.114 0 0 1 -8.6 4.716c-.625-.356-1.3-.749-2.021-1.162-7.254-4.19-18.215-10.52-27.919-11.807-19.855-2.636-35.829 5.761-42.73 22.453-6.976 16.875-2.861 37.409 9.369 46.747a25.2 25.2 0 0 0 3.472 2.226c6.935 3.672 11.488 6.359 12.759 8.413.921 1.488.728 4.336.241 10.125-.093 1.109-.193 2.3-.29 3.575-.719 9.4-1.788 41.4 14.646 58.382a11.086 11.086 0 0 0 4.486 2.64 11.209 11.209 0 0 0 14.854-12.37 126.055 126.055 0 0 1 .072-21.071c.916-10.551 3.649-25.126 11.46-34.634a2.331 2.331 0 0 1 3.5.01c14.4 17.97 11.554 52.926 11.3 55.7a11.284 11.284 0 0 0 14.859 12.363 11.093 11.093 0 0 0 4.492-2.643c16.432-16.979 15.363-48.977 14.645-58.38-.1-1.272-.2-2.455-.289-3.559-.487-5.791-.68-8.641.241-10.128 1.269-2.051 5.824-4.746 12.762-8.428a24.075 24.075 0 0 0 3.474-2.253c12.822-9.971 16.5-33.857 7.875-51.118-3.954-7.908-16.34-25.43-45.898-17.371zm30.656 59.019a11.854 11.854 0 0 1 -1.732 1.125c-19.387 10.292-20.695 13.993-19.336 30.162.09 1.076.187 2.229.282 3.468 1.225 16.025-.816 36.557-9.969 47.627.61-7.843 2.286-42.778-13.992-63.088a14.326 14.326 0 0 0 -22.138-.125c-16.613 20.223-14.93 55.334-14.315 63.213-9.152-11.074-11.193-31.6-9.968-47.627.1-1.245.193-2.4.284-3.483 1.361-16.18.052-19.881-19.344-30.149a13.108 13.108 0 0 1 -1.8-1.159c-7.848-5.992-10.394-20.932-5.561-32.624 2.8-6.773 10.424-17.75 30.062-15.141 7.343.973 17.455 6.812 23.5 10.3 2.064 1.192 3.847 2.221 5.235 2.912 6.689 3.327 16.77 7.519 27.064 5.506a6 6 0 0 0 -2.3-11.777 19.682 19.682 0 0 1 -7.492-.117l.436-.271a44.454 44.454 0 0 1 13.59-6.194c19.224-5.241 28.017 3.176 32.009 11.161 6.057 12.13 3.866 29.762-4.515 36.278z" fill="#1ae5be"/></svg>