<svg id="Layer_1" height="512" viewBox="0 0 512 512" width="512" xmlns="http://www.w3.org/2000/svg" data-name="Layer 1"><g fill="#d4e1f4"><path d="m294.442 40.183c6.4-3.966 11.922-7.392 22.785-10.353a65 65 0 0 1 24.949-2.28c-10.761-6.433-24.893-7.652-41.314-3.175-10.862 2.961-16.388 6.387-22.785 10.353a122.423 122.423 0 0 1 -12.616 7.093 62.986 62.986 0 0 0 17.358 4.969 127.921 127.921 0 0 0 11.623-6.607z"/><path d="m307.462 204.4c-2.24-26.429-9.056-46.917-20.258-60.894a16.018 16.018 0 0 0 -12.588-5.974 16.481 16.481 0 0 0 -3.832.454c.018.022.037.042.055.065 11.2 13.977 18.018 34.465 20.258 60.894a206.647 206.647 0 0 1 .034 35.4c-.009.09-.022.18-.039.269a4.853 4.853 0 0 0 6.553 5.479 6.245 6.245 0 0 0 2.036-.966 52.248 52.248 0 0 0 8.493-11.944 218.879 218.879 0 0 0 -.712-22.783z"/><path d="m225.027 234.346c-.007-.062-.027-.264-.057-.59-10.747-19.335-13.169-47.709-11.433-70.417.15-1.957.3-3.777.446-5.476.919-10.922 1.473-17.514-2.221-23.482-3.556-5.743-10.8-10.26-24.715-17.625-7.67-4.06-13.526-12.207-16.491-22.94a59.746 59.746 0 0 1 .72-33.248c3.383-10.583 9.6-19.1 17.991-24.639 9.8-6.466 22.176-8.761 36.8-6.821.516.068 1.039.153 1.564.246-6.1-2.751-12.323-4.958-17.929-5.7-14.622-1.94-27 .355-36.8 6.821-8.388 5.536-14.609 14.057-17.992 24.639a59.755 59.755 0 0 0 -.72 33.248c2.965 10.733 8.821 18.88 16.491 22.94 13.913 7.365 21.16 11.882 24.715 17.625 3.694 5.968 3.14 12.56 2.221 23.482-.143 1.7-.3 3.519-.445 5.476-2.1 27.463 1.869 63.228 19.308 81.247a6.348 6.348 0 0 0 2.032.96 4.852 4.852 0 0 0 6.553-5.478q-.023-.134-.038-.268z"/></g><path d="m139.6 433.427v57.573a6 6 0 0 0 9.307 5.006l91.039-60.152a6 6 0 0 0 2.693-5.006v-67.089a6 6 0 0 0 -9.647-4.765l-9.792 7.494a32.225 32.225 0 0 1 -.628-4.712l-.755-13c-.009-.164-.026-.328-.048-.491a70.743 70.743 0 0 0 -46.977-57.143l-4.228-1.473a40.675 40.675 0 0 1 -15.306-9.6l-20.423-20.423-6.979-23.617a32.672 32.672 0 0 0 -27.73-23.927l-1.026-3.411c-.014-.047-.03-.1-.045-.144-3.318-10.139-14.212-16.721-25.422-16.217l-.195-.652a29.5 29.5 0 0 0 -35.424-20.211 6 6 0 0 0 -4.454 6.919l22.516 121.161a6.159 6.159 0 0 0 .215.824 77.658 77.658 0 0 0 29.148 38.723l49.17 33.878c.106.073.214.142.325.208a15.782 15.782 0 0 1 7.066 9.138l8.232 36.536a5.954 5.954 0 0 0 1.254 2.511l-9.535 7.3a6 6 0 0 0 -2.351 4.762zm91.039-5.806-79.039 52.223v-43.453l79.039-60.486zm-114.36-188.421c.014.053.029.106.044.158l1.884 6.373a34.965 34.965 0 0 0 -8.885-2.935l-5.208-17.379a20.633 20.633 0 0 1 12.165 13.783zm-28.646-26.982 9.142 30.5a35.04 35.04 0 0 0 -7.414 2.152l-.2-.642-11.883-39.722c4.753.771 9.006 3.694 10.355 7.712zm66.035 167.292c-.024-.105-.051-.209-.08-.314a27.729 27.729 0 0 0 -12.319-16.209l-49.007-33.764a65.577 65.577 0 0 1 -24.467-32.3l-21.234-114.277a17.523 17.523 0 0 1 15.383 12.47l15.739 52.61 1.217 3.914c-.282.264-.565.523-.839.8a6 6 0 0 0 .2 8.672l24.634 22.5a159.107 159.107 0 0 1 19.511 21.4 6 6 0 0 0 9.569-7.242 171.074 171.074 0 0 0 -20.987-23.018l-19.357-17.674a23.1 23.1 0 0 1 27.511 3.844l27.629 27.63a52.729 52.729 0 0 0 19.846 12.448l4.229 1.473a58.784 58.784 0 0 1 39 47.25l.74 12.749a43.96 43.96 0 0 0 2.351 11.865l-51.549 39.449z" fill="#0635c9"/><path d="m473.983 171.467a29.5 29.5 0 0 0 -35.423 20.209l-.2.654c-11.209-.5-22.1 6.078-25.422 16.217-.015.048-.031.1-.045.144l-1.021 3.409a32.672 32.672 0 0 0 -27.73 23.927l-6.978 23.616-20.425 20.424a40.678 40.678 0 0 1 -15.305 9.6l-4.227 1.471a70.745 70.745 0 0 0 -46.978 57.144c-.022.163-.039.327-.048.491l-.755 13a32.194 32.194 0 0 1 -.628 4.711l-9.792-7.494a6 6 0 0 0 -9.647 4.765v67.089a6 6 0 0 0 2.693 5.006l91.048 60.156a6 6 0 0 0 9.3-5.006v-57.573a6 6 0 0 0 -2.353-4.765l-9.535-7.3a5.954 5.954 0 0 0 1.254-2.511l8.234-36.533a15.782 15.782 0 0 1 7.066-9.138c.111-.066.219-.135.325-.208l49.183-33.888a77.64 77.64 0 0 0 29.135-38.713 6.159 6.159 0 0 0 .215-.824l22.513-121.161a6 6 0 0 0 -4.454-6.919zm-49.616 40.751c1.348-4.015 5.6-6.942 10.355-7.713l-11.868 39.673-.214.695a35.054 35.054 0 0 0 -7.414-2.151zm-28.646 26.982a20.635 20.635 0 0 1 12.165-13.783l-5.208 17.379a34.968 34.968 0 0 0 -8.885 2.936l1.884-6.374c.015-.058.03-.109.044-.158zm-35.321 240.644-79.039-52.223v-51.716l79.039 60.486zm83.8-182.917a65.563 65.563 0 0 1 -24.453 32.286l-49.021 33.774a27.729 27.729 0 0 0 -12.314 16.213c-.029.1-.056.209-.08.314l-7.724 34.275-51.549-39.448a43.968 43.968 0 0 0 2.351-11.865l.74-12.75a58.786 58.786 0 0 1 39-47.251l4.232-1.475a52.74 52.74 0 0 0 19.847-12.448l27.629-27.629a23.09 23.09 0 0 1 27.511-3.845l-19.348 17.674a171.074 171.074 0 0 0 -20.987 23.018 6 6 0 0 0 9.569 7.242 159.107 159.107 0 0 1 19.511-21.4l24.634-22.5a6 6 0 0 0 .2-8.672c-.274-.275-.557-.534-.839-.8l1.229-3.969 15.723-52.557a17.519 17.519 0 0 1 15.382-12.468z" fill="#0635c9"/><path d="m186 135.564c1.975 3.19 1.689 7.719.853 17.66-.145 1.708-.3 3.537-.449 5.505-.869 11.359-1.14 28.684 2.5 46.714 3.582 17.75 10.055 31.562 19.239 41.051a14.036 14.036 0 0 0 5.652 3.267 14.39 14.39 0 0 0 4.7.786 13.992 13.992 0 0 0 13.959-16.389c-.35-3.734-5.131-59.836 18.558-88.671a6.723 6.723 0 0 1 5.234-2.414 6.791 6.791 0 0 1 5.277 2.463c23.259 29.023 18.521 84.9 18.175 88.624a14.057 14.057 0 0 0 18.652 15.6 14.037 14.037 0 0 0 5.653-3.267c9.184-9.489 15.656-23.3 19.238-41.051 3.639-18.029 3.368-35.354 2.5-46.714-.149-1.958-.3-3.78-.445-5.48-.836-9.945-1.122-14.477.853-17.666 2.375-3.837 9.21-7.953 20.992-14.207a33.87 33.87 0 0 0 4.895-3.175c18.7-14.542 23.964-49.592 11.26-75.007-12.158-24.326-36.65-33.5-67.194-25.176-12.079 3.293-18.675 7.382-25.053 11.337a102.907 102.907 0 0 1 -15.222 8.166c-1.341-.75-2.891-1.646-4.572-2.616-10.994-6.349-27.609-15.945-41.973-17.849-29.593-3.926-52.408 8.006-62.628 32.73-10.079 24.38-4.045 55.082 13.449 68.441a35.544 35.544 0 0 0 4.914 3.152c11.767 6.237 18.6 10.344 20.983 14.186zm-18.623-26.875c-13.224-10.1-17.639-34.972-9.642-54.319 4.691-11.345 17.427-29.735 49.96-25.419 12 1.592 27.377 10.471 37.551 16.346 3.145 1.816 5.861 3.384 7.917 4.407 9.917 4.931 24.823 11.153 39.77 8.234a6 6 0 1 0 -2.3-11.777c-5.95 1.159-12.634.439-20.545-2.27 2.706-1.5 5.062-2.965 7.275-4.337 6.166-3.823 11.492-7.125 21.886-9.959 24.871-6.779 43.805-.045 53.305 18.964 10.178 20.364 6.417 49.043-7.892 60.168a21.77 21.77 0 0 1 -3.156 2.049c-14.546 7.722-21.69 12.224-25.569 18.49-4.145 6.7-3.534 13.972-2.608 24.987.141 1.673.291 3.465.439 5.392 2.03 26.554-1.695 61.01-18.2 78.3a7.8 7.8 0 0 1 -1.13.468 2.07 2.07 0 0 1 -2.9-2.321c.032-.164.056-.329.074-.495.27-2.59 6.318-63.818-20.729-97.567a18.879 18.879 0 0 0 -29.146-.161c-27.59 33.583-21.476 95.129-21.2 97.732.017.165.041.329.073.491a2.071 2.071 0 0 1 -2.9 2.322 7.877 7.877 0 0 1 -1.13-.469c-16.506-17.294-20.231-51.749-18.2-78.3.149-1.937.3-3.736.441-5.416 2.008-23.885.414-28.314-28.185-43.455a23.494 23.494 0 0 1 -3.263-2.085z" fill="#1ae5be"/></svg>