<svg id="Layer_1" height="512" viewBox="0 0 512 512" width="512" xmlns="http://www.w3.org/2000/svg" data-name="Layer 1"><path d="m305.078 466.276a116.016 116.016 0 0 1 -45.9-92.587c0-3.363.145-6.757.431-10.087a116.315 116.315 0 0 1 105.905-105.791q-4.982-.424-10.028-.432a116.323 116.323 0 0 0 -115.879 106.221c-.286 3.33-.431 6.724-.431 10.087a116.016 116.016 0 0 0 45.9 92.587 115.254 115.254 0 0 0 70.41 23.726c3.355 0 6.675-.151 9.959-.431a115.034 115.034 0 0 1 -60.367-23.293z" fill="#d4e1f4"/><path d="m211.012 440.107a185.707 185.707 0 0 0 39.941-4.319l-2.585-11.718a173.688 173.688 0 0 1 -37.356 4.037c-94.184 0-170.812-76.625-170.812-170.807 0-45.156 17.751-88.09 49.946-120.853a169.619 169.619 0 0 1 114.866-49.847v170.7a6 6 0 0 0 6 6h106.354v-12h-100.354v-170.8a6 6 0 0 0 -6-6 181.7 181.7 0 0 0 -129.386 53.5c-34.45 35.056-53.426 80.976-53.426 129.3 0 100.8 82.011 182.807 182.812 182.807z" fill="#0635c9"/><path d="m276.614 198.8h176.8a6 6 0 0 0 6-6c0-48.325-18.974-94.245-53.427-129.3l-.074-.073c-35.054-34.453-80.975-53.427-129.299-53.427a6 6 0 0 0 -6 6v176.8a6 6 0 0 0 6 6zm6-82.131 74.475-74.469a175.839 175.839 0 0 1 35.731 25.357l-110.206 110.206zm85.986 70.131 63.843-63.844a169.927 169.927 0 0 1 14.871 63.844zm58.228-75.2-75.2 75.2h-61.09l110.791-110.781a175.978 175.978 0 0 1 25.503 35.581zm-81.139-74.972-63.075 63.072v-77.6a169.919 169.919 0 0 1 63.075 14.528z" fill="#0635c9"/><g fill="#1ae5be"><path d="m399.968 253.3a128.358 128.358 0 0 0 -172.317 109.276c-.315 3.67-.475 7.409-.475 11.113a128.01 128.01 0 0 0 50.631 102.133 127.155 127.155 0 0 0 77.679 26.178 128.333 128.333 0 0 0 44.482-248.7zm-44.482 236.7a115.254 115.254 0 0 1 -70.408-23.724 116.016 116.016 0 0 1 -45.9-92.587c0-3.363.145-6.757.431-10.087a116.314 116.314 0 1 1 115.877 126.398z"/><path d="m380.864 297.449a56.368 56.368 0 0 0 -16.758 7.574 66.231 66.231 0 0 1 -8.6 4.715c-.625-.356-1.3-.747-2.018-1.16-7.254-4.19-18.217-10.52-27.921-11.807-21.448-2.848-37.872 6.781-43.935 25.749-5.764 18.034.536 38.524 14.045 45.676 6.935 3.672 11.489 6.36 12.76 8.413.921 1.488.728 4.336.241 10.125-.093 1.109-.193 2.3-.291 3.575-.719 9.4-1.787 41.4 14.645 58.379a11.077 11.077 0 0 0 4.488 2.643 11.208 11.208 0 0 0 14.854-12.369 126.124 126.124 0 0 1 .071-21.071c.917-10.552 3.649-25.126 11.461-34.636a2.333 2.333 0 0 1 3.5.012c14.4 17.968 11.554 52.921 11.3 55.7a11.284 11.284 0 0 0 14.852 12.363 11.083 11.083 0 0 0 4.491-2.643c16.432-16.979 15.364-48.977 14.645-58.38-.1-1.272-.2-2.455-.289-3.559-.487-5.791-.68-8.641.241-10.128 1.269-2.051 5.825-4.746 12.764-8.429 14.371-7.628 20.358-31.031 12.814-50.084-7.508-18.971-25.215-26.691-47.36-20.658zm28.925 60.145c-19.388 10.291-20.7 13.991-19.337 30.161.09 1.076.188 2.229.282 3.469 1.225 16.023-.815 36.553-9.968 47.626.609-7.848 2.284-42.779-13.992-63.087a14.328 14.328 0 0 0 -22.139-.125c-16.613 20.221-14.929 55.333-14.314 63.212-9.153-11.074-11.193-31.6-9.968-47.626.095-1.245.193-2.4.284-3.484 1.361-16.18.052-19.881-19.345-30.149-8.47-4.485-12.238-18.872-8.228-31.418 2.475-7.742 9.784-20.306 30.926-17.507 7.343.974 17.456 6.814 23.5 10.3 2.063 1.192 3.845 2.22 5.233 2.911 6.688 3.327 16.769 7.518 27.063 5.506a6 6 0 1 0 -2.3-11.777 19.662 19.662 0 0 1 -7.492-.117l.437-.271a44.454 44.454 0 0 1 13.59-6.195c21.759-5.93 30.048 5.913 33.052 13.5 5.247 13.257 1.707 30.298-7.284 35.071z"/></g></svg>