<svg id="Layer_1" height="512" viewBox="0 0 512 512" width="512" xmlns="http://www.w3.org/2000/svg" data-name="Layer 1"><path d="m91.782 470.229a100.545 100.545 0 0 1 -39.782-80.242c0-2.913.126-5.854.373-8.743a100.8 100.8 0 0 1 85.432-90.929 101.6 101.6 0 0 0 -15-1.129 100.813 100.813 0 0 0 -100.432 92.058c-.247 2.889-.373 5.83-.373 8.743a100.545 100.545 0 0 0 39.782 80.242 99.876 99.876 0 0 0 61.018 20.561 101.187 101.187 0 0 0 15-1.117 99.672 99.672 0 0 1 -46.018-19.444z" fill="#d4e1f4"/><g fill="#0635c9"><path d="m477.05 31.95h-126.82a40.1 40.1 0 0 0 -72.3 0h-126.821a24.979 24.979 0 0 0 -24.95 24.95v226.373a6 6 0 0 0 12 0v-226.373a12.966 12.966 0 0 1 12.95-12.95h123.231a40.323 40.323 0 0 0 -.37 5.37v11.056h-56.535a6 6 0 0 0 -6 6v17.764h-25.852a15.492 15.492 0 0 0 -15.475 15.474v197.531a6 6 0 0 0 12 0v-197.531a3.478 3.478 0 0 1 3.475-3.474h25.852v15.715a6 6 0 0 0 6 6h193.29a6 6 0 0 0 6-6v-15.715h25.851a3.478 3.478 0 0 1 3.475 3.474v257.759h-30.305a24.977 24.977 0 0 0 -24.949 24.95v29.5h-164.991v12h167.322a17.67 17.67 0 0 0 2.285-.166 5.953 5.953 0 0 0 5.87-1.86 17.4 17.4 0 0 0 4.127-3.063l47.552-47.551a17.25 17.25 0 0 0 5.089-12.283v-259.286a15.492 15.492 0 0 0 -15.475-15.474h-25.851v-17.764a6 6 0 0 0 -6-6h-56.536v-11.056a40.156 40.156 0 0 0 -.37-5.37h123.231a12.966 12.966 0 0 1 12.95 12.95v394.162a12.965 12.965 0 0 1 -12.95 12.949h-283.95v12h283.95a24.978 24.978 0 0 0 24.95-24.949v-394.162a24.978 24.978 0 0 0 -24.95-24.95zm-74.25 372.428v-22.055a12.964 12.964 0 0 1 12.949-12.95h22.051zm1.928-332v33.479h-181.293v-33.481h56.535a6 6 0 0 0 6-6v-17.056a28.11 28.11 0 1 1 56.219 0v17.056a6 6 0 0 0 6 6z"/><path d="m410.725 177.719a6 6 0 0 0 0-12h-7.125a6 6 0 0 0 0 12z"/><path d="m381.415 165.719h-104.429a6 6 0 0 0 0 12h104.429a6 6 0 0 0 0-12z"/><path d="m217.435 177.719h36.919a6 6 0 0 0 0-12h-36.919a6 6 0 0 0 0 12z"/><path d="m384.763 222.808a6 6 0 0 0 6 6h19.962a6 6 0 0 0 0-12h-19.962a6 6 0 0 0 -6 6z"/><path d="m375.148 222.808a6 6 0 0 0 -6-6h-27.2a6 6 0 1 0 0 12h27.2a6 6 0 0 0 6-6z"/><path d="m217.435 228.808h105.514a6 6 0 1 0 0-12h-105.514a6 6 0 0 0 0 12z"/><path d="m410.725 271.08h-42.425a6 6 0 0 0 0 12h42.423a6 6 0 0 0 0-12z"/><path d="m217.435 283.08h129.253a6 6 0 0 0 0-12h-129.253a6 6 0 0 0 0 12z"/><path d="m410.725 321.242h-119.679a6 6 0 0 0 0 12h119.679a6 6 0 0 0 0-12z"/><path d="m236.854 321.242a6 6 0 1 0 0 12h32.577a6 6 0 0 0 0-12z"/></g><path d="m161.907 284.15a112.845 112.845 0 0 0 -151.49 96.068c-.276 3.228-.417 6.515-.417 9.769a112.547 112.547 0 0 0 44.511 89.789 111.787 111.787 0 0 0 68.289 23.014 112.82 112.82 0 0 0 39.105-218.64zm-39.107 206.64a99.876 99.876 0 0 1 -61.02-20.561 100.545 100.545 0 0 1 -39.78-80.242c0-2.913.126-5.854.373-8.743a100.805 100.805 0 1 1 100.427 109.546z" fill="#1ae5be"/><path d="m147.336 315.95a54.784 54.784 0 0 0 -16.282 7.359 64.233 64.233 0 0 1 -8.223 4.517c-.581-.331-1.209-.694-1.87-1.076-7.04-4.065-17.679-10.21-27.117-11.462-19.33-2.562-34.873 5.612-41.591 21.865-6.789 16.422-2.776 36.41 9.137 45.507a24.459 24.459 0 0 0 3.386 2.172c6.692 3.542 11.081 6.13 12.29 8.083.861 1.391.674 4.127.206 9.692-.09 1.076-.187 2.227-.282 3.465-.7 9.129-1.735 40.2 14.24 56.7a10.95 10.95 0 0 0 4.421 2.606 11.244 11.244 0 0 0 3.66.612 11 11 0 0 0 10.977-12.79c-.25-2.735-3.012-36.614 11.129-53.827a2.164 2.164 0 0 1 3.1.009c13.9 17.341 11.154 51.105 10.907 53.82a11.046 11.046 0 0 0 14.638 12.176 10.937 10.937 0 0 0 4.421-2.607c15.973-16.5 14.937-47.57 14.239-56.7-.094-1.233-.191-2.379-.281-3.449-.467-5.568-.654-8.307.206-9.7 1.208-1.951 5.6-4.545 12.294-8.1a23.524 23.524 0 0 0 3.39-2.2c12.486-9.708 16.076-32.956 7.683-49.75-3.848-7.694-15.906-24.765-44.678-16.922zm29.635 57.2a11.424 11.424 0 0 1 -1.653 1.074c-18.882 10.023-20.156 13.63-18.832 29.4.088 1.042.182 2.158.274 3.359 1.167 15.264-.727 34.754-9.238 45.537.616-8.653 1.788-41.4-13.639-60.648a14.067 14.067 0 0 0 -21.737-.121c-15.746 19.172-14.575 52.083-13.955 60.773-8.511-10.785-10.4-30.272-9.236-45.537.093-1.206.187-2.327.274-3.374 1.328-15.778.053-19.385-18.84-29.387a12.475 12.475 0 0 1 -1.719-1.105c-7.54-5.758-9.981-20.129-5.328-31.383 2.692-6.51 10.028-17.06 28.924-14.553 7.077.938 16.853 6.584 22.694 9.957 2 1.156 3.729 2.154 5.079 2.825 6.5 3.234 16.308 7.313 26.336 5.35a6 6 0 0 0 -2.3-11.777 18.487 18.487 0 0 1 -6.708-.027l.01-.006a42.906 42.906 0 0 1 13.114-5.979c18.5-5.045 26.956 3.044 30.79 10.716 5.84 11.682 3.743 28.649-4.31 34.911z" fill="#1ae5be"/></svg>