<svg id="Layer_1" height="512" viewBox="0 0 512 512" width="512" xmlns="http://www.w3.org/2000/svg" data-name="Layer 1"><path d="m49.5 251a89.14 89.14 0 0 1 74-87.729 89 89 0 1 0 0 175.458 89.14 89.14 0 0 1 -74-87.729z" fill="#d4e1f4"/><g fill="#0635c9"><path d="m406.787 109.44q-1.408-.051-2.829-.066a109.937 109.937 0 0 0 -111.029 103.866c-.112 1.806-.158 15.935-.171 20.843l-19.558 51.222a10.621 10.621 0 0 0 9.922 14.409h24.646v19.894h-.462a20.113 20.113 0 0 0 .246 40.225h.231l41.688-.639a5.981 5.981 0 0 0 4.687-2.38c4.618-.023 9.528-.045 13.794-.063h.038a8.9 8.9 0 0 1 8.65 6.746l8.7 34.6a6 6 0 0 0 5.818 4.536h96.842a6 6 0 0 0 5.8-7.545c-.162-.607-16.129-61.136-12.606-98.983.809-8.693 8.609-29.486 11.688-37.129a102.456 102.456 0 0 0 -2.47-99.193 100.523 100.523 0 0 0 -83.625-50.343zm5.1 173.9h-.239a25.4 25.4 0 0 1 -25.34-25l-.053-3.916a25.346 25.346 0 0 1 25.107-25.686h.239a25.4 25.4 0 0 1 25.341 25l.052 3.916a25.347 25.347 0 0 1 -25.107 25.686zm-104.26 64.493h-.093a8.113 8.113 0 0 1 -5.809-13.777 8.021 8.021 0 0 1 5.651-2.449h35.69l.229 15.679zm12.144-28.225v-25.894a6 6 0 0 0 -6-6h-28.642l19.231-50.378a6 6 0 0 0 .395-2.125c.021-9.383.082-20.015.153-21.28a97.691 97.691 0 0 1 97.8-92.564c.368 0 .747 0 1.116.006.5 0 .986.022 1.479.034v95.863a37.346 37.346 0 0 0 -31.05 37.315l.053 3.916a37.439 37.439 0 0 0 30.257 36.158l.084 9.014a28.891 28.891 0 0 1 -28.6 29.159l-20.956.129-.108-7.44a6 6 0 0 0 -6-5.913zm162.329-65.924q-.133.256-.243.525c-1.173 2.9-11.489 28.646-12.62 40.784-1.57 16.872.141 39.39 5.085 66.927 2.153 11.987 4.441 22.2 5.993 28.713h-84.474l-7.562-30.063a20.865 20.865 0 0 0 -18.168-15.7l6.025-.037a40.894 40.894 0 0 0 40.51-41.27l-.08-8.551a37.329 37.329 0 0 0 32.421-37.512l-.052-3.916a37.431 37.431 0 0 0 -31.633-36.4v-94.679a88.657 88.657 0 0 1 62.733 43.31 90.521 90.521 0 0 1 2.065 87.869z"/><path d="m146.773 131.051a6 6 0 0 0 7.113 4.628l46.005-9.738a6 6 0 0 0 2.03-10.9l-22.149-14.411a122.49 122.49 0 0 1 178.228-11.562 6 6 0 1 0 8.191-8.77 134.494 134.494 0 0 0 -196.535 13.75l-23.477-15.274a6 6 0 0 0 -9.143 6.272zm20.641-24.144.026.022c.049.036.1.06.153.095l15.641 10.176-25.963 5.5-5.5-25.964z"/><path d="m230.764 467.967a134.406 134.406 0 0 0 104.582-50.015l23.475 15.274a6 6 0 0 0 9.143-6.272l-9.737-46a6 6 0 0 0 -7.113-4.628l-46 9.738a6 6 0 0 0 -2.03 10.9l22.149 14.411a122.49 122.49 0 0 1 -178.233 11.557 6 6 0 1 0 -8.191 8.77 134.78 134.78 0 0 0 91.955 36.265zm116.965-78.667 5.5 25.964-15.639-10.175-.026-.022a6.076 6.076 0 0 0 -.6-.387l-15.198-9.88z"/></g><path d="m108.5 352a101 101 0 1 0 -101-101 101.115 101.115 0 0 0 101 101zm0-190a89 89 0 1 1 -89 89 89.1 89.1 0 0 1 89-89z" fill="#1ae5be"/><path d="m64.978 248.591c2.471 1.308 7.613 4.031 8.459 5.4.388.628.162 3.328-.079 6.186-.067.8-.138 1.649-.209 2.566-.527 6.9-1.3 30.381 10.938 43.023a9.568 9.568 0 0 0 3.88 2.316 9.72 9.72 0 0 0 12.87-10.665c-.2-2.209-2.088-26.247 7.782-38.4 9.7 12.251 7.82 36.213 7.625 38.4a9.778 9.778 0 0 0 12.867 10.666 9.6 9.6 0 0 0 3.889-2.32c12.234-12.642 11.465-36.126 10.938-43.023-.07-.913-.141-1.762-.208-2.556-.241-2.859-.467-5.559-.079-6.187.845-1.365 5.991-4.1 8.464-5.409 12.154-6.451 14.994-25.162 9.943-37.921a26.764 26.764 0 0 0 -12.758-14.436c-6.527-3.294-14.306-3.745-23.122-1.343a41.725 41.725 0 0 0 -12.422 5.607 49.276 49.276 0 0 1 -5.152 2.9c-.218-.125-.442-.255-.671-.388-5.3-3.059-13.307-7.683-20.576-8.648-12.515-1.659-27.819 2.61-33.24 19.57-4.434 13.865.337 29.091 10.861 34.662zm.567-31.009c1.605-5.02 6.379-13.164 20.232-11.328 4.909.651 11.947 4.716 16.153 7.144 1.5.866 2.793 1.613 3.832 2.13 5 2.487 12.553 5.615 20.421 4.081a6 6 0 0 0 -.644-11.869 31.629 31.629 0 0 1 3.793-1.274c13.541-3.692 19.2 2.651 21.564 8.62 3.4 8.574 1.209 19.919-4.412 22.9-13.867 7.36-15.793 10.395-14.717 23.2.064.765.133 1.585.2 2.466.91 11.9-.865 21.016-3.446 27.079.022-10.234-1.435-27.863-10.622-39.326a11.949 11.949 0 0 0 -18.476-.1c-9.388 11.429-10.882 29.152-10.864 39.429-2.581-6.065-4.356-15.176-3.446-27.077.068-.885.137-1.708.2-2.475 1.079-12.814-.848-15.849-14.722-23.194-5.27-2.788-7.628-12.327-5.046-20.406z" fill="#1ae5be"/></svg>