<svg id="Layer_1" height="512" viewBox="0 0 512 512" width="512" xmlns="http://www.w3.org/2000/svg" data-name="Layer 1"><path d="m368.4 226.164a29.768 29.768 0 0 0 13.752-32.692 23.652 23.652 0 0 0 -15.805-17.048l.153-42.124a110.607 110.607 0 1 0 -221.211-.663l.1 35.819v.139l.156 6.862a23.648 23.648 0 0 0 -15.713 17.017 29.795 29.795 0 0 0 16.768 34.261l-31.268 117.488a6 6 0 0 0 4.364 7.369 200.5 200.5 0 0 0 25.115 3.942 6.026 6.026 0 0 0 4.969-1.843l18.62-19.653.831 15.544a6 6 0 0 0 5.944 5.679c2.94.023 6.18.15 9.61.283 4.212.165 8.568.335 13.062.347l.032-12c-4.276-.012-8.52-.177-12.626-.338-1.48-.057-2.925-.114-4.336-.162l-1.28-23.937a6 6 0 0 0 -10.348-3.806l-26.176 27.632c-6.1-.7-11.04-1.486-14.548-2.121l23.923-89.894a110.933 110.933 0 0 0 24.5 44.81c18.843 20.826 43.669 32.3 69.906 32.3h18.206c26.237 0 51.063-11.469 69.906-32.3a110.992 110.992 0 0 0 25.615-49.222l19.334 93.75-15.285 1.874-24.521-22.162a6 6 0 0 0 -8.675.661l-20.8 25.53 9.3 7.58 16.812-20.633 21.868 19.764a5.993 5.993 0 0 0 4.754 1.5l24.467-3a6 6 0 0 0 5.146-7.167zm-14-65.657a94.847 94.847 0 0 1 -28.747-14.951h28.8zm.092-26.951h-197.198c0-2.787.126-5.546.355-8.275h196.505q.346 4.106.346 8.275zm-114.894 12c-19.609 7.543-37.65 8.559-49.719 9.234l-.379.021c-5.95.333-11.581 4.554-14.7 11.017a9.811 9.811 0 0 1 -4.638 4.559 9.984 9.984 0 0 1 -11.316-1.954l-1.467-1.468-.063-21.409zm68.111 0a101.983 101.983 0 0 0 35.214 23.532 119.013 119.013 0 0 1 -56.608-23.532zm-51.809-110.546a98.677 98.677 0 0 1 96.514 78.271h-193.007a98.774 98.774 0 0 1 96.493-78.271zm-114.91 165.555a17.842 17.842 0 0 1 .508-4.239 11.993 11.993 0 0 1 10.718-9.069 6 6 0 0 0 5.433-5.523 21.94 21.94 0 0 0 27.974-10.7c1.145-2.376 3.061-4.162 4.555-4.246l.379-.02c16.189-.9 46.088-2.588 75.73-21.215h1.624a131.258 131.258 0 0 0 86.5 36.537 5.985 5.985 0 0 0 5.374 5.164 11.992 11.992 0 0 1 10.717 9.069 17.766 17.766 0 0 1 -14.154 21.715 6 6 0 0 0 -4.965 5.911v.141c0 2.734-.137 5.468-.382 8.2l-70.627 13.094a133.12 133.12 0 0 1 -48.7 0l-70.674-13.095c-.245-2.728-.382-5.463-.382-8.2v-.141a6 6 0 0 0 -4.965-5.911 17.7 17.7 0 0 1 -14.663-17.472zm185.121 88.459c-16.538 18.279-38.2 28.346-61.007 28.346h-18.204c-22.8 0-44.469-10.067-61.008-28.346a98.843 98.843 0 0 1 -22.892-44.161l66.484 12.321a145.074 145.074 0 0 0 53.077 0l66.439-12.32a98.831 98.831 0 0 1 -22.889 44.16z" fill="#0635c9"/><g fill="#1ae5be"><path d="m288.815 443.56h-9.99a6 6 0 0 0 0 12h9.99a6 6 0 0 0 0-12z"/><path d="m383.976 368.225-80-27.113v-20.338l-12 4v18.15l-35.976 35.883-35.98-35.883v-18.15l-12-4v20.338l-79.995 27.113a55.973 55.973 0 0 0 -38.025 53.036v61.729a6 6 0 0 0 6 6h320a6 6 0 0 0 6-6v-61.729a55.973 55.973 0 0 0 -38.024-53.036zm-58.933-7.3-63.143 61.4v-32.455l37.68-37.579zm-112.623-8.634 37.48 37.379v32.459l-62.943-61.207zm-110.42 68.97a43.977 43.977 0 0 1 29.876-41.671l42.316-14.342 75.708 73.619v38.123h-147.9zm308 55.729h-148.1v-37.928l75.908-73.814 42.316 14.342a43.977 43.977 0 0 1 29.876 41.671z"/></g></svg>