<svg id="Layer_1" height="512" viewBox="0 0 512 512" width="512" xmlns="http://www.w3.org/2000/svg" data-name="Layer 1"><path d="m215.091 144.431a20.214 20.214 0 0 0 -10.646.53c-10.215 3.347-16.322 7.134-23.236 11.421a154.709 154.709 0 0 1 -15.936 8.959 79.484 79.484 0 0 0 21.926 6.276 161.215 161.215 0 0 0 14.681-8.345 107.611 107.611 0 0 1 17.333-9.267 6.422 6.422 0 0 0 -4.122-9.574z" fill="#d4e1f4"/><path d="m114.2 408.531c-.008-.079-.034-.334-.072-.746-13.574-24.423-16.634-60.264-14.441-88.947.189-2.473.383-4.772.563-6.917 1.16-13.8 1.861-22.123-2.806-29.662-4.493-7.259-13.644-12.959-31.221-22.259-9.688-5.129-17.085-15.42-20.83-28.977a75.478 75.478 0 0 1 .909-42c4.273-13.367 12.132-24.129 22.726-31.122 12.374-8.167 28.011-11.067 46.481-8.617.652.087 1.312.194 1.976.311-7.706-3.475-15.566-6.262-22.647-7.2-18.47-2.45-34.107.449-46.481 8.616-10.595 6.989-18.457 17.753-22.726 31.12a75.468 75.468 0 0 0 -.909 42c3.744 13.557 11.142 23.848 20.83 28.977 17.574 9.3 26.728 15.008 31.219 22.263 4.666 7.538 3.966 15.865 2.806 29.661-.181 2.146-.374 4.445-.563 6.917-2.653 34.69 2.362 79.867 24.39 102.628a7.99 7.99 0 0 0 2.566 1.213 6.13 6.13 0 0 0 8.278-6.92c-.021-.114-.038-.226-.048-.339z" fill="#d4e1f4"/><path d="m485.474 352.169 2.8-2.8a6 6 0 0 0 0-8.486l-9.2-9.2 4.64-4.64a6 6 0 0 0 0-8.485l-55.614-55.615a5.984 5.984 0 0 0 -7.856-8.992l-11.949-17.828a6 6 0 0 0 -6.551-9.774l-12.16-18.144 3.137-3.137a6 6 0 0 0 -8.486-8.485l-1.461 1.461-11.9-17.757 1.35-1.349a5.986 5.986 0 0 0 -8.134-8.773l-11.927-17.8.267-.267a5.984 5.984 0 0 0 -6.882-9.6l-8.078-12.053 7.938-5.381a6 6 0 0 0 1.6-8.334l-21.799-32.142a6 6 0 0 0 -8.333-1.6l-41.211 27.939a6 6 0 0 0 -1.6 8.333l1.942 2.864-10.694 7.25a6 6 0 0 0 -1.6 8.333l1.941 2.864-28 18.984a6 6 0 1 0 6.734 9.933l28-18.985 2.5 3.688a6 6 0 0 0 8.333 1.6l10.694-7.25 1.942 2.864a6 6 0 0 0 3.835 2.526 6.091 6.091 0 0 0 1.131.107 6 6 0 0 0 3.367-1.034l3.072-2.082 9.461 20.013a5.965 5.965 0 0 0 4.57 9.668l10.364 21.924-.314.314a5.976 5.976 0 0 0 5.258 10.145l10.023 21.2-1.124 1.124a5.984 5.984 0 0 0 6.312 9.859l9.776 20.682-1.926 1.927a5.985 5.985 0 0 0 7.278 9.394l9.668 20.453a5.974 5.974 0 0 0 7.53 8.749l55.873 55.873a6 6 0 0 0 8.485 0l8-8 9.206 9.2a6 6 0 0 0 8.485 0l2.8-2.8 14.768 14.768a6 6 0 0 0 8.486-8.485zm-99.9-63.669-9.52-20.138 23.59-23.59 11.9 17.757zm-104.119-146.007-4.442-6.552 5.728-3.883 4.442 6.552zm5.91-25 31.279-21.206 15.056 22.213-31.279 21.206zm40.168 19.687 9.166 13.676-11 11-8.388-17.746zm3.618 36.2 12.358-12.359 11.9 17.757-14.74 14.74zm14.967 31.662 16.1-16.1 11.9 17.757-18.483 18.484zm14.967 31.658 19.846-19.846 11.9 17.758-22.227 22.227zm83.173 112.819-51.367-51.367 26.721-26.721 51.367 51.369zm20.727-3.757 5.6-5.6 4.962 4.963-5.6 5.6z" fill="#0635c9"/><path d="m39.209 263.1c15.867 8.4 24.529 13.643 27.836 18.986 2.85 4.6 2.476 10.663 1.361 23.93-.185 2.205-.384 4.568-.578 7.109-1.391 18.187-3.508 80.027 27.637 112.208a16.5 16.5 0 0 0 6.618 3.784 16.9 16.9 0 0 0 5.508.923 16.343 16.343 0 0 0 16.309-19.211c-.419-4.391-6.877-78.017 24.4-116.09a10.669 10.669 0 0 1 16.34.08c30.659 38.255 24.306 111.632 23.893 116.014a17.012 17.012 0 0 0 28.434 14.5c31.144-32.18 29.027-94.02 27.637-112.207-.194-2.529-.392-4.881-.576-7.077-1.115-13.273-1.488-19.335 1.362-23.938 3.3-5.335 11.966-10.589 27.838-19.013 14.81-7.861 25.05-24.967 28.1-46.931a28.6 28.6 0 0 0 -11.943-27.44l-4.769-3.348a15.99 15.99 0 0 0 -21.582 3.044l-2.354 2.921a3.948 3.948 0 0 1 -6.882-1.433l-2.464-9a15.912 15.912 0 0 0 -17.963-11.511 3.948 3.948 0 0 1 -4.462-4.876l2.516-9.825a16.061 16.061 0 0 0 -10.925-19.399 35.242 35.242 0 0 0 -22.526.692c-9.082 3.424-15.371 7.324-21.453 11.1a133.761 133.761 0 0 1 -20.466 10.908c-.089.037-.177.075-.264.115-1.916-1.057-4.195-2.373-6.7-3.817-14.107-8.147-35.425-20.458-53.665-22.877-39.808-5.278-70.242 12.444-81.418 47.408-10.69 33.451.614 71.258 25.201 84.271zm-13.767-80.621c4.448-13.915 20.02-45.58 68.41-39.167 15.879 2.107 35.957 13.7 49.242 21.374 4.043 2.335 7.535 4.351 10.147 5.649 12.6 6.268 31.529 14.175 50.337 10.5a6 6 0 1 0 -2.3-11.778c-8.931 1.743-19.034.355-31.226-4.364 4.981-2.575 9.044-5.094 12.787-7.415 6.1-3.785 11.377-7.054 19.364-10.066a23.172 23.172 0 0 1 14.815-.434 4.084 4.084 0 0 1 2.78 4.934l-2.516 9.825a15.948 15.948 0 0 0 18.026 19.695 3.942 3.942 0 0 1 4.445 2.852l2.465 9a15.949 15.949 0 0 0 27.8 5.793l2.354-2.921a3.958 3.958 0 0 1 5.343-.754l4.769 3.348a16.65 16.65 0 0 1 6.953 15.971c-2.475 17.838-10.637 32.036-21.837 37.979-18.532 9.837-27.61 15.535-32.415 23.3-5.057 8.167-4.327 16.859-3.117 31.258.182 2.168.378 4.491.569 6.988 2.663 34.828-2.3 80.109-24.2 102.851a9.172 9.172 0 0 1 -1.994.879 4.651 4.651 0 0 1 -5.77-2.265 4.6 4.6 0 0 1 -.3-2.736c.031-.163.055-.328.072-.494.348-3.321 8.107-81.854-26.444-124.964a22.667 22.667 0 0 0 -34.977-.193c-35.238 42.893-27.393 121.822-27.042 125.161.017.165.041.328.072.49a4.6 4.6 0 0 1 -.3 2.735 4.65 4.65 0 0 1 -5.77 2.266 9.229 9.229 0 0 1 -1.984-.876c-21.9-22.743-26.866-68.023-24.2-102.851.192-2.509.389-4.842.572-7.019 1.21-14.394 1.941-23.082-3.115-31.251-4.821-7.779-13.901-13.469-32.433-23.279-19.362-10.252-28.237-42.317-19.382-70.021z" fill="#1ae5be"/></svg>