<svg id="Layer_1" height="512" viewBox="0 0 512 512" width="512" xmlns="http://www.w3.org/2000/svg" data-name="Layer 1"><path d="m238.971 162.091c0-69.419 52.635-126.767 120.091-134.254a135.871 135.871 0 0 0 -15-.837c-74.49 0-135.091 60.6-135.091 135.091s60.6 135.09 135.091 135.09a135.871 135.871 0 0 0 15-.837c-67.456-7.487-120.091-64.834-120.091-134.253z" fill="#d4e1f4"/><g fill="#0635c9"><path d="m111.413 273.7a42.68 42.68 0 1 0 42.679 42.679 42.729 42.729 0 0 0 -42.679-42.679zm0 73.359a30.68 30.68 0 1 1 30.679-30.68 30.715 30.715 0 0 1 -30.679 30.676z"/><path d="m111.413 379.137a42.679 42.679 0 1 0 42.679 42.679 42.729 42.729 0 0 0 -42.679-42.679zm0 73.358a30.679 30.679 0 1 1 30.679-30.679 30.715 30.715 0 0 1 -30.679 30.684z"/><path d="m111.413 168.256a42.679 42.679 0 1 0 42.679 42.679 42.728 42.728 0 0 0 -42.679-42.679zm0 73.358a30.679 30.679 0 1 1 30.679-30.679 30.715 30.715 0 0 1 -30.679 30.679z"/><path d="m111.413 62.815a42.679 42.679 0 1 0 42.679 42.679 42.729 42.729 0 0 0 -42.679-42.679zm0 73.358a30.679 30.679 0 1 1 30.679-30.679 30.714 30.714 0 0 1 -30.679 30.679z"/><path d="m225.64 273.7a42.68 42.68 0 1 0 42.679 42.679 42.727 42.727 0 0 0 -42.679-42.679zm0 73.359a30.68 30.68 0 1 1 30.679-30.68 30.715 30.715 0 0 1 -30.679 30.676z"/><path d="m225.64 379.137a42.679 42.679 0 1 0 42.679 42.679 42.727 42.727 0 0 0 -42.679-42.679zm0 73.358a30.679 30.679 0 1 1 30.679-30.679 30.714 30.714 0 0 1 -30.679 30.684z"/><path d="m225.64 253.614a43.121 43.121 0 0 0 6.889-.554l-1.929-11.845a30.684 30.684 0 0 1 -22.854-55.206l-7.008-9.742a42.682 42.682 0 0 0 24.9 77.347z"/><path d="m225.64 74.815a30.663 30.663 0 0 1 9.4 1.465l3.674-11.424a42.687 42.687 0 0 0 -36.692 76.19l6.648-9.99a30.682 30.682 0 0 1 16.97-56.241z"/><path d="m290.636 497a25.6 25.6 0 0 0 25.569-25.569v-172.225h-12v172.225a13.584 13.584 0 0 1 -13.569 13.569h-244.219a13.584 13.584 0 0 1 -13.569-13.569v-415.552a13.584 13.584 0 0 1 13.569-13.569h233.665v-12h-233.665a25.6 25.6 0 0 0 -25.569 25.569v415.552a25.6 25.6 0 0 0 25.569 25.569z"/><path d="m55.352 211.934a6 6 0 0 0 -12 0v24.577a6 6 0 0 0 12 0z"/><path d="m55.352 262.394a6 6 0 0 0 -12 0v108.967a6 6 0 0 0 12 0z"/><path d="m49.352 387.369a6 6 0 0 0 -6 6v70.1a6 6 0 0 0 12 0v-70.1a6 6 0 0 0 -6-6z"/><path d="m55.352 58.317a6 6 0 0 0 -12 0v122.422a6 6 0 0 0 12 0z"/></g><path d="m344.062 15c-81.107 0-147.091 65.985-147.091 147.091s65.984 147.09 147.091 147.09 147.09-65.984 147.09-147.09-65.984-147.091-147.09-147.091zm0 282.181c-74.49 0-135.091-60.6-135.091-135.09s60.601-135.091 135.091-135.091 135.09 60.6 135.09 135.091-60.601 135.09-135.09 135.09z" fill="#1ae5be"/><path d="m376.461 71.68a71.05 71.05 0 0 0 -20.634 8.911 85.04 85.04 0 0 1 -11.842 6.109c-.991-.533-2.113-1.151-3.316-1.815-9.009-4.966-22.623-12.47-34.483-13.972-14.169-1.794-26.3.532-36.059 6.914a43.874 43.874 0 0 0 -17.869 24.344c-6.467 21.137 1.172 44.115 17.39 52.312 9.18 4.639 14.841 7.859 16.611 10.588 1.342 2.069 1.111 5.409.464 12.764-.118 1.329-.244 2.753-.366 4.286-.9 11.187-2.24 49.245 18.086 69.294a12.545 12.545 0 0 0 5.022 2.8 12.849 12.849 0 0 0 15.649-6.551 12.076 12.076 0 0 0 .913-7.071c-.314-3.215-4.062-45.8 14.763-67.675a4.812 4.812 0 0 1 6.986.025c18.447 21.972 14.769 64.472 14.463 67.657a12.1 12.1 0 0 0 .914 7.066 12.677 12.677 0 0 0 11.579 7.2 13.019 13.019 0 0 0 4.07-.651 12.549 12.549 0 0 0 5.02-2.8c20.328-20.052 18.985-58.11 18.088-69.3-.122-1.526-.247-2.944-.363-4.268-.648-7.358-.877-10.7.465-12.768 1.766-2.725 7.429-5.952 16.613-10.6 17.166-8.7 24.515-34.951 16.046-57.329-3.283-8.675-17.182-36.15-58.21-25.47zm36.74 72.094c-23.824 12.071-25.29 16.018-23.608 35.129.114 1.3.236 2.682.356 4.174 1.618 20.206-1.293 46.362-14.261 59.5-.126.055-.332.136-.631.235a.877.877 0 0 1 -.987-.211c.034-.169.06-.339.078-.511.224-2.037 5.207-50.2-17.18-76.865a16.8 16.8 0 0 0 -25.273-.138c-22.841 26.54-17.8 74.959-17.576 77.007.019.172.047.416.081.585a1.1 1.1 0 0 1 -.99.133c-.3-.1-.5-.18-.631-.235-12.968-13.137-15.879-39.3-14.261-59.5.12-1.5.244-2.891.358-4.192 1.684-19.122.219-23.069-23.615-35.114-10.976-5.547-16.057-22.634-11.328-38.091 2.484-8.118 11.449-26.6 40.945-22.864 9.585 1.213 21.989 8.051 30.2 12.576 2.572 1.419 4.794 2.643 6.5 3.451 8.184 3.885 20.5 8.784 32.91 6.47a6 6 0 1 0 -2.2-11.8 30.091 30.091 0 0 1 -13.181-.823c1.063-.608 2.067-1.2 3.036-1.776a59.327 59.327 0 0 1 17.543-7.624c21.471-5.587 37.5 1.011 43.966 18.1 6.176 16.337 1.292 36.535-10.252 42.384z" fill="#1ae5be"/></svg>