<svg id="Layer_1" height="512" viewBox="0 0 512 512" width="512" xmlns="http://www.w3.org/2000/svg" data-name="Layer 1"><path d="m237 68.73a39.066 39.066 0 0 1 29-37.7 39 39 0 1 0 0 75.39 39.066 39.066 0 0 1 -29-37.69z" fill="#d4e1f4"/><path d="m262 222.4v-103.035a51 51 0 1 0 -12 0v103.035zm-45-153.67a39 39 0 1 1 39 39 39.044 39.044 0 0 1 -39-39z" fill="#0635c9"/><path d="m258.211 51.317a6 6 0 0 0 1.489-11.907 29.515 29.515 0 0 0 -24.274 8.109 6 6 0 0 0 8.356 8.613 17.5 17.5 0 0 1 14.429-4.815z" fill="#0635c9"/><path d="m232.21 494.27h47.58a6 6 0 0 0 6-6v-264.79a6 6 0 0 0 -6-6h-47.58a6 6 0 0 0 -6 6v264.79a6 6 0 0 0 6 6zm6-165.22 35.58-22.434v17.243l-35.58 22.434zm0 31.429 35.58-22.434v17.243l-35.58 22.433zm0 31.428 35.58-22.433v17.243l-35.58 22.433zm0 31.429 35.58-22.436v17.242l-35.58 22.434zm35.58-130.906-35.58 22.434v-17.242l35.58-22.433zm-35.58 162.335 35.58-22.434v17.243l-35.58 22.434zm35.58-193.765-35.58 22.433v-17.239l35.58-22.434zm-29.356 221.27 29.356-18.51v18.51zm29.356-252.79v.093l-35.58 22.435v-22.528z" fill="#1ae5be"/></svg>