<svg id="Layer_1" height="512" viewBox="0 0 512 512" width="512" xmlns="http://www.w3.org/2000/svg" data-name="Layer 1"><path d="m355.962 356.013-204.667-203.978a41.37 41.37 0 0 1 14.9-7.025 41.742 41.742 0 0 0 -34.9 7.025l204.667 203.978a40.772 40.772 0 0 0 28.968 11.971h.088a41.258 41.258 0 0 0 9.91-1.221 40.787 40.787 0 0 1 -18.966-10.75z" fill="#d4e1f4"/><g fill="#0635c9"><path d="m147.884 161.256h47.654v11.999h-47.654z" transform="matrix(.707 -.707 .707 .707 -67.974 170.42)"/><path d="m325.234 338.606h47.654v11.999h-47.654z" transform="matrix(.707 -.707 .707 .707 -141.435 347.784)"/><path d="m66.615 93.744a30.016 30.016 0 0 0 15.97-4.773l54.794 54.793a6 6 0 0 0 8.485-8.485l-58.581-58.579a6 6 0 0 0 -8.485 0 17.658 17.658 0 0 1 -12.28 5.046h-.149a17.336 17.336 0 0 1 -12.362-5.069c-6.841-6.842-6.653-18.162.42-25.236a6 6 0 0 0 -8.485-8.484c-11.752 11.75-11.942 30.683-.42 42.203a29.323 29.323 0 0 0 21.093 8.584z"/><path d="m381.74 369.382a6 6 0 0 0 -8.486 8.484l39.553 39.553a6.007 6.007 0 0 0 2.279 1.428l47.789 16.55.133 29.432a6 6 0 0 0 6 5.973h.028a6 6 0 0 0 5.973-6.028l-.153-33.682a6 6 0 0 0 -4.036-5.643l-50.5-17.49z"/><path d="m307.499 320.87h47.654v12h-47.654z" transform="matrix(.707 -.707 .707 .707 -134.089 330.021)"/><path d="m165.619 178.991h47.654v12h-47.654z" transform="matrix(.707 -.707 .707 .707 -75.321 188.141)"/></g><path d="m194.132 147.494a53.718 53.718 0 0 0 -75.878 0 6 6 0 0 0 .007 8.493l209.231 208.526a52.681 52.681 0 0 0 37.437 15.471h.113a52.693 52.693 0 0 0 37.487-15.628 6 6 0 0 0 -.011-8.474zm170.886 220.49h-.088a40.772 40.772 0 0 1 -28.968-11.971l-204.667-203.978a41.72 41.72 0 0 1 54.351 3.944l203.854 203.851a40.729 40.729 0 0 1 -24.482 8.154z" fill="#1ae5be"/></svg>