<svg id="Layer_1" height="512" viewBox="0 0 512 512" width="512" xmlns="http://www.w3.org/2000/svg" data-name="Layer 1"><path d="m289.286 144.79c5.858-3.632 10.917-6.769 20.866-9.481a59.542 59.542 0 0 1 22.848-2.088c-9.854-5.892-22.8-7.007-37.835-2.908-9.948 2.712-15.008 5.849-20.866 9.482a111.973 111.973 0 0 1 -11.554 6.5 57.613 57.613 0 0 0 15.9 4.55 116.911 116.911 0 0 0 10.641-6.055z" fill="#d4e1f4"/><path d="m301.209 295.18c-2.052-24.2-8.294-42.967-18.552-55.767a14.67 14.67 0 0 0 -11.528-5.47 15.089 15.089 0 0 0 -3.509.415c.016.02.034.039.05.059 10.259 12.8 16.5 31.563 18.552 55.767a189.32 189.32 0 0 1 .032 32.417c-.009.082-.021.165-.036.246a4.444 4.444 0 0 0 6 5.018 5.794 5.794 0 0 0 1.865-.884 47.878 47.878 0 0 0 7.777-10.939 200.1 200.1 0 0 0 -.651-20.862z" fill="#d4e1f4"/><path d="m225.716 322.6c-.006-.057-.025-.242-.052-.541-9.842-17.706-12.06-43.691-10.47-64.487.137-1.792.277-3.459.408-5.015.841-10 1.349-16.039-2.034-21.5-3.256-5.26-9.893-9.4-22.634-16.141-7.024-3.718-12.387-11.18-15.1-21.008a54.716 54.716 0 0 1 .66-30.449c3.1-9.691 8.8-17.493 16.476-22.564 8.971-5.921 20.308-8.023 33.7-6.247.472.063.951.141 1.432.226-5.587-2.519-11.285-4.54-16.419-5.221-13.391-1.776-24.728.326-33.7 6.247-7.681 5.07-13.378 12.873-16.476 22.564a54.712 54.712 0 0 0 -.659 30.448c2.714 9.829 8.078 17.29 15.1 21.008 12.741 6.745 19.377 10.881 22.633 16.141 3.384 5.466 2.876 11.5 2.035 21.5-.131 1.555-.272 3.222-.409 5.015-1.923 25.15 1.713 57.9 17.683 74.4a5.786 5.786 0 0 0 1.861.88 4.559 4.559 0 0 0 5.706-2.318 4.606 4.606 0 0 0 .3-2.7c-.02-.072-.032-.153-.041-.238z" fill="#d4e1f4"/><g fill="#0635c9"><path d="m486 29.805h-135.139a71.351 71.351 0 0 0 -70.607 59.775l-7.27 41.617a6 6 0 1 0 11.821 2.064l7.277-41.661a59.4 59.4 0 0 1 58.779-49.794h128.545a30.49 30.49 0 0 1 -29.844 24.439h-71.015a6 6 0 0 0 0 12h50.4a30.489 30.489 0 0 1 -29.843 24.439h-71.01a6 6 0 0 0 0 12h35.285a30.436 30.436 0 0 1 -19.888 22.783l3.914 11.344a42.454 42.454 0 0 0 28.16-34.127h23.542a42.5 42.5 0 0 0 42.008-36.439h8.447a42.487 42.487 0 0 0 42.438-42.44 6 6 0 0 0 -6-6z"/><path d="m62.438 78.244h8.447a42.5 42.5 0 0 0 42.008 36.439h23.543a42.489 42.489 0 0 0 27.986 34.067l3.963-11.327a30.464 30.464 0 0 1 -19.763-22.74h35.284a6 6 0 0 0 0-12h-71.013a30.489 30.489 0 0 1 -29.843-24.439h50.4a6 6 0 0 0 0-12h-71.012a30.49 30.49 0 0 1 -29.844-24.439h128.545a59.409 59.409 0 0 1 58.783 49.816l7.23 42.379a6 6 0 1 0 11.828-2.018l-7.226-42.359a71.363 71.363 0 0 0 -70.615-59.821h-135.139a6 6 0 0 0 -6 6 42.487 42.487 0 0 0 42.438 42.442z"/><path d="m251.893 380.272a6 6 0 0 0 -6 6v48.993a6 6 0 1 0 12 0v-48.993a6 6 0 0 0 -6-6z"/><path d="m252.5 451.388a6 6 0 0 0 -6 6v18.806a6 6 0 0 0 12 0v-18.806a6 6 0 0 0 -6-6z"/><path d="m200.715 347.772a6 6 0 0 0 -6 6v11.493a6 6 0 0 0 12 0v-11.493a6 6 0 0 0 -6-6z"/><path d="m201.321 381.388a6 6 0 0 0 -6 6v57.612a6 6 0 0 0 12 0v-57.612a6 6 0 0 0 -6-6z"/><path d="m149.537 307.772a6 6 0 0 0 -6 6v61.493a6 6 0 0 0 12 0v-61.493a6 6 0 0 0 -6-6z"/><path d="m150.144 391.388a6 6 0 0 0 -6 6v17.612a6 6 0 0 0 12 0v-17.612a6 6 0 0 0 -6-6z"/><path d="m303.07 347.772a6 6 0 0 0 -6 6v11.493a6 6 0 0 0 12 0v-11.493a6 6 0 0 0 -6-6z"/><path d="m303.677 381.388a6 6 0 0 0 -6 6v57.612a6 6 0 1 0 12 0v-57.612a6 6 0 0 0 -6-6z"/><path d="m354.248 307.772a6 6 0 0 0 -6 6v51.493a6 6 0 0 0 12 0v-51.493a6 6 0 0 0 -6-6z"/><path d="m354.854 381.388a6 6 0 0 0 -6 6v27.612a6 6 0 0 0 12 0v-27.612a6 6 0 0 0 -6-6z"/></g><path d="m234.253 323.829c-.339-3.59-4.829-56.014 17.354-83.015a6.1 6.1 0 0 1 9.309.042c21.739 27.126 17.327 79.415 17 82.979a13.509 13.509 0 0 0 13.476 15.8 13.887 13.887 0 0 0 4.526-.758 13.536 13.536 0 0 0 5.453-3.159c8.677-8.966 14.789-22 18.168-38.745a164.475 164.475 0 0 0 2.349-43.973c-.141-1.841-.284-3.553-.419-5.151-.778-9.26-1.046-13.476.748-16.374 2.187-3.533 8.57-7.37 19.583-13.216a32.3 32.3 0 0 0 4.65-3.017c17.695-13.758 22.685-46.893 10.68-70.91-5.444-10.892-22.532-35.018-63.543-23.838-11.4 3.107-17.616 6.963-23.63 10.692a96.764 96.764 0 0 1 -14.085 7.574c-1.222-.684-2.622-1.493-4.135-2.366-10.353-5.979-26-15.015-39.564-16.814-39.728-5.273-54.642 19.9-59.216 30.968-9.688 23.436-4.088 51.864 12.749 64.721a33.744 33.744 0 0 0 4.666 2.993c11.009 5.828 17.39 9.657 19.58 13.2 1.794 2.9 1.526 7.113.747 16.369-.135 1.6-.279 3.324-.421 5.173a164.475 164.475 0 0 0 2.353 43.982c3.38 16.744 9.492 29.779 18.17 38.745a13.523 13.523 0 0 0 5.452 3.159 13.569 13.569 0 0 0 18-15.052zm-11.915 1.445c.016.164.041.329.072.491a1.583 1.583 0 0 1 -2.254 1.768 7.662 7.662 0 0 1 -.956-.388c-15.389-16.174-18.856-48.392-16.957-73.235.139-1.817.281-3.506.414-5.082 1.905-22.649.4-26.848-26.669-41.175a21.762 21.762 0 0 1 -3-1.927c-12.3-9.393-16.4-32.564-8.941-50.6 4.366-10.562 16.225-27.676 46.548-23.657 11.2 1.486 25.609 9.8 35.141 15.309 2.959 1.709 5.515 3.185 7.456 4.15 9.362 4.657 23.445 10.526 37.59 7.768a6 6 0 0 0 -2.3-11.779c-5.327 1.042-11.3.452-18.337-1.858 2.252-1.274 4.249-2.512 6.134-3.682 5.769-3.576 10.75-6.665 20.463-9.313 23.179-6.317 40.815-.059 49.653 17.625 9.492 18.991 6.007 45.717-7.309 56.071a20.344 20.344 0 0 1 -2.913 1.893c-27.056 14.36-28.565 18.558-26.663 41.193.133 1.57.273 3.253.412 5.062 1.9 24.843-1.568 57.061-16.956 73.234a7.489 7.489 0 0 1 -.957.389 1.583 1.583 0 0 1 -2.253-1.771c.03-.163.055-.327.072-.491a195.864 195.864 0 0 0 -.027-33.555c-2.139-25.233-8.707-44.869-19.523-58.364a18.1 18.1 0 0 0 -27.944-.155c-26.013 31.665-20.254 89.627-19.996 92.079z" fill="#1ae5be"/></svg>