<svg id="Layer_1" height="512" viewBox="0 0 512 512" width="512" xmlns="http://www.w3.org/2000/svg" data-name="Layer 1"><path d="m285.984 70.442c5.252-3.256 9.788-6.069 18.708-8.5a53.364 53.364 0 0 1 20.484-1.872c-8.835-5.282-20.438-6.283-33.921-2.607-8.919 2.432-13.455 5.244-18.707 8.5a100.731 100.731 0 0 1 -10.359 5.823 51.7 51.7 0 0 0 14.252 4.08 104.8 104.8 0 0 0 9.543-5.424z" fill="#d4e1f4"/><path d="m296.674 205.274c-1.84-21.7-7.436-38.522-16.633-50a13.156 13.156 0 0 0 -10.335-4.9 13.59 13.59 0 0 0 -3.147.372c.015.018.031.035.046.054 9.2 11.476 14.793 28.3 16.633 50a169.7 169.7 0 0 1 .028 29.063c-.008.074-.019.147-.033.221a3.985 3.985 0 0 0 5.381 4.5 5.158 5.158 0 0 0 1.672-.793 42.9 42.9 0 0 0 6.972-9.807 179.551 179.551 0 0 0 -.584-18.71z" fill="#d4e1f4"/><path d="m228.99 229.86c0-.051-.022-.216-.047-.484-8.823-15.875-10.812-39.172-9.386-57.816.123-1.607.248-3.1.366-4.5.754-8.967 1.209-14.38-1.824-19.28-2.919-4.716-8.869-8.424-20.292-14.471-6.3-3.334-11.106-10.023-13.54-18.835a49.06 49.06 0 0 1 .591-27.3c2.777-8.688 7.885-15.684 14.772-20.229 8.043-5.309 18.207-7.194 30.213-5.6.423.056.853.126 1.284.2a55.085 55.085 0 0 0 -14.721-4.681c-12-1.592-22.169.292-30.212 5.6-6.887 4.552-11.994 11.548-14.772 20.236a49.051 49.051 0 0 0 -.591 27.3c2.434 8.812 7.242 15.5 13.539 18.835 11.424 6.047 17.374 9.755 20.293 14.471 3.033 4.9 2.578 10.313 1.824 19.28-.118 1.395-.244 2.889-.366 4.5-1.721 22.544 1.535 51.914 15.853 66.703a5.207 5.207 0 0 0 1.668.789 3.985 3.985 0 0 0 5.381-4.5c-.014-.071-.023-.144-.033-.218z" fill="#d4e1f4"/><g fill="#0635c9"><path d="m180.3 331.987a35.574 35.574 0 0 1 -13.385-8.393l-18.069-18.07-6.166-20.863a29.734 29.734 0 0 0 -24.814-21.708l-.793-2.646c-.013-.048-.029-.1-.045-.145-3-9.15-12.689-15.149-22.779-14.913l-.028-.094a26.929 26.929 0 0 0 -32.336-18.448 6 6 0 0 0 -4.453 6.919l20.049 107.9a6.12 6.12 0 0 0 .215.824 69.813 69.813 0 0 0 26.207 34.816l43.79 30.171c.106.073.213.142.324.208a13.4 13.4 0 0 1 5.874 7.352l3.317 44.832a6 6 0 0 0 4.071 5.246l.9.3a98.056 98.056 0 0 0 61.586.428l2.2-.7a6 6 0 0 0 4.168-5.714v-25.17a245.77 245.77 0 0 0 -2.843-35c-.109-.767-.188-1.553-.233-2.331l-.672-11.58c-.01-.164-.027-.328-.049-.491a63.65 63.65 0 0 0 -42.27-51.418zm-49.192-44.157c.014.053.029.106.044.157l1.268 4.289a31.868 31.868 0 0 0 -6.359-1.986l-4.108-13.708a17.707 17.707 0 0 1 9.155 11.248zm-25.5-24 7.932 26.466a31.756 31.756 0 0 0 -5.35 1.535l-10.239-34.213c3.562.867 6.623 3.161 7.654 6.217zm108.811 122.326.658 11.33c.065 1.114.177 2.234.334 3.329a234.2 234.2 0 0 1 2.722 33.3v20.768a86.017 86.017 0 0 1 -49.254-.071l-3.068-41.463a6.005 6.005 0 0 0 -.21-1.191 25.357 25.357 0 0 0 -11.245-14.806l-43.628-30.052a57.744 57.744 0 0 1 -21.528-28.4l-18.739-100.851a14.95 14.95 0 0 1 12.265 10.544l14.017 46.858.955 3.087c-.154.149-.306.3-.459.451a6 6 0 0 0 .2 8.672l21.934 20.039a141.094 141.094 0 0 1 17.3 18.97 6 6 0 0 0 9.568-7.242 153.124 153.124 0 0 0 -18.769-20.587l-16.541-15.11a19.91 19.91 0 0 1 22.9 3.743l24.6 24.6a47.626 47.626 0 0 0 17.923 11.242l3.766 1.312a51.7 51.7 0 0 1 34.299 41.528z"/><path d="m450.459 226.707a26.931 26.931 0 0 0 -32.335 18.447l-.028.094c-10.088-.237-19.785 5.765-22.781 14.914-.015.048-.031.1-.044.145l-.793 2.646a29.733 29.733 0 0 0 -24.814 21.708l-6.164 20.864-18.069 18.069a35.589 35.589 0 0 1 -13.385 8.394l-3.765 1.31a63.656 63.656 0 0 0 -42.269 51.419c-.023.163-.039.327-.049.491l-.672 11.577c-.045.781-.124 1.567-.233 2.335a245.6 245.6 0 0 0 -2.843 35v25.17a6 6 0 0 0 4.061 5.678 99.313 99.313 0 0 0 62.511.428l1.23-.4a6 6 0 0 0 4.11-5.131l4.311-44.906a13.4 13.4 0 0 1 5.891-7.409c.111-.066.219-.135.324-.208l43.8-30.181a69.808 69.808 0 0 0 26.194-34.805 6.025 6.025 0 0 0 .215-.825l20.049-107.9a6 6 0 0 0 -4.452-6.924zm-43.719 37.128c1.031-3.056 4.093-5.352 7.656-6.22l-10.237 34.221a31.853 31.853 0 0 0 -5.35-1.536zm-25.5 24a17.713 17.713 0 0 1 9.156-11.248l-4.108 13.708a31.783 31.783 0 0 0 -6.359 1.986l1.267-4.289c.013-.056.028-.109.041-.162zm41.905 51.065a57.734 57.734 0 0 1 -21.513 28.381l-43.641 30.069a25.34 25.34 0 0 0 -11.245 14.807 5.868 5.868 0 0 0 -.2 1.059l-3.987 41.538a87.373 87.373 0 0 1 -48.347.125v-20.762a234.178 234.178 0 0 1 2.722-33.3c.157-1.1.269-2.216.335-3.333l.657-11.327a51.7 51.7 0 0 1 34.3-41.525l3.764-1.31a47.645 47.645 0 0 0 17.924-11.243l24.6-24.6a19.906 19.906 0 0 1 22.9-3.744l-16.533 15.105a152.966 152.966 0 0 0 -18.772 20.588 6 6 0 0 0 9.569 7.242 141.046 141.046 0 0 1 17.3-18.97l21.937-20.039a6 6 0 0 0 .195-8.672c-.152-.153-.3-.3-.459-.451l.972-3.142 14-46.8a14.946 14.946 0 0 1 12.264-10.543z"/><path d="m258.523 276.523a6 6 0 0 0 -12 0v9.758a6 6 0 1 0 12 0z"/><path d="m252.523 302.229a6 6 0 0 0 -6 6v33.091a6 6 0 0 0 12 0v-33.091a6 6 0 0 0 -6-6z"/><path d="m294.523 300.294a6 6 0 0 0 -6 6v5.026a6 6 0 1 0 12 0v-5.026a6 6 0 0 0 -6-6z"/><path d="m300.523 256.523a6 6 0 1 0 -12 0v28.706a6 6 0 0 0 12 0z"/><path d="m209.523 285.281a6 6 0 0 0 6-6v-22.758a6 6 0 1 0 -12 0v22.758a6 6 0 0 0 6 6z"/><path d="m203.523 311.32a6 6 0 0 0 12 0v-10.039a6 6 0 0 0 -12 0z"/></g><path d="m291.545 241.845a12.638 12.638 0 0 0 5.1-2.969c20.629-21.315 19.261-61.828 18.351-73.737-.125-1.631-.252-3.147-.371-4.563-.675-8.036-.912-11.689.561-14.068 1.852-2.993 7.426-6.333 17.065-11.448.835-.443 1.649-.946 2.45-1.479h32.199a32.714 32.714 0 0 0 32.105-26.667h1.228a32.714 32.714 0 0 0 32.1-26.667h4.818a32.7 32.7 0 0 0 32.667-32.666 6 6 0 0 0 -6-6h-84.252a53.842 53.842 0 0 0 -39.842 17.575c-8.255-9.551-23.69-19.233-50.645-11.885a71.024 71.024 0 0 0 -21.094 9.541 85.749 85.749 0 0 1 -12.057 6.521c-1.006-.568-2.141-1.223-3.358-1.925-9.208-5.318-23.124-13.354-35.262-14.964-22.508-2.983-36.133 4.939-44.157 13.685a53.661 53.661 0 0 0 -40.717-18.548h-84.261a6 6 0 0 0 -6 6 32.7 32.7 0 0 0 32.667 32.666h4.818a32.714 32.714 0 0 0 32.105 26.667h1.228a32.714 32.714 0 0 0 32.109 26.667h32.336c.809.532 1.631 1.036 2.473 1.482 9.634 5.1 15.206 8.432 17.062 11.429 1.472 2.379 1.236 6.031.56 14.063-.12 1.422-.248 2.945-.373 4.584a146.267 146.267 0 0 0 2.094 39.109c3.017 14.948 8.487 26.6 16.26 34.63a12.622 12.622 0 0 0 5.095 2.967 12.977 12.977 0 0 0 4.228.708 12.642 12.642 0 0 0 12.611-14.768c-.309-3.3-4.216-49.295 15.2-72.934a4.711 4.711 0 0 1 7.166.031c19.027 23.742 15.2 69.621 14.892 72.908a12.7 12.7 0 0 0 16.841 14.055zm88.021-188.264h77.373a20.7 20.7 0 0 1 -19.779 14.666h-37.333a6 6 0 0 0 0 12h20.182a20.7 20.7 0 0 1 -19.772 14.667h-37.337a6 6 0 0 0 0 12h23.772a20.7 20.7 0 0 1 -19.772 14.667h-21.46c8.02-14.362 8.952-35.4 1.1-51.934a41.892 41.892 0 0 1 33.026-16.066zm-254.242 53.333h23.776a6 6 0 0 0 0-12h-37.337a20.7 20.7 0 0 1 -19.772-14.667h20.182a6 6 0 0 0 0-12h-37.333a20.7 20.7 0 0 1 -19.779-14.666h77.373a41.752 41.752 0 0 1 33.573 16.781c-.745 1.429-1.352 2.755-1.828 3.907-6.553 15.851-5.284 34.261 2.231 47.312h-21.31a20.7 20.7 0 0 1 -19.776-14.667zm143.852 40.464a16.707 16.707 0 0 0 -25.8-.144c-23.2 28.24-18.077 79.808-17.848 81.99q.025.245.072.486a.851.851 0 0 1 -.051.507.87.87 0 0 1 -1.038.281 6.655 6.655 0 0 1 -.658-.259c-13.389-14.176-16.4-42.4-14.732-64.185.123-1.606.249-3.1.366-4.493 1.695-20.142.2-24.308-23.964-37.1a18.583 18.583 0 0 1 -2.559-1.643c-10.657-8.138-14.181-28.27-7.693-43.962 3.788-9.162 14.075-24.01 40.46-20.513 9.779 1.3 22.454 8.616 30.84 13.459 2.63 1.519 4.9 2.83 6.639 3.694 8.376 4.166 20.978 9.414 33.7 6.933a6 6 0 0 0 -2.3-11.778c-4.216.824-8.922.458-14.383-1.156 1.456-.854 2.8-1.686 4.081-2.481 5.058-3.137 9.426-5.846 17.925-8.163 20.155-5.495 35.48-.084 43.139 15.239 8.118 16.242 5.069 39.936-6.271 48.76l-.017.012a17.1 17.1 0 0 1 -2.464 1.6c-24.161 12.824-25.649 16.99-23.958 37.121.117 1.388.242 2.875.364 4.473 1.666 21.79-1.344 50.011-14.731 64.185a6.761 6.761 0 0 1 -.658.259.87.87 0 0 1 -1.038-.281.844.844 0 0 1 -.051-.507c.031-.162.054-.326.072-.49.229-2.172 5.295-53.47-17.444-81.844z" fill="#1ae5be"/></svg>