<svg id="Layer_1" height="512" viewBox="0 0 512 512" width="512" xmlns="http://www.w3.org/2000/svg" data-name="Layer 1"><g fill="#d4e1f4"><path d="m410.3 191.031c5.858-3.633 10.917-6.769 20.866-9.481a59.522 59.522 0 0 1 22.848-2.088c-9.854-5.892-22.8-7.008-37.835-2.908-9.948 2.712-15.008 5.849-20.866 9.481a112.258 112.258 0 0 1 -11.554 6.5 57.648 57.648 0 0 0 15.9 4.55 117.149 117.149 0 0 0 10.641-6.054z"/><path d="m422.223 341.42c-2.052-24.2-8.294-42.966-18.552-55.767a14.673 14.673 0 0 0 -11.528-5.47 15.143 15.143 0 0 0 -3.509.415c.016.021.034.04.05.06 10.259 12.8 16.5 31.563 18.552 55.767a189.306 189.306 0 0 1 .032 32.416c-.009.083-.021.165-.036.247a4.443 4.443 0 0 0 6 5.017 5.737 5.737 0 0 0 1.865-.884 47.856 47.856 0 0 0 7.777-10.939 200.385 200.385 0 0 0 -.651-20.862z"/><path d="m346.73 368.843c-.006-.057-.025-.242-.053-.54-9.841-17.707-12.059-43.691-10.469-64.487.137-1.793.277-3.459.408-5.015.841-10 1.349-16.039-2.034-21.5-3.256-5.26-9.893-9.4-22.634-16.141-7.024-3.719-12.387-11.18-15.1-21.008a54.725 54.725 0 0 1 .659-30.449c3.1-9.691 8.8-17.494 16.477-22.564 8.971-5.921 20.308-8.023 33.7-6.247.472.063.951.141 1.432.225-5.587-2.519-11.285-4.54-16.419-5.22-13.391-1.777-24.728.325-33.7 6.246-7.681 5.071-13.378 12.873-16.476 22.564a54.725 54.725 0 0 0 -.66 30.449c2.715 9.829 8.079 17.29 15.1 21.008 12.739 6.736 19.378 10.877 22.639 16.136 3.383 5.465 2.876 11.5 2.035 21.5-.131 1.556-.272 3.223-.409 5.016-1.923 25.15 1.713 57.9 17.683 74.4a5.786 5.786 0 0 0 1.861.88 4.444 4.444 0 0 0 6-5.017c-.019-.072-.031-.154-.04-.236z"/><path d="m255.64 280.119c6.422 2.507 11.967 4.671 20.107 11a59.54 59.54 0 0 1 15.381 17.024c-1.2-11.419-8.075-22.441-20.379-32.01-8.139-6.331-13.685-8.5-20.106-11a111.929 111.929 0 0 1 -12.13-5.344 57.64 57.64 0 0 0 5.9 15.447 116.708 116.708 0 0 0 11.227 4.883z"/><path d="m142.5 379.907c18.13-16.166 29.392-32.419 33.475-48.306a14.669 14.669 0 0 0 -2.542-12.5 15.145 15.145 0 0 0 -2.438-2.558c-.007.025-.011.051-.017.076-4.083 15.887-15.346 32.14-33.476 48.306a189.24 189.24 0 0 1 -25.915 19.475c-.071.043-.144.083-.218.119a4.444 4.444 0 0 0 -.413 7.811 5.757 5.757 0 0 0 1.827.962 47.841 47.841 0 0 0 13.417-.344 200.092 200.092 0 0 0 16.3-13.041z"/><path d="m75.256 335.976c.042-.039.179-.165.4-.366 8.258-18.5 27.713-35.867 45.3-47.074 1.517-.967 2.934-1.854 4.257-2.683 8.5-5.33 13.639-8.546 15.981-14.533 2.254-5.761 1.579-13.551-.671-27.791-1.241-7.85 1.509-16.618 7.742-24.688a54.721 54.721 0 0 1 24.754-17.741c9.611-3.337 19.271-3.462 27.937-.361 10.119 3.623 18.605 11.43 25.22 23.208.233.415.458.845.679 1.281-1.338-5.981-3.141-11.752-5.677-16.267-6.615-11.778-15.1-19.585-25.22-23.208-8.665-3.1-18.326-2.976-27.937.361a54.727 54.727 0 0 0 -24.752 17.745c-6.233 8.07-8.983 16.838-7.742 24.688 2.251 14.24 2.925 22.03.671 27.791-2.341 5.987-7.475 9.2-15.981 14.533-1.323.829-2.74 1.716-4.256 2.683-21.272 13.554-45.29 36.118-48.906 58.8a5.773 5.773 0 0 0 .413 2.017 4.559 4.559 0 0 0 5.279 3.173 4.609 4.609 0 0 0 2.336-1.383c.055-.07.117-.129.173-.185z"/></g><path d="m239.023 110.309a6 6 0 0 0 -4.868 6.95l7.806 44.318a6 6 0 0 0 11.818-2.081l-7.805-44.318a6 6 0 0 0 -6.951-4.869z" fill="#0635c9"/><path d="m200.979 137.754a6 6 0 0 0 -1.939 8.261l14.186 22.885a6 6 0 1 0 10.2-6.322l-14.186-22.886a6 6 0 0 0 -8.261-1.938z" fill="#0635c9"/><path d="m276.187 161.205a5.995 5.995 0 0 0 7.1-4.645l5.512-26.355a6 6 0 0 0 -11.746-2.456l-5.511 26.351a6 6 0 0 0 4.645 7.105z" fill="#0635c9"/><path d="m496.617 309.811c-15.993-6.832-36.03-12.932-59.555-18.131a6 6 0 1 0 -2.589 11.716c22.8 5.04 42.121 10.911 57.431 17.45a6 6 0 0 0 4.713-11.035z" fill="#0635c9"/><path d="m82.3 290.551c-26.535 5.384-49.029 11.855-66.856 19.233a6 6 0 1 0 4.59 11.088c17.117-7.085 38.869-13.329 64.653-18.561a6 6 0 0 0 -2.387-11.76z" fill="#0635c9"/><path d="m288.625 292.882h30.542a6 6 0 0 0 0-12h-30.542a6 6 0 0 0 0 12z" fill="#0635c9"/><path d="m293.449 332.4c13.92-23.96 7.188-49.4-18.01-68.053-9.346-6.919-16.116-9.378-22.663-11.755a95.007 95.007 0 0 1 -14.364-6.237c-.213-1.349-.437-2.905-.681-4.585-1.685-11.642-4.231-29.234-11.107-40.821-22.355-37.669-55.118-28.988-64.627-25.429-24.222 9.063-40.911 32.963-37.2 53.278 2.2 12.03 3.122 19.274 1.73 23.1-1.135 3.119-4.544 5.469-12.145 10.488-1.322.873-2.738 1.808-4.253 2.825a161.746 161.746 0 0 0 -32.553 28.6c-10.885 12.814-17.24 25.485-18.885 37.662a13.384 13.384 0 0 0 .883 6.178 13.442 13.442 0 0 0 22.743 4.782c2.586-2.46 40.374-37.772 74.6-37.1a5.9 5.9 0 0 1 5.537 7.092c-7.7 33.245-50.706 61.63-53.687 63.56a13.442 13.442 0 0 0 -.666 23.23 13.382 13.382 0 0 0 5.8 2.3 51.605 51.605 0 0 0 5.257.264c30.866 0 62-26.332 71.2-34.789 1.336-1.228 2.57-2.382 3.723-3.458 6.66-6.221 9.743-8.986 13.042-9.361 4.041-.465 10.871 2.13 22.072 7.071 20.132 8.891 50.163-4.59 64.254-28.842zm-59.423 17.87c-27.614-12.181-31.783-10.784-48.146 4.5-1.132 1.057-2.345 2.19-3.657 3.4-18.007 16.566-44.956 33.478-66.779 31.451a7.594 7.594 0 0 1 -.856-.489 1.456 1.456 0 0 1 -.013-2.641c.149-.077.293-.16.434-.249 2.04-1.289 50.068-32 59.128-71.1a17.9 17.9 0 0 0 -16.983-21.8c-40.335-.806-81.61 38.932-83.347 40.626q-.178.173-.341.36a1.456 1.456 0 0 1 -2.566-.632 7.435 7.435 0 0 1 -.274-.945c3.131-21.687 25.871-43.941 46.187-57.578 1.488-1 2.879-1.916 4.177-2.774 18.7-12.344 21.027-16.072 15.609-45.755-2.668-14.617 10.888-32.882 29.6-39.885 28.1-10.512 44.4 10.705 50.1 20.315 5.661 9.539 8 25.713 9.55 36.416.483 3.327.9 6.2 1.335 8.292 2.106 10.078 6.15 24.548 16.913 33.811a6 6 0 0 0 7.828-9.1c-3.991-3.433-7.14-8.327-9.618-15.036 2.275.925 4.378 1.689 6.369 2.412 6.264 2.275 11.675 4.239 19.619 10.119 27.5 20.36 21.061 41.558 14.773 52.382-10.819 18.63-34.654 30.244-49.042 23.9z" fill="#1ae5be"/><path d="m461.394 264.1c19.446-10.323 27.446-42.254 17.12-68.332-10.2-25.765-34.349-36.224-64.6-27.979-11.22 3.058-17.341 6.853-23.261 10.524a95.092 95.092 0 0 1 -13.789 7.421c-1.19-.668-2.552-1.454-4.02-2.3-10.187-5.883-25.581-14.773-38.938-16.545-29.3-3.885-51.724 9.2-59.976 35.018-7.874 24.634.567 52.535 18.817 62.2 10.808 5.721 17.07 9.477 19.212 12.937 1.748 2.823 1.483 6.955.721 16.031-.133 1.579-.276 3.271-.414 5.09a161.751 161.751 0 0 0 2.315 43.271c3.326 16.481 9.345 29.315 17.89 38.143a13.364 13.364 0 0 0 5.4 3.132 13.442 13.442 0 0 0 17.832-14.9c-.333-3.538-4.742-55.032 17.04-81.547a5.9 5.9 0 0 1 9 .041c21.345 26.633 17.018 77.985 16.691 81.51a13.382 13.382 0 0 0 13.348 15.653 13.752 13.752 0 0 0 4.482-.751 13.4 13.4 0 0 0 5.4-3.132c8.544-8.829 14.563-21.663 17.889-38.144a161.751 161.751 0 0 0 2.315-43.271c-.139-1.81-.279-3.494-.412-5.065-.763-9.082-1.026-13.216.722-16.038 2.138-3.467 8.403-7.231 19.216-12.967zm-31.894 30c.129 1.544.269 3.2.4 4.975 1.866 24.4-1.537 56.036-16.632 71.916a7.423 7.423 0 0 1 -.914.37 1.456 1.456 0 0 1 -2.082-1.628c.031-.163.055-.327.073-.492a192.9 192.9 0 0 0 -.027-33.01c-2.1-24.83-8.57-44.155-19.217-57.439a17.894 17.894 0 0 0 -27.632-.154c-10.864 13.222-17.468 32.557-19.632 57.468a190.853 190.853 0 0 0 -.051 33.139c.017.163.041.326.071.488a1.591 1.591 0 0 1 -.1.95 1.608 1.608 0 0 1 -1.986.677 7.688 7.688 0 0 1 -.91-.369c-15.1-15.882-18.5-47.516-16.634-71.916.137-1.786.277-3.447.408-5 1.877-22.325.39-26.463-26.276-40.58-13.132-6.952-19.086-28.9-13-47.938 6.432-20.122 23.554-29.882 46.968-26.776 11 1.458 25.149 9.632 34.515 15.04 2.91 1.681 5.424 3.133 7.336 4.084 9.219 4.584 23.088 10.366 37.024 7.644a6 6 0 0 0 -2.3-11.777c-5.166 1.009-10.958.453-17.762-1.754 2.133-1.213 4.036-2.393 5.835-3.509 5.665-3.512 10.557-6.546 20.093-9.145 33.015-9 45.675 9.182 50.284 20.82 7.933 20.032 2.3 45.941-11.588 53.314-26.653 14.148-28.139 18.287-26.264 40.602z" fill="#1ae5be"/></svg>