<svg id="Layer_1" height="512" viewBox="0 0 512 512" width="512" xmlns="http://www.w3.org/2000/svg" data-name="Layer 1"><path d="m349.507 171.547a5.9 5.9 0 0 0 .349-.839c.014-.042.027-.085.04-.128a6 6 0 0 0 .206-.907c0-.015 0-.029 0-.044a5.863 5.863 0 0 0 .05-.935c0-.024 0-.047 0-.071a5.955 5.955 0 0 0 -.108-.913c0-.028 0-.057-.01-.086l-13.534-65.887 20.143-50.793a9.516 9.516 0 0 0 -3.89-11.644l-29.231-17.9a9.517 9.517 0 0 0 -12.138 1.836l-36.21 41.187-64.574 17.83c-.025.007-.047.019-.071.027a5.981 5.981 0 0 0 -.876.324c-.017.008-.033.018-.051.026a5.92 5.92 0 0 0 -.825.479l-.028.018a5.915 5.915 0 0 0 -.718.6c-.032.03-.063.059-.094.09a5.962 5.962 0 0 0 -.588.692c-.012.017-.028.03-.04.047l-185.747 260.795a6 6 0 0 0 1.754 8.6l169.9 104.02a6 6 0 0 0 8.455-2.347l147.813-284.024c.01-.016.016-.036.023-.053zm-19.962 12.376-124.146-76 8.434-11.842 122.423 74.952zm-102.425-93.782 51.824-14.307 45.731 28 10.825 52.66zm91.906-57.421 25.692 15.73-17.1 43.114-39.218-24.009zm-125.026 411.656-10.306-6.309 11.832-19.327a6 6 0 1 0 -10.234-6.266l-11.833 19.326-8.063-4.937 11.832-19.326a6 6 0 1 0 -10.234-6.266l-11.833 19.329-8.063-4.936 11.832-19.327a6 6 0 1 0 -10.23-6.267l-11.836 19.33-8.064-4.937 11.832-19.327a6 6 0 1 0 -10.235-6.265l-11.831 19.326-8.064-4.937 11.832-19.326a6 6 0 1 0 -10.234-6.265l-11.832 19.321-8.068-4.936 11.832-19.327a6 6 0 1 0 -10.232-6.266l-11.83 19.327-8.064-4.937 11.832-19.326a6 6 0 1 0 -10.238-6.266l-11.828 19.326-8.064-4.937 11.832-19.326a6 6 0 1 0 -10.234-6.266l-11.832 19.327-10.307-6.31 163.354-229.357 125.571 76.878z" fill="#0635c9"/><path d="m484.031 141.09-38.04-23.29a6 6 0 1 0 -6.265 10.235l38.039 23.289a3.739 3.739 0 0 1 1.235 5.137l-1.177 1.923-41.778-25.578a6 6 0 1 0 -6.265 10.235l41.778 25.577-2.58 4.213-41.778-25.578a6 6 0 0 0 -6.265 10.235l41.778 25.577-2.58 4.213-41.778-25.578a6 6 0 1 0 -6.265 10.234l41.778 25.578-2.58 4.213-41.778-25.577a6 6 0 1 0 -6.265 10.234l41.778 25.578-2.58 4.213-41.778-25.573a6 6 0 0 0 -6.265 10.23l41.779 25.577-2.58 4.213-41.779-25.578a6 6 0 0 0 -6.266 10.235l41.551 25.438a32.693 32.693 0 0 1 -17.941 11.415l-25.584 6.2a44.657 44.657 0 0 0 -27.743 20.211l-116.021 189.5a15.736 15.736 0 0 0 26.841 16.433l133.33-217.774 12-2.91a44.659 44.659 0 0 0 27.743-20.21l49.5-80.855a15.755 15.755 0 0 0 -5.199-21.635zm-227.609 337.123a3.735 3.735 0 1 1 -6.371-3.9l116.02-189.5a32.71 32.71 0 0 1 17.283-13.921z" fill="#0635c9"/><path d="m238.726 225.683a40.406 40.406 0 0 0 -13.187-1.662 48.11 48.11 0 0 1 -5.635-.2l-.316-.582c-2.846-5.238-7.146-13.152-12.708-17.66-9.583-7.769-24.518-12.018-37.695-.644-10.769 9.3-14.556 24.43-8.621 34.455 1.269 2.144 4.241 7.164 4.248 8.68 0 .662-1.61 2.86-3.171 4.985-.459.626-.952 1.3-1.475 2.023-3.948 5.463-16.534 24.589-12.793 41.342a9.461 9.461 0 0 0 2.075 3.959 9.616 9.616 0 0 0 16.374-2.379c3.082-6.388 13.394-23.222 25.623-27.686 1.661 14.966-11.88 33.64-13.153 35.356a9.616 9.616 0 0 0 5.355 15.64 11.477 11.477 0 0 0 2.468.292 7.945 7.945 0 0 0 2-.245c16.624-4.287 27.934-24.195 31-30.194.405-.792.778-1.532 1.125-2.223 1.184-2.358 2.409-4.8 3-5.094 1.352-.683 7.182-.324 9.672-.171 13.448.826 25.36-13.314 27.659-26.522a26.174 26.174 0 0 0 -3.269-18.555c-3.758-6.075-10.009-10.422-18.576-12.915zm10.025 29.417c-1.5 8.592-9.125 16.973-15.1 16.6-15.331-.945-18.482.608-24.131 11.854-.335.666-.693 1.379-1.084 2.144-3.59 7.013-9.4 15.347-15.934 20.258 5.211-8.6 12.57-23.611 10.808-37.49a11.744 11.744 0 0 0 -15.483-9.6c-13.314 4.615-23.413 18.052-28.733 26.638 1.4-8.049 6.184-17.016 10.8-23.4.5-.7.98-1.345 1.422-1.948 7.453-10.152 7.4-13.668-.424-26.88-2.914-4.923-.047-13.922 6.135-19.258 3.837-3.312 11.836-7.6 22.3.882 3.712 3.009 7.472 9.931 9.719 14.066.805 1.48 1.5 2.758 2.1 3.718 2.9 4.619 7.595 11.077 14.939 13.814a6 6 0 0 0 6.149-10.048 32.012 32.012 0 0 1 3.141.756c12.972 3.775 14.435 11.814 13.376 17.894z" fill="#1ae5be"/></svg>