<svg id="Layer_1" height="512" viewBox="0 0 512 512" width="512" xmlns="http://www.w3.org/2000/svg" data-name="Layer 1"><path d="m297 339.621a106.644 106.644 0 0 1 96.5-106.027c-3.293-.308-6.628-.473-10-.473a106.5 106.5 0 0 0 0 213c3.372 0 6.707-.165 10-.473a106.644 106.644 0 0 1 -96.5-106.027z" fill="#d4e1f4"/><g fill="#0635c9"><path d="m314.408 138.852v-26.325a58.649 58.649 0 0 0 -117.3 0v26.325a58.649 58.649 0 0 0 117.3 0zm-105.3 0v-26.325a46.649 46.649 0 0 1 93.3 0v26.325a46.7 46.7 0 0 1 -46.648 46.648 46.7 46.7 0 0 1 -46.649-46.648z"/><path d="m152.019 345.612a6 6 0 0 0 6 6h113.14a6 6 0 0 0 0-12h-107.14v-69.14a53.258 53.258 0 0 1 48.941-53.072 57.01 57.01 0 0 0 87.455.182 53.153 53.153 0 0 1 36.563 21.118 6 6 0 0 0 9.622-7.172 65.121 65.121 0 0 0 -48.332-26.172c-3.178-.173-4.72 1.688-6.674 4.07a45 45 0 0 1 -71.008-1.738 6.044 6.044 0 0 0 -4.976-2.433 64.872 64.872 0 0 0 -45.019 19.637c-1.381 1.413-2.682 2.885-3.918 4.4a57.516 57.516 0 0 0 -27.814-9.172c-3.192-.215-4.807 1.747-6.517 3.831a38.644 38.644 0 0 1 -60.975-1.492 6.07 6.07 0 0 0 -4.976-2.433 57.866 57.866 0 0 0 -56.391 57.831v51.851a6 6 0 0 0 6 6h136.019zm-130.019-21.904v-45.851a45.869 45.869 0 0 1 41.766-45.673 50.651 50.651 0 0 0 77.186.171 45.6 45.6 0 0 1 19.022 6.886 64.918 64.918 0 0 0 -7.955 31.231v53.236z"/><path d="m101.553 214.732a52.142 52.142 0 0 0 52.084-52.083v-23.042a52.084 52.084 0 1 0 -104.167 0v23.042a52.142 52.142 0 0 0 52.083 52.083zm-40.083-75.125a40.084 40.084 0 1 1 80.167 0v23.042a40.084 40.084 0 0 1 -80.167 0z"/></g><path d="m383.5 221.121a118.5 118.5 0 1 0 118.5 118.5 118.634 118.634 0 0 0 -118.5-118.5zm0 225a106.5 106.5 0 1 1 106.5-106.5 106.62 106.62 0 0 1 -106.5 106.5z" fill="#1ae5be"/><path d="m407.193 267.783a53.142 53.142 0 0 0 -15.81 7.145 62.588 62.588 0 0 1 -7.842 4.319c-.539-.308-1.118-.643-1.726-.994-6.827-3.942-17.143-9.9-26.315-11.116-18.794-2.493-33.916 5.463-40.455 21.28-6.6 15.969-2.691 35.412 8.9 44.263a23.949 23.949 0 0 0 3.309 2.122c5.283 2.8 10.548 5.7 11.819 7.754.8 1.294.621 3.919.172 9.261-.088 1.041-.182 2.157-.273 3.356-.678 8.854-1.681 38.99 13.831 55.017a10.758 10.758 0 0 0 4.357 2.574 11.055 11.055 0 0 0 3.607.6 10.842 10.842 0 0 0 10.813-12.6 117.873 117.873 0 0 1 .068-19.674c.855-9.84 3.4-23.425 10.662-32.266a1.894 1.894 0 0 1 2.7.008c13.391 16.709 10.756 49.282 10.515 51.939a10.883 10.883 0 0 0 14.421 11.991 10.766 10.766 0 0 0 4.355-2.571c15.514-16.03 14.511-46.166 13.834-55.02-.091-1.194-.185-2.3-.272-3.34-.449-5.346-.629-7.973.172-9.267 1.269-2.05 6.537-4.962 11.822-7.766a22.906 22.906 0 0 0 3.31-2.148c12.151-9.447 15.65-32.057 7.489-48.385-7.803-15.612-24.056-21.776-43.463-16.482zm28.61 55.4a10.9 10.9 0 0 1 -1.57 1.02c-9.208 4.888-13.761 7.787-16.4 12.052-2.923 4.722-2.505 9.7-1.927 16.587.085 1.008.176 2.088.265 3.249 1.109 14.5-.638 32.943-8.511 43.432.6-9.261 1.33-39.954-13.285-58.189a13.809 13.809 0 0 0 -21.338-.121c-14.92 18.161-14.193 49.013-13.59 58.309-7.873-10.487-9.619-28.93-8.51-43.431.089-1.166.18-2.251.265-3.264.579-6.885 1-11.861-1.925-16.584-2.644-4.271-7.2-7.167-16.411-12.045a11.745 11.745 0 0 1 -1.637-1.05c-7.232-5.523-9.565-19.327-5.094-30.143 2.584-6.25 9.631-16.377 27.788-13.968 6.811.9 16.25 6.355 21.89 9.612 1.94 1.12 3.615 2.087 4.927 2.74 6.318 3.142 15.846 7.1 25.611 5.194a6 6 0 1 0 -2.3-11.777 17.378 17.378 0 0 1 -5.912.055 40.488 40.488 0 0 1 12.209-5.5c17.778-4.844 25.9 2.91 29.574 10.271 5.615 11.231 3.613 27.535-4.122 33.547z" fill="#1ae5be"/></svg>