<svg id="Layer_1" height="512" viewBox="0 0 512 512" width="512" xmlns="http://www.w3.org/2000/svg" data-name="Layer 1"><path d="m291.729 404.085a86.026 86.026 0 0 1 75.915-85.314 85.915 85.915 0 1 0 0 170.628 86.024 86.024 0 0 1 -75.915-85.314z" fill="#d4e1f4"/><path d="m240.343 398.019a6 6 0 1 0 0 12h9.57a6 6 0 0 0 0-12z" fill="#0635c9"/><path d="m327.714 174.285a28.075 28.075 0 0 0 -.8-6.656 22.276 22.276 0 0 0 -14.568-15.954l.139-38.529a102.514 102.514 0 1 0 -205.027-.613l.1 33.046v.14l.134 5.989a22.269 22.269 0 0 0 -14.474 15.918 27.95 27.95 0 0 0 15.361 31.986l-9.61 36.109a66.07 66.07 0 0 0 37.6 77.655l-44.729 15.16a52.109 52.109 0 0 0 -35.4 49.374v69.478a6 6 0 0 0 6 6h214.585v-12h-61.052v-46.858l69.692-67.77 20.781 7.043 3.852-11.365-29.508-10a66.074 66.074 0 0 0 41.565-75.227l-8.055-39.078a27.847 27.847 0 0 0 13.414-23.848zm-117.74-152.285a90.511 90.511 0 0 1 90.511 91.087l-.118 32.589a111.09 111.09 0 0 1 -70.042-29.276c12.875-10.127 25.446-24.138 36.439-43.6a6 6 0 1 0 -10.448-5.9c-34.238 60.6-83.57 63.357-107.277 64.681l-.349.02c-5.658.316-11 4.311-13.951 10.428a8.589 8.589 0 0 1 -4.06 3.988 8.749 8.749 0 0 1 -9.913-1.712l-1.218-1.219-.09-30.576a90.618 90.618 0 0 1 90.516-90.51zm-91.4 261.833a54.02 54.02 0 0 1 -8.009-45.026l4.018-15.1a102.774 102.774 0 0 0 22.241 39.931 93.173 93.173 0 0 0 28.511 21.579v18.407l-8.315 2.819a53.692 53.692 0 0 1 -38.448-22.61zm124.226 21.606-32.734 32.644-32.732-32.644v-15.5a82.757 82.757 0 0 0 24.332 3.652h16.8a82.772 82.772 0 0 0 24.334-3.653zm-84.364 13.212v-.016l11.3-3.828 34.241 34.148v28.656l-56.747-55.178 11.171-3.786zm-89.995 122.737v-63.478a40.115 40.115 0 0 1 27.25-38.01l38.775-13.142 69.507 67.59v47.039zm147.532-63.6v-28.648l34.427-34.333 22.5 7.627zm83.928-93.5a53.906 53.906 0 0 1 -41.177 20.312l.006.357-3.931-1.333v-18.405a93.173 93.173 0 0 0 28.509-21.578 102.847 102.847 0 0 0 23.249-43.628l4.047 19.621a53.915 53.915 0 0 1 -10.704 44.653zm2.668-94.335a6 6 0 0 0 -4.965 5.91v.131a90.008 90.008 0 0 1 -23.194 59.6 79.7 79.7 0 0 1 -30.649 21.3h-.961v.357a70.82 70.82 0 0 1 -24.334 4.342h-16.8a70.832 70.832 0 0 1 -24.332-4.341v-.358h-.964a79.7 79.7 0 0 1 -30.649-21.3 90 90 0 0 1 -23.195-59.6v-.131a6 6 0 0 0 -4.964-5.91 15.93 15.93 0 0 1 -12.689-19.469 10.467 10.467 0 0 1 9.481-8.015 6 6 0 0 0 5.355-4.912 20.7 20.7 0 0 0 25.842-10.313c1.107-2.3 2.791-3.6 3.811-3.657l.347-.018c15.029-.84 42.783-2.4 70.631-20.09a123.116 123.116 0 0 0 80.115 34.209 6 6 0 0 0 5.323 4.781 10.468 10.468 0 0 1 9.481 8.015 15.93 15.93 0 0 1 -12.689 19.469z" fill="#0635c9"/><g fill="#1ae5be"><path d="m357.644 306.17a97.915 97.915 0 1 0 97.915 97.915 98.026 98.026 0 0 0 -97.915-97.915zm0 183.83a85.915 85.915 0 1 1 85.915-85.915 86.012 86.012 0 0 1 -85.915 85.915z"/><path d="m402.251 344.375c-7.044-3.553-15.456-4.037-25.007-1.434a45.362 45.362 0 0 0 -13.507 6.1 53.278 53.278 0 0 1 -6.009 3.354l-1.012-.583c-5.787-3.342-14.533-8.393-22.411-9.438-9.254-1.229-17.25.334-23.772 4.638a30.494 30.494 0 0 0 -12.141 16.477c-4.79 14.984.331 31.42 11.657 37.416 2.977 1.576 8.519 4.51 9.535 6.15.532.861.3 3.646 0 7.171q-.111 1.311-.23 2.819c-.575 7.524-1.417 33.137 11.864 46.86a9.929 9.929 0 0 0 4.032 2.4 10.093 10.093 0 0 0 13.364-11.115c-.819-8.133-.8-31.106 8.781-42.772a.6.6 0 0 1 .755 0c10.945 13.654 8.818 40.458 8.607 42.8a10.151 10.151 0 0 0 13.362 11.09 9.945 9.945 0 0 0 4.036-2.4c13.284-13.727 12.44-39.34 11.865-46.863-.077-1-.155-1.935-.228-2.805-.3-3.529-.53-6.315 0-7.174 1.015-1.64 6.559-4.583 9.537-6.164 13.09-6.947 16.125-27.162 10.661-40.96a28.843 28.843 0 0 0 -13.739-15.567zm-2.545 45.925c-15.109 8.022-17.038 11.052-15.871 24.942.07.842.146 1.745.221 2.716.817 10.685-.223 23.944-5.031 32.757.294-10.423-.571-32.16-11.509-45.807a12.543 12.543 0 0 0 -19.391-.111c-11.176 13.6-12.068 35.454-11.774 45.917-4.807-8.811-5.847-22.07-5.031-32.756.075-.975.152-1.881.223-2.728.5-5.957.863-10.262-1.756-14.492-2.335-3.772-6.244-6.269-14.123-10.441-6.034-3.194-8.765-14.015-5.843-23.157 1.824-5.7 7.226-14.948 22.906-12.872 5.516.731 13.324 5.24 17.988 7.934 1.639.947 3.056 1.764 4.183 2.325 5.422 2.7 13.613 6.089 22.081 4.437a6 6 0 1 0 -2.3-11.777 11.794 11.794 0 0 1 -1.507.191 31.157 31.157 0 0 1 7.224-2.861c15.327-4.178 21.746 3.046 24.436 9.841 3.839 9.685 1.298 22.535-5.126 25.942z"/></g></svg>